<svg width="28" height="32" viewBox="0 0 28 32" fill="none" xmlns="http://www.w3.org/2000/svg">
<path d="M8.26569 13.1702C7.99088 13.4395 7.62142 13.5904 7.23662 13.5904C6.85183 13.5904 6.48237 13.4395 6.20757 13.1701C6.10231 13.069 5.96161 13.0132 5.81566 13.0147C5.66971 13.0162 5.53016 13.0748 5.42696 13.178C5.32377 13.2812 5.26515 13.4208 5.2637 13.5667C5.26225 13.7127 5.31808 13.8534 5.41921 13.9586C5.90485 14.4338 6.55726 14.6998 7.23667 14.6998C7.91608 14.6998 8.56847 14.4337 9.05409 13.9585C9.15565 13.8534 9.21184 13.7125 9.21056 13.5663C9.20928 13.4202 9.15064 13.2803 9.04726 13.177C8.94388 13.0736 8.80404 13.015 8.65786 13.0137C8.51167 13.0124 8.37084 13.0686 8.26569 13.1702Z" fill="black"/>
<path d="M19.3559 1.28231e-06C17.7646 0.000854283 16.2049 0.444192 14.8512 1.28047C7.9375 -0.394488 0.763679 4.96971 2.40756 12.1958C2.49198 12.3877 2.50166 12.6042 2.43471 12.8028C2.14506 13.4175 1.35829 14.8173 0.21871 16.7475C0.0850016 16.9802 0.0102533 17.2421 0.000982085 17.5104C-0.00828914 17.7786 0.0481984 18.045 0.165519 18.2864C0.28284 18.5278 0.457432 18.7369 0.674072 18.8953C0.890712 19.0538 1.14282 19.1568 1.40842 19.1954L2.64162 19.3653L2.85233 22.8543C2.88528 26.1359 5.33471 25.9987 7.56967 25.9856C8.16898 26.0131 8.74139 26.2424 9.19391 26.6363C9.64642 27.0302 9.95245 27.5655 10.0623 28.1553V29.5459C10.065 29.8419 10.1458 30.132 10.2964 30.3868C10.447 30.6416 10.6622 30.8522 10.9202 30.9973C11.1783 31.1423 11.47 31.2168 11.766 31.2131C12.062 31.2094 12.3518 31.1277 12.6061 30.9762L20.128 26.4054C20.2913 26.3043 20.426 26.163 20.5193 25.9951C20.6126 25.8272 20.6614 25.6381 20.661 25.446C20.6603 24.578 20.7156 23.7109 20.8265 22.85C21.164 20.7422 21.7255 18.6764 22.5013 16.6877C24.378 15.9553 25.9397 14.5902 26.9165 12.8284C27.8932 11.0665 28.2236 9.01876 27.8505 7.03914C27.4774 5.05951 26.4242 3.27252 24.873 1.98716C23.3219 0.701808 21.3704 -0.00109581 19.3559 1.28231e-06ZM20.9256 17.7695C19.6985 21.6855 19.6536 22.4545 19.5485 25.4526L12.0256 30.024C11.9412 30.0771 11.8439 30.1065 11.7442 30.1089C11.6445 30.1113 11.5459 30.0867 11.459 30.0378C11.3721 29.9888 11.3 29.9172 11.2504 29.8307C11.2009 29.7441 11.1756 29.6457 11.1773 29.546V28.1145C11.0534 27.2405 10.6273 26.4375 9.97287 25.8449C9.31849 25.2524 8.47723 24.9078 7.59522 24.8711C5.29821 24.904 3.90969 24.93 3.96635 22.8146L3.88822 21.5182H6.90971C7.05575 21.5154 7.19487 21.4555 7.29716 21.3512C7.39946 21.2469 7.45677 21.1067 7.45676 20.9606C7.45676 20.8146 7.39944 20.6743 7.29714 20.5701C7.19484 20.4658 7.05572 20.4059 6.90968 20.4031H3.82111L3.75506 19.306C3.74144 19.0504 3.64054 18.8071 3.46922 18.6169C3.29789 18.4266 3.0665 18.3009 2.81366 18.2606L1.56031 18.0908C1.47558 18.0789 1.39506 18.0464 1.32583 17.9961C1.2566 17.9459 1.20076 17.8794 1.16324 17.8025C1.12571 17.7256 1.10764 17.6407 1.11061 17.5552C1.11358 17.4697 1.1375 17.3862 1.18028 17.3121C1.99752 15.9281 3.0538 14.1047 3.44255 13.2798C3.63301 12.8573 3.65116 12.3771 3.49315 11.9414C2.09974 5.97834 7.81431 1.30287 13.6168 2.1978C7.72442 7.37896 11.4318 17.2915 19.356 17.2887C19.9657 17.2879 20.5736 17.2226 21.1696 17.0938C21.0927 17.3043 21.0123 17.525 20.9256 17.7695ZM19.3559 16.1736C17.3597 16.1713 15.4458 15.3773 14.0343 13.9657C12.6227 12.5542 11.8287 10.6403 11.8264 8.64409C12.24 -1.34389 26.473 -1.34153 26.8849 8.64414C26.8827 10.6403 26.0888 12.5541 24.6773 13.9657C23.2658 15.3772 21.3521 16.1713 19.3559 16.1736Z" fill="black"/>
<path d="M23.4011 7.9042C23.4475 7.36427 23.6516 5.40223 22.6094 5.55249C21.9627 5.71097 21.3581 6.00815 20.8376 6.42345C19.7502 4.06922 18.9651 4.06254 17.8746 6.42345C15.7445 4.93015 15.0816 5.30558 15.3106 7.90445C14.774 7.85489 12.7977 7.66188 12.959 8.69625C13.3353 10.0304 14.2074 11.1702 15.3966 11.8823C16.5859 12.5945 18.0024 12.825 19.3561 12.5269C20.68 12.8302 22.0699 12.6103 23.2355 11.9131C24.4551 11.2021 25.356 10.051 25.7532 8.69631C25.9077 7.6534 23.9361 7.85893 23.4011 7.9042ZM22.317 6.82168C22.3621 7.28653 22.3244 7.75569 22.2055 8.20734C21.8736 8.31774 21.5561 8.46751 21.2598 8.65343C21.2704 8.30261 21.2415 7.95171 21.1738 7.60733C21.5061 7.2808 21.893 7.01491 22.317 6.82168ZM19.3561 6.0273C19.8815 6.7675 20.1638 7.65274 20.1638 8.56045C20.1638 9.46816 19.8816 10.3534 19.3562 11.0936C18.8306 10.3535 18.5483 9.46823 18.5483 8.56048C18.5483 7.65273 18.8306 6.76745 19.3561 6.0273ZM16.3953 6.82168C16.8193 7.01496 17.2062 7.281 17.5384 7.60774C17.4707 7.95174 17.4419 8.30227 17.4524 8.65272C17.1553 8.46801 16.8378 8.31844 16.5062 8.20703C16.3876 7.75544 16.35 7.28639 16.3953 6.82168ZM16.0299 10.9455C15.2505 10.4839 14.6237 9.80372 14.2272 8.98924C15.132 8.93194 16.0344 9.13487 16.8276 9.57405C17.7432 9.9515 17.8865 10.8703 18.3139 11.537C17.5122 11.5575 16.7209 11.3526 16.0299 10.9455ZM22.6796 10.9467C21.9895 11.3533 21.199 11.5579 20.3982 11.537C20.6554 11.1366 20.8582 10.7037 21.0012 10.2498C21.268 9.98583 21.5674 9.7571 21.8923 9.56914C22.684 9.13366 23.5833 8.93254 24.4851 8.98929C24.0888 9.80506 23.4608 10.4859 22.6796 10.9467Z" fill="black"/>
</svg>
