<svg width="84" height="121" viewBox="0 0 84 121" fill="none" xmlns="http://www.w3.org/2000/svg">
<path d="M60.3167 56.1104H62.4208C69.228 82.9526 70.3001 97.3401 62.4208 120.638H56.1084C63.1701 96.4925 66.5032 82.2234 60.3167 56.1104Z" fill="#1E2920"/>
<path d="M40.5718 2.59749C41.2515 1.94283 42.3273 1.94283 43.007 2.59749L44.2128 3.75882C44.8036 4.32782 45.7097 4.41178 46.395 3.96103L47.7937 3.04104C48.5821 2.52243 49.6395 2.72009 50.1874 3.48851L51.1593 4.85163C51.6355 5.5195 52.5107 5.76853 53.2671 5.45137L54.8111 4.80405C55.6814 4.43914 56.6845 4.82774 57.0818 5.68375L57.7867 7.20225C58.132 7.94624 58.9466 8.35185 59.7485 8.17909L61.385 7.82649C62.3076 7.62772 63.2222 8.19402 63.4555 9.10846L63.8693 10.7306C64.0721 11.5254 64.7982 12.0738 65.6182 12.0513L67.2917 12.0054C68.2351 11.9796 69.03 12.7043 69.0913 13.646L69.2 15.3166C69.2533 16.1351 69.8663 16.8076 70.6765 16.9361L72.3299 17.1986C73.2619 17.3465 73.9102 18.2049 73.7974 19.1419L73.5973 20.804C73.4993 21.6184 73.9783 22.392 74.751 22.6673L76.3281 23.229C77.2171 23.5457 77.6966 24.5086 77.4135 25.4089L76.9114 27.006C76.6654 27.7885 76.9941 28.637 77.7031 29.0495L79.1501 29.8915C79.9658 30.3661 80.2602 31.4008 79.8165 32.2337L79.0295 33.7113C78.6439 34.4353 78.8111 35.3298 79.4322 35.8655L80.6998 36.959C81.4144 37.5755 81.5137 38.6466 80.9245 39.3839L79.8794 40.6917C79.3673 41.3325 79.3673 42.2424 79.8794 42.8832L80.9245 44.191C81.5137 44.9283 81.4144 45.9994 80.6998 46.6158L79.4322 47.7094C78.8111 48.2451 78.6439 49.1396 79.0295 49.8636L79.8165 51.3412C80.2602 52.1741 79.9658 53.2088 79.1501 53.6834L77.7031 54.5254C76.9941 54.9379 76.6654 55.7864 76.9114 56.5689L77.4135 58.166C77.6966 59.0662 77.2171 60.0292 76.3281 60.3459L74.751 60.9076C73.9783 61.1828 73.4993 61.9565 73.5973 62.7709L73.7974 64.433C73.9102 65.37 73.2619 66.2284 72.3299 66.3763L70.6765 66.6387C69.8663 66.7673 69.2533 67.4398 69.2 68.2583L69.0913 69.9289C69.03 70.8706 68.2351 71.5953 67.2917 71.5695L65.6182 71.5236C64.7982 71.5011 64.0721 72.0495 63.8693 72.8443L63.4555 74.4664C63.2222 75.3809 62.3076 75.9472 61.385 75.7484L59.7485 75.3958C58.9466 75.223 58.132 75.6286 57.7867 76.3726L57.0818 77.8911C56.6845 78.7471 55.6814 79.1357 54.8111 78.7708L53.2671 78.1235C52.5107 77.8064 51.6355 78.0554 51.1593 78.7233L50.1874 80.0864C49.6395 80.8548 48.5821 81.0525 47.7937 80.5338L46.395 79.6139C45.7097 79.1631 44.8036 79.2471 44.2128 79.8161L43.007 80.9774C42.3273 81.6321 41.2515 81.6321 40.5718 80.9774L39.366 79.8161C38.7752 79.2471 37.8691 79.1631 37.1838 79.6139L35.7851 80.5338C34.9967 81.0525 33.9393 80.8548 33.3914 80.0864L32.4195 78.7233C31.9433 78.0554 31.0681 77.8064 30.3116 78.1235L28.7677 78.7708C27.8974 79.1357 26.8943 78.7471 26.497 77.8911L25.7921 76.3726C25.4468 75.6286 24.6322 75.223 23.8303 75.3958L22.1938 75.7484C21.2712 75.9472 20.3566 75.3809 20.1233 74.4664L19.7095 72.8443C19.5067 72.0495 18.7805 71.5011 17.9606 71.5236L16.2871 71.5695C15.3437 71.5953 14.5488 70.8706 14.4875 69.9289L14.3788 68.2583C14.3255 67.4398 13.7124 66.7673 12.9023 66.6387L11.2489 66.3763C10.3168 66.2284 9.66857 65.37 9.78137 64.433L9.98147 62.7709C10.0795 61.9565 9.60046 61.1828 8.82778 60.9076L7.25072 60.3459C6.3617 60.0292 5.88221 59.0662 6.16526 58.166L6.66736 56.5689C6.91337 55.7864 6.58465 54.9379 5.87569 54.5254L4.42871 53.6834C3.61301 53.2088 3.31863 52.1741 3.76228 51.3412L4.54929 49.8636C4.93489 49.1396 4.76769 48.2451 4.1466 47.7094L2.87896 46.6158C2.16438 45.9994 2.06512 44.9283 2.65427 44.191L3.69939 42.8832C4.21145 42.2424 4.21145 41.3325 3.69939 40.6917L2.65427 39.3839C2.06512 38.6466 2.16438 37.5755 2.87897 36.959L4.1466 35.8655C4.76769 35.3298 4.93489 34.4353 4.54929 33.7113L3.76228 32.2337C3.31863 31.4008 3.61301 30.3661 4.42871 29.8915L5.87569 29.0495C6.58465 28.637 6.91337 27.7885 6.66736 27.006L6.16526 25.4089C5.88221 24.5086 6.3617 23.5457 7.25072 23.229L8.82778 22.6673C9.60047 22.392 10.0795 21.6184 9.98147 20.804L9.78137 19.1419C9.66857 18.2049 10.3168 17.3465 11.2489 17.1986L12.9023 16.9361C13.7124 16.8076 14.3255 16.1351 14.3788 15.3166L14.4875 13.646C14.5488 12.7043 15.3437 11.9796 16.2871 12.0054L17.9606 12.0513C18.7805 12.0738 19.5067 11.5254 19.7095 10.7306L20.1233 9.10846C20.3566 8.19401 21.2712 7.62772 22.1938 7.82649L23.8303 8.17909C24.6322 8.35185 25.4468 7.94624 25.7921 7.20225L26.497 5.68375C26.8943 4.82774 27.8974 4.43914 28.7677 4.80405L30.3116 5.45137C31.0681 5.76853 31.9433 5.5195 32.4195 4.85163L33.3914 3.48851C33.9393 2.72009 34.9967 2.52243 35.7851 3.04104L37.1838 3.96103C37.8691 4.41178 38.7752 4.32782 39.366 3.75882L40.5718 2.59749Z" fill="#EFC30F"/>
<path d="M41.7862 7.66797L48.0876 14.1782L56.5897 11.0468L59.4425 19.6464L68.4612 20.514L67.3003 29.4997L75.0494 34.1945L70.1047 41.7867L75.0494 49.3788L67.3003 54.0736L68.4612 63.0593L59.4425 63.927L56.5897 72.5265L48.0876 69.3952L41.7862 75.9053L35.4847 69.3952L26.9826 72.5265L24.1299 63.927L15.1111 63.0593L16.2721 54.0736L8.52291 49.3788L13.4677 41.7867L8.52291 34.1945L16.2721 29.4997L15.1111 20.514L24.1299 19.6464L26.9826 11.0468L35.4847 14.1782L41.7862 7.66797Z" fill="#E6901D"/>
<path d="M32.9561 8.83057L40.6385 11.1013L48.1297 8.26281L54.0661 13.642L62.0471 14.3349L65.0616 21.757L71.9516 25.8441L71.4472 33.8392L75.8815 40.511L71.9582 47.4954L73.0586 55.4305L66.4933 60.021L64.0419 67.6477L56.135 68.9351L50.6173 74.7428L42.9349 72.472L35.4436 75.3106L29.5073 69.9314L21.5263 69.2385L18.5118 61.8164L11.6218 57.7293L12.1262 49.7342L7.69186 43.0624L11.6152 36.0779L10.5148 28.1429L17.0801 23.5524L19.5315 15.9257L27.4384 14.6383L32.9561 8.83057Z" fill="#E6901D"/>
<path d="M41.7847 21.0469L44.6593 22.714L47.8976 21.9682L50.1531 24.4086L53.4673 24.6505L54.9033 27.6472L57.999 28.8552L58.4878 32.1421L61.0899 34.2089L60.5882 37.4939L62.4655 40.2359L61.0179 43.227L62.0036 46.4005L59.7386 48.8321L59.745 52.1551L56.864 53.811L55.8907 56.9883L52.6495 57.7214L50.7829 60.4707L47.4697 60.2159L44.8757 62.2929L41.7847 61.0728L38.6938 62.2929L36.0997 60.2159L32.7865 60.4707L30.9199 57.7214L27.6787 56.9883L26.7055 53.811L23.8244 52.1551L23.8309 48.8321L21.5659 46.4005L22.5515 43.227L21.1039 40.2359L22.9812 37.4939L22.4795 34.2089L25.0816 32.1421L25.5705 28.8552L28.6662 27.6472L30.1021 24.6505L33.4164 24.4086L35.6718 21.9682L38.9101 22.714L41.7847 21.0469Z" fill="#382720"/>
<circle cx="41.7831" cy="41.7874" r="4.68296" fill="#282421"/>
<circle cx="41.7844" cy="41.7874" r="3.34497" fill="#522E20"/>
<mask id="mask0_2007_4099" style="mask-type:alpha" maskUnits="userSpaceOnUse" x="1" y="1" width="81" height="82">
<path d="M41.784 1.4248L45.2177 4.73184L49.2006 2.11206L51.9682 5.99372L56.3647 4.1504L58.3719 8.47452L63.0322 7.47044L64.2107 12.0897L68.9762 11.9591L69.2858 16.7163L73.9941 17.4635L73.4243 22.1966L77.9152 23.7963L76.4854 28.3441L80.6058 30.7417L78.3647 34.9493L81.9745 38.0632L78.9984 41.7874L81.9745 45.5116L78.3647 48.6256L80.6058 52.8332L76.4854 55.2308L77.9152 59.7786L73.4243 61.3783L73.9941 66.1114L69.2858 66.8586L68.9762 71.6158L64.2107 71.4851L63.0322 76.1044L58.3719 75.1004L56.3647 79.4245L51.9682 77.5812L49.2006 81.4628L45.2177 78.843L41.784 82.1501L38.3503 78.843L34.3674 81.4628L31.5998 77.5812L27.2034 79.4245L25.1962 75.1004L20.5358 76.1044L19.3574 71.4851L14.5919 71.6158L14.2823 66.8586L9.57394 66.1114L10.1437 61.3783L5.65287 59.7786L7.08268 55.2308L2.9622 52.8332L5.20332 48.6256L1.59357 45.5116L4.56967 41.7874L1.59357 38.0632L5.20332 34.9493L2.9622 30.7417L7.08268 28.3441L5.65287 23.7963L10.1437 22.1966L9.57394 17.4635L14.2823 16.7163L14.5919 11.9591L19.3574 12.0897L20.5358 7.47044L25.1962 8.47452L27.2034 4.1504L31.5998 5.99372L34.3674 2.11206L38.3503 4.73184L41.784 1.4248Z" fill="#EFC30F"/>
</mask>
<g mask="url(#mask0_2007_4099)">
<g style="mix-blend-mode:multiply" opacity="0.5">
<path d="M41.7358 41.7325L44.3482 82.3743L41.5607 84.9388L-0.585915 74.2349L-5.38037 37.1057L13.7975 2.87551L46.2437 -1.91895L41.7358 41.7325Z" fill="#EA931F"/>
</g>
</g>
</svg>
