<svg width="23" height="26" viewBox="0 0 23 26" fill="none" xmlns="http://www.w3.org/2000/svg">
<g clip-path="url(#clip0_3549_4058)">
<path d="M17.3631 8.15653L21.9052 10.762C22.4117 11.0522 22.4117 11.8157 21.9052 12.106L17.3631 14.7114C17.2404 14.7817 17.1399 14.8877 17.0729 15.0158L14.5889 19.78C14.3122 20.3112 13.5842 20.3112 13.3075 19.78L10.8235 15.0158C10.7565 14.8871 10.6555 14.7817 10.5333 14.7114L5.99116 12.106C5.48472 11.8157 5.48472 11.0522 5.99116 10.762L10.5333 8.15653C10.656 8.08628 10.7565 7.98028 10.8235 7.85211L13.3069 3.08799C13.5836 2.55679 14.3116 2.55679 14.5883 3.08799L17.0723 7.85211C17.1393 7.9809 17.2404 8.08628 17.3626 8.15653H17.3631Z" fill="url(#paint0_linear_3549_4058)"/>
<path d="M5.61109 20.418L7.2203 21.3412C7.72674 21.6314 7.72674 22.3949 7.2203 22.6852L5.61109 23.6083C5.48829 23.6785 5.38783 23.7845 5.32085 23.9127L4.44075 25.6006C4.16403 26.1318 3.4361 26.1318 3.15937 25.6006L2.27927 23.9127C2.2123 23.7839 2.11124 23.6785 1.98904 23.6083L0.37983 22.6852C-0.12661 22.3949 -0.12661 21.6314 0.37983 21.3412L1.98904 20.418C2.11183 20.3478 2.2123 20.2418 2.27927 20.1136L3.15937 18.4257C3.4361 17.8945 4.16403 17.8945 4.44075 18.4257L5.32085 20.1136C5.38783 20.2424 5.48888 20.3478 5.61109 20.418Z" fill="url(#paint1_linear_3549_4058)" fill-opacity="0.6"/>
<path d="M6.13187 2.51169L7.18046 3.13462C7.51047 3.33048 7.51047 3.84571 7.18046 4.04157L6.13187 4.6645C6.05186 4.7119 5.98639 4.78343 5.94275 4.86992L5.36926 6.00891C5.18894 6.36736 4.71461 6.36736 4.53429 6.00891L3.9608 4.86992C3.91716 4.78301 3.85131 4.7119 3.77168 4.6645L2.72309 4.04157C2.39308 3.84571 2.39308 3.33048 2.72309 3.13462L3.77168 2.51169C3.85169 2.46429 3.91716 2.39276 3.9608 2.30627L4.53429 1.16728C4.71461 0.808824 5.18894 0.808824 5.36926 1.16728L5.94275 2.30627C5.98639 2.39318 6.05224 2.46429 6.13187 2.51169Z" fill="url(#paint2_linear_3549_4058)" fill-opacity="0.4"/>
</g>
<defs>
<linearGradient id="paint0_linear_3549_4058" x1="5.61133" y1="2.68959" x2="24.4522" y2="24.8652" gradientUnits="userSpaceOnUse">
<stop stop-color="#08415C"/>
<stop offset="1" stop-color="#48ACF0"/>
</linearGradient>
<linearGradient id="paint1_linear_3549_4058" x1="0" y1="18.0273" x2="8.58794" y2="28.1353" gradientUnits="userSpaceOnUse">
<stop stop-color="#08415C"/>
<stop offset="1" stop-color="#48ACF0"/>
</linearGradient>
<linearGradient id="paint2_linear_3549_4058" x1="2.47559" y1="0.898438" x2="8.30014" y2="7.51831" gradientUnits="userSpaceOnUse">
<stop stop-color="#08415C"/>
<stop offset="1" stop-color="#48ACF0"/>
</linearGradient>
<clipPath id="clip0_3549_4058">
<rect width="22.2857" height="26" fill="white"/>
</clipPath>
</defs>
</svg>
