<svg width="28" height="29" viewBox="0 0 28 29" fill="none" xmlns="http://www.w3.org/2000/svg">
<path d="M27.8133 2.48002L25.3961 0.156964C25.3019 0.0627854 25.1449 0 24.988 0C24.831 0 24.7054 0.0627854 24.5799 0.188356L11.8344 13.4989C11.6147 13.7186 11.6147 14.0953 11.8658 14.3151L14.2831 16.6381C14.3772 16.7323 14.5342 16.7951 14.6912 16.7951C14.8481 16.7951 14.9737 16.7323 15.0993 16.6068L27.8761 3.29624C28.0645 3.07649 28.0331 2.69977 27.8133 2.48002ZM14.6284 15.4138L13.0273 13.8756L25.0194 1.38128L26.6204 2.91952L14.6284 15.4138Z" fill="black"/>
<path d="M5.77679 21.7862C6.87553 22.0373 7.84871 22.1315 8.66492 22.1315C9.98341 22.1315 10.988 21.8804 11.8042 21.4723C12.4007 21.1583 12.8401 20.7816 13.1855 20.3735C13.6878 19.7457 13.9389 19.0864 14.0959 18.6155C14.2214 18.1132 14.2214 17.7679 14.2214 17.7365C14.2214 17.5796 14.1586 17.4226 14.0331 17.3284L11.2077 14.6286C11.1135 14.5345 10.9566 14.4717 10.7996 14.4717C10.3601 14.4717 9.98341 14.5345 9.63809 14.6286C9.35556 14.7228 9.07302 14.8484 8.85327 15.0054C8.44517 15.2879 8.19403 15.6646 8.00567 16.0413C7.72314 16.6378 7.62896 17.2342 7.53478 17.8307C7.47199 18.1132 7.4406 18.3958 7.34642 18.6469C7.28364 18.8981 7.18946 19.1178 7.09528 19.3062C7.0011 19.4631 6.87553 19.6515 6.71857 19.8084C6.46743 20.091 6.18489 20.3421 5.93375 20.5305C5.80818 20.6247 5.714 20.6874 5.65122 20.7502C5.61982 20.7816 5.58843 20.7816 5.55704 20.813H5.52565C5.33729 20.9386 5.24311 21.1583 5.2745 21.3781C5.36868 21.535 5.55704 21.7234 5.77679 21.7862ZM7.59756 20.5305C7.81731 20.3107 8.00567 20.0596 8.16263 19.7771C8.44517 19.2748 8.57074 18.7411 8.66492 18.2074C8.7277 17.8307 8.79049 17.454 8.88467 17.1087C8.94745 16.8575 9.01024 16.6378 9.10442 16.4494C9.1672 16.2925 9.26138 16.1983 9.32416 16.0727C9.44973 15.9157 9.6067 15.7902 9.85784 15.696C10.0462 15.6332 10.2973 15.5704 10.6113 15.539L13.0599 17.8621C13.0285 18.0191 12.9971 18.2702 12.8715 18.5527C12.7774 18.8039 12.6518 19.055 12.4634 19.3376C12.1809 19.7457 11.8042 20.1224 11.2077 20.4363C10.6113 20.7502 9.79505 20.9386 8.66492 20.9386C8.22542 20.9386 7.75453 20.9072 7.22085 20.8444C7.34642 20.7816 7.47199 20.656 7.59756 20.5305Z" fill="black"/>
<path d="M22.9795 10.0143C23.3248 11.27 23.5445 12.6199 23.5445 14.0325C23.5445 15.2569 23.5131 16.2928 23.419 17.1404C23.3562 17.7683 23.262 18.302 23.1678 18.7101C23.105 19.024 23.0109 19.2751 22.9167 19.4949C22.7597 19.8088 22.6341 19.9658 22.5086 20.0599C22.4458 20.1227 22.383 20.1541 22.2888 20.1541C22.226 20.1855 22.1319 20.1855 22.0377 20.1855C21.9749 20.1855 21.8807 20.1855 21.7865 20.1541C21.661 20.1227 21.5982 20.0913 21.504 20.0286C21.4412 19.9658 21.3784 19.903 21.3157 19.8088C21.1901 19.6204 21.0959 19.3693 20.9703 19.0868C20.8762 18.867 20.8134 18.6159 20.7192 18.3647C20.5622 17.988 20.4053 17.6113 20.0599 17.2974C19.903 17.1404 19.6832 16.9835 19.4635 16.8893C19.2437 16.7951 18.9612 16.7323 18.6787 16.7323C18.5217 16.7323 18.3647 16.7323 18.1764 16.7637C17.8625 16.8265 17.5485 16.9521 17.3288 17.1404C17.1404 17.2974 17.0149 17.4544 16.9207 17.6427C16.7637 17.9252 16.6695 18.2392 16.6381 18.5531C16.5754 18.867 16.5754 19.2123 16.5754 19.5891C16.5754 20.4994 16.6695 21.504 16.6695 22.4458C16.6695 23.0423 16.6381 23.6387 16.5126 24.141C16.4184 24.5177 16.2928 24.8944 16.1359 25.2084C16.0103 25.4281 15.8533 25.6478 15.6336 25.8362C15.3196 26.1187 14.9429 26.3699 14.4093 26.5268C13.8756 26.7152 13.1849 26.8094 12.3373 26.8094H12.3059C10.7677 26.8094 9.32364 26.4641 7.97375 25.8048C5.96462 24.8316 4.26941 23.1992 3.04509 21.1587C1.82078 19.0868 1.13014 16.6067 1.13014 13.9384C1.13014 10.3596 2.38585 7.12615 4.42637 4.80309C5.43094 3.64156 6.65526 2.69977 7.97375 2.07192C9.32364 1.41267 10.7677 1.06735 12.3059 1.06735C14.9115 1.06735 17.2974 2.07192 19.2123 3.79852L19.9658 2.95092C17.9252 1.16153 15.2569 0 12.3373 0C10.6107 0 8.97832 0.408105 7.50286 1.13014C5.27398 2.19749 3.39041 3.98687 2.07192 6.21576C0.784818 8.44464 0 11.1444 0 14.0325C0 17.8625 1.34989 21.3784 3.57877 23.9212C4.67751 25.2084 5.99601 26.2443 7.50286 26.9349C8.97832 27.657 10.6107 28.0651 12.3059 28.0651H12.3373C13.4675 28.0651 14.3779 27.9081 15.0999 27.5942C15.665 27.3744 16.1045 27.0605 16.4812 26.6838C17.0149 26.1187 17.3602 25.4281 17.5485 24.7375C17.7369 24.0154 17.7683 23.2934 17.7683 22.5714C17.7683 21.5354 17.6741 20.5308 17.6741 19.7146C17.6741 19.4321 17.6741 19.181 17.7055 18.9298C17.7369 18.7728 17.7683 18.6159 17.7997 18.4903C17.8625 18.302 17.9252 18.2078 18.0194 18.1136C18.0822 18.0508 18.1764 17.988 18.3647 17.9566C18.4903 17.9252 18.5845 17.9252 18.6787 17.9252C18.867 17.9252 18.9612 17.9566 19.0554 17.988C19.1496 18.0194 19.2123 18.0822 19.2751 18.145C19.4007 18.2706 19.5263 18.4903 19.6204 18.7728C19.7146 18.9612 19.7774 19.2123 19.8716 19.4321C19.9972 19.7774 20.1541 20.1855 20.4053 20.5308C20.5308 20.7192 20.6878 20.8762 20.8762 21.0017C21.0645 21.1273 21.3157 21.2215 21.5668 21.2843C21.7238 21.3157 21.8807 21.3157 22.0377 21.3157C22.2574 21.3157 22.5086 21.2843 22.7283 21.1901C22.9167 21.1273 23.105 21.0017 23.262 20.8762C23.5445 20.625 23.7643 20.3111 23.9526 19.903C24.2038 19.3065 24.3921 18.5531 24.5177 17.5799C24.6119 16.6695 24.6747 15.4766 24.6747 14.0325C24.6747 12.5257 24.4549 11.0502 24.0782 9.70035L22.9795 10.0143Z" fill="black"/>
<path d="M4.01813 10.7673C3.61003 11.1755 3.35889 11.7405 3.35889 12.3684C3.35889 12.9962 3.61003 13.5613 4.01813 13.9694C4.42624 14.3775 4.99131 14.6287 5.61916 14.6287C6.24702 14.6287 6.81209 14.3775 7.22019 13.9694C7.6283 13.5613 7.87944 12.9962 7.87944 12.3684C7.87944 11.7405 7.6283 11.1755 7.22019 10.7673C6.81209 10.3592 6.24702 10.1081 5.61916 10.1081C4.99131 10.0767 4.42624 10.3278 4.01813 10.7673ZM6.7493 12.3684C6.7493 12.6823 6.62373 12.9648 6.40398 13.1846C6.18423 13.4043 5.9017 13.5299 5.58777 13.5299C5.27384 13.5299 4.99131 13.4043 4.77156 13.1846C4.55181 12.9648 4.42624 12.6823 4.42624 12.3684C4.42624 12.0545 4.55181 11.7719 4.77156 11.5522C4.99131 11.3324 5.27384 11.2068 5.58777 11.2068C5.9017 11.2068 6.18423 11.3324 6.40398 11.5522C6.62373 11.7719 6.7493 12.0545 6.7493 12.3684Z" fill="black"/>
<path d="M9.76316 8.88474C10.1713 8.47664 10.4224 7.91157 10.4224 7.28371C10.4224 6.65586 10.1713 6.09079 9.76316 5.68268C9.35505 5.27458 8.78999 5.02344 8.16213 5.02344C7.53428 5.02344 6.96921 5.27458 6.5611 5.68268C6.153 6.09079 5.90186 6.65586 5.90186 7.28371C5.90186 7.91157 6.153 8.47664 6.5611 8.88474C6.96921 9.29285 7.53428 9.54399 8.16213 9.54399C8.78999 9.57538 9.35505 9.32424 9.76316 8.88474ZM7.03199 7.28371C7.03199 6.96979 7.15756 6.68725 7.37731 6.4675C7.59706 6.24775 7.8796 6.12218 8.19352 6.12218C8.50745 6.12218 8.78998 6.24775 9.00973 6.4675C9.22948 6.68725 9.35505 6.96979 9.35505 7.28371C9.35505 7.59764 9.22948 7.88018 9.00973 8.09992C8.78998 8.31967 8.50745 8.44524 8.19352 8.44524C7.8796 8.44524 7.59706 8.31967 7.37731 8.09992C7.15756 7.88018 7.03199 7.59764 7.03199 7.28371Z" fill="black"/>
<path d="M13.4365 7.44047C14.0644 7.44047 14.6295 7.18933 15.0376 6.78123C15.4457 6.37312 15.6968 5.80805 15.6968 5.1802C15.6968 4.55234 15.4457 3.98727 15.0376 3.57917C14.6295 3.17106 14.0644 2.91992 13.4365 2.91992C12.8087 2.91992 12.2436 3.17106 11.8355 3.57917C11.4274 3.98727 11.1763 4.55234 11.1763 5.1802C11.1763 5.80805 11.4274 6.37312 11.8355 6.78123C12.2436 7.18933 12.8087 7.44047 13.4365 7.44047ZM12.6517 4.36399C12.8715 4.14424 13.154 4.01867 13.4679 4.01867C13.7819 4.01867 14.0644 4.14424 14.2841 4.36399C14.5039 4.58374 14.6295 4.86627 14.6295 5.1802C14.6295 5.49412 14.5039 5.77666 14.2841 5.99641C14.0644 6.21616 13.7819 6.34173 13.4679 6.34173C13.154 6.34173 12.8715 6.21616 12.6517 5.99641C12.432 5.77666 12.3064 5.49412 12.3064 5.1802C12.3064 4.86627 12.432 4.58374 12.6517 4.36399Z" fill="black"/>
</svg>
