<svg width="26" height="26" viewBox="0 0 26 26" fill="none" xmlns="http://www.w3.org/2000/svg">
<g clip-path="url(#clip0_2255_2821)">
<path d="M20.3125 10.5625C23.0049 10.5625 25.1875 8.37989 25.1875 5.6875C25.1875 2.99511 23.0049 0.8125 20.3125 0.8125C17.6201 0.8125 15.4375 2.99511 15.4375 5.6875C15.4375 8.37989 17.6201 10.5625 20.3125 10.5625Z" fill="#CB7B3A"/>
<path d="M15.4375 5.6875C15.4375 7.1045 16.0457 8.37647 17.0109 9.26697C17.2928 9.31369 17.5801 9.34375 17.875 9.34375C20.7919 9.34375 23.1562 6.97937 23.1562 4.0625C23.1562 3.03225 22.8564 2.07391 22.3462 1.26141C21.7267 0.975813 21.0393 0.8125 20.3125 0.8125C17.6203 0.8125 15.4375 2.99528 15.4375 5.6875Z" fill="#F69342"/>
<path d="M5.6875 10.5625C8.37989 10.5625 10.5625 8.37989 10.5625 5.6875C10.5625 2.99511 8.37989 0.8125 5.6875 0.8125C2.99511 0.8125 0.8125 2.99511 0.8125 5.6875C0.8125 8.37989 2.99511 10.5625 5.6875 10.5625Z" fill="#A7BBF3"/>
<path d="M0.8125 5.6875C0.8125 7.1045 1.42066 8.37647 2.38591 9.26697C2.66784 9.31369 2.95506 9.34375 3.25 9.34375C6.16687 9.34375 8.53125 6.97937 8.53125 4.0625C8.53125 3.03225 8.23144 2.07391 7.72119 1.26141C7.10166 0.975813 6.41428 0.8125 5.6875 0.8125C2.99528 0.8125 0.8125 2.99528 0.8125 5.6875Z" fill="#B6C9FF"/>
<path d="M20.3125 16.6562C20.7612 16.6562 21.125 16.2925 21.125 15.8438C21.125 15.395 20.7612 15.0312 20.3125 15.0312C19.8638 15.0312 19.5 15.395 19.5 15.8438C19.5 16.2925 19.8638 16.6562 20.3125 16.6562Z" fill="#F69342"/>
<path d="M21.9375 14.2188C22.6106 14.2188 23.1562 13.6731 23.1562 13C23.1562 12.3269 22.6106 11.7812 21.9375 11.7812C21.2644 11.7812 20.7188 12.3269 20.7188 13C20.7188 13.6731 21.2644 14.2188 21.9375 14.2188Z" fill="#F69342"/>
<path d="M5.6875 16.6562C6.13623 16.6562 6.5 16.2925 6.5 15.8438C6.5 15.395 6.13623 15.0312 5.6875 15.0312C5.23877 15.0312 4.875 15.395 4.875 15.8438C4.875 16.2925 5.23877 16.6562 5.6875 16.6562Z" fill="#B6C9FF"/>
<path d="M4.0625 14.2188C4.7356 14.2188 5.28125 13.6731 5.28125 13C5.28125 12.3269 4.7356 11.7812 4.0625 11.7812C3.3894 11.7812 2.84375 12.3269 2.84375 13C2.84375 13.6731 3.3894 14.2188 4.0625 14.2188Z" fill="#B6C9FF"/>
<path d="M19.0938 25.1875V23.5625C19.0938 21.3188 17.275 19.5 15.0312 19.5H10.9688C8.72503 19.5 6.90625 21.3188 6.90625 23.5625V25.1875" fill="#2D7D3A"/>
<path d="M9.34375 24.375C12.7851 24.375 15.6975 22.4778 16.6936 19.8583C16.1858 19.63 15.624 19.5 15.0312 19.5H10.9688C8.72503 19.5 6.90625 21.3188 6.90625 23.5625V24.039C7.67325 24.2539 8.49103 24.375 9.34375 24.375Z" fill="#4DA15B"/>
<path d="M11.375 19.5C11.375 20.3974 12.1026 21.125 13 21.125C13.8974 21.125 14.625 20.3974 14.625 19.5" fill="#DB9B7C"/>
<path d="M10.1562 17.0625H9.34375C8.67059 17.0625 8.125 16.5169 8.125 15.8438C8.125 15.1706 8.67059 14.625 9.34375 14.625H10.1562" fill="#DB9B7C"/>
<path d="M15.8438 14.625H16.6562C17.3294 14.625 17.875 15.1706 17.875 15.8438C17.875 16.5169 17.3294 17.0625 16.6562 17.0625H15.8438" fill="#DB9B7C"/>
<path d="M16.25 12.5938V16.25C16.25 18.0448 14.7948 19.5 13 19.5C11.2052 19.5 9.75 18.0448 9.75 16.25V12.5938" fill="#EFBE9A"/>
<path d="M13.8125 11.7812V12.1875C13.8125 13.5338 12.7213 14.625 11.375 14.625H8.9375V12.5938C8.9375 11.0232 10.2107 9.75 11.7812 9.75H14.2188C15.7893 9.75 17.0625 11.0232 17.0625 12.5938V14.625H15.0312C14.3581 14.625 13.8125 14.0794 13.8125 13.4062V11.7812Z" fill="#976947"/>
<path d="M15.8182 10.2428C15.3623 9.932 14.8119 9.75 14.2188 9.75H11.7812C10.2107 9.75 8.9375 11.0232 8.9375 12.5938V14.625H11.375C12.7213 14.625 13.8125 13.5338 13.8125 12.1875V13.4062C13.8125 13.8275 14.0262 14.1988 14.3512 14.4178C15.2701 13.494 15.8438 12.2005 15.8438 10.7656C15.8438 10.5889 15.8348 10.4146 15.8182 10.2428Z" fill="#C18E59"/>
<path d="M5.28125 5.28125H4.46875C4.46875 4.83316 4.10434 4.46875 3.65625 4.46875C3.20816 4.46875 2.84375 4.83316 2.84375 5.28125H2.03125C2.03125 4.38506 2.76006 3.65625 3.65625 3.65625C4.55244 3.65625 5.28125 4.38506 5.28125 5.28125Z" fill="#8892A0"/>
<path d="M9.34375 5.28125H8.53125C8.53125 4.83316 8.16684 4.46875 7.71875 4.46875C7.27066 4.46875 6.90625 4.83316 6.90625 5.28125H6.09375C6.09375 4.38506 6.82256 3.65625 7.71875 3.65625C8.61494 3.65625 9.34375 4.38506 9.34375 5.28125Z" fill="#8892A0"/>
<path d="M5.6875 8.53125C4.79131 8.53125 4.0625 7.80244 4.0625 6.90625H4.875C4.875 7.35434 5.23941 7.71875 5.6875 7.71875C6.13559 7.71875 6.5 7.35434 6.5 6.90625H7.3125C7.3125 7.80244 6.58369 8.53125 5.6875 8.53125Z" fill="#8892A0"/>
<path d="M18.2812 5.6875C17.3851 5.6875 16.6562 4.95869 16.6562 4.0625H17.4688C17.4688 4.51059 17.8332 4.875 18.2812 4.875C18.7293 4.875 19.0938 4.51059 19.0938 4.0625H19.9062C19.9062 4.95869 19.1774 5.6875 18.2812 5.6875Z" fill="#4D5D7A"/>
<path d="M22.3438 5.6875C21.4476 5.6875 20.7188 4.95869 20.7188 4.0625H21.5312C21.5312 4.51059 21.8957 4.875 22.3438 4.875C22.7918 4.875 23.1562 4.51059 23.1562 4.0625H23.9688C23.9688 4.95869 23.2399 5.6875 22.3438 5.6875Z" fill="#4D5D7A"/>
<path d="M21.9375 8.125H21.125C21.125 7.67691 20.7606 7.3125 20.3125 7.3125C19.8644 7.3125 19.5 7.67691 19.5 8.125H18.6875C18.6875 7.22881 19.4163 6.5 20.3125 6.5C21.2087 6.5 21.9375 7.22881 21.9375 8.125Z" fill="#4D5D7A"/>
</g>
<defs>
<clipPath id="clip0_2255_2821">
<rect width="26" height="26" fill="white"/>
</clipPath>
</defs>
</svg>
