<svg width="247" height="477" viewBox="0 0 247 477" fill="none" xmlns="http://www.w3.org/2000/svg">
<rect y="18.0869" width="207.519" height="460" transform="rotate(-5 0 18.0869)" fill="#F8F8F8"/>
<rect x="151.601" y="4.82324" width="55.3383" height="460" transform="rotate(-5 151.601 4.82324)" fill="#032C9E"/>
<g clip-path="url(#clip0_1615_9855)">
<path d="M18.5314 37.2967L17.313 37.4033L21.3824 83.9174L22.6008 83.8108L18.5314 37.2967Z" fill="#242935"/>
<path d="M20.685 37.1082L19.4666 37.2148L23.536 83.7289L24.7544 83.6223L20.685 37.1082Z" fill="#242935"/>
<path d="M78.0065 32.0936L76.7881 32.2002L80.8575 78.7142L82.0759 78.6077L78.0065 32.0936Z" fill="#242935"/>
<path d="M80.1598 31.9051L78.9414 32.0117L83.0109 78.5258L84.2293 78.4192L80.1598 31.9051Z" fill="#242935"/>
<path d="M137.481 26.8905L136.263 26.9971L140.332 73.5111L141.551 73.4045L137.481 26.8905Z" fill="#242935"/>
<path d="M139.621 26.703L138.403 26.8096L142.473 73.3236L143.691 73.217L139.621 26.703Z" fill="#242935"/>
<path d="M27.9838 36.4701L25.1191 36.7207L29.1886 83.2348L32.0533 82.9841L27.9838 36.4701Z" fill="#242935"/>
<path d="M37.4455 35.642L34.5808 35.8926L38.6503 82.4066L41.5149 82.156L37.4455 35.642Z" fill="#242935"/>
<path d="M44.6243 35.0137L39.6685 35.4473L43.7379 81.9613L48.6937 81.5277L44.6243 35.0137Z" fill="#242935"/>
<path d="M63.6684 33.3477L58.7126 33.7812L62.7821 80.2953L67.7379 79.8617L63.6684 33.3477Z" fill="#242935"/>
<path d="M52.6406 34.3129L49.7759 34.5635L53.8453 81.0775L56.71 80.8269L52.6406 34.3129Z" fill="#242935"/>
<path d="M30.3735 36.2605L28.9417 36.3857L33.0111 82.8998L34.443 82.7745L30.3735 36.2605Z" fill="#242935"/>
<path d="M32.7556 36.0525L31.3237 36.1777L35.3932 82.6918L36.825 82.5665L32.7556 36.0525Z" fill="#242935"/>
<path d="M47.9104 34.7263L46.4785 34.8516L50.548 81.3656L51.9798 81.2403L47.9104 34.7263Z" fill="#242935"/>
<path d="M56.3896 33.9851L54.9578 34.1104L59.0272 80.6244L60.4591 80.4991L56.3896 33.9851Z" fill="#242935"/>
<path d="M67.4394 33.0183L66.0076 33.1436L70.077 79.6576L71.5089 79.5323L67.4394 33.0183Z" fill="#242935"/>
<path d="M71.0329 32.7038L69.6011 32.8291L73.6705 79.3432L75.1024 79.2179L71.0329 32.7038Z" fill="#242935"/>
<path d="M74.6264 32.3894L73.1946 32.5146L77.264 79.0287L78.6959 78.9034L74.6264 32.3894Z" fill="#242935"/>
<path d="M92.6137 30.8158L89.749 31.0664L93.8185 77.5805L96.6831 77.3298L92.6137 30.8158Z" fill="#242935"/>
<path d="M107.284 29.5316L104.419 29.7822L108.489 76.2963L111.353 76.0457L107.284 29.5316Z" fill="#242935"/>
<path d="M87.3293 31.2774L82.3735 31.7109L86.443 78.225L91.3988 77.7914L87.3293 31.2774Z" fill="#242935"/>
<path d="M116.651 28.7123L113.787 28.9629L117.856 75.4769L120.721 75.2263L116.651 28.7123Z" fill="#242935"/>
<path d="M131.268 27.4339L128.403 27.6846L132.473 74.1986L135.337 73.948L131.268 27.4339Z" fill="#242935"/>
<path d="M95.8645 30.531L94.4326 30.6562L98.5021 77.1703L99.9339 77.045L95.8645 30.531Z" fill="#242935"/>
<path d="M99.1216 30.2458L97.6897 30.3711L101.759 76.8851L103.191 76.7599L99.1216 30.2458Z" fill="#242935"/>
<path d="M102.365 29.9626L100.933 30.0879L105.003 76.6019L106.435 76.4767L102.365 29.9626Z" fill="#242935"/>
<path d="M111.221 29.1872L109.789 29.3125L113.859 75.8266L115.291 75.7013L111.221 29.1872Z" fill="#242935"/>
<path d="M120.656 28.362L119.224 28.4873L123.294 75.0014L124.725 74.8761L120.656 28.362Z" fill="#242935"/>
<path d="M123.482 28.115L122.051 28.2402L126.12 74.7543L127.552 74.629L123.482 28.115Z" fill="#242935"/>
<path d="M126.309 27.8679L124.877 27.9932L128.946 74.5072L130.378 74.3819L126.309 27.8679Z" fill="#242935"/>
<path d="M134.317 27.1667L132.885 27.292L136.954 73.806L138.386 73.6808L134.317 27.1667Z" fill="#242935"/>
<path d="M24.1689 36.8034L22.7371 36.9287L26.8065 83.4428L28.2384 83.3175L24.1689 36.8034Z" fill="#242935"/>
</g>
<path d="M196.948 152.893L197.315 157.092L196.952 157.124L196.84 155.845L189.491 156.488L189.525 156.878C189.541 157.058 189.578 157.217 189.635 157.357C189.82 157.82 190.272 158.128 190.991 158.283L192.139 158.535L192.174 158.939L189.355 159.117L188.755 152.253L191.563 151.953L191.597 152.344L190.511 152.791C190.397 152.837 190.288 152.888 190.185 152.942C189.545 153.278 189.254 153.774 189.311 154.429L189.347 154.833L196.695 154.19L196.615 153.274C196.619 153.111 196.73 152.984 196.948 152.893ZM196.436 147.038L196.769 150.847L196.405 150.879L196.311 149.802L188.963 150.445L189.057 151.522L188.693 151.553L188.314 147.22C188.252 146.511 188.366 145.895 188.654 145.373C189.006 144.745 189.519 144.402 190.192 144.343C190.416 144.323 190.644 144.34 190.874 144.392C191.623 144.579 192.159 145.12 192.481 146.014L195.782 143.596L195.757 143.314C195.752 143.26 195.752 143.206 195.756 143.151C195.773 143.032 195.88 142.964 196.078 142.947L196.289 145.206L192.767 147.576L192.842 148.437L196.166 148.147L196.072 147.07L196.436 147.038ZM188.737 147.861L188.818 148.789L192.438 148.473L192.35 147.463C192.322 147.149 192.213 146.879 192.021 146.651C191.649 146.223 191.104 146.04 190.386 146.103C190.108 146.127 189.852 146.195 189.618 146.305C188.967 146.616 188.673 147.134 188.737 147.861ZM195.329 134.387L195.624 137.765L195.261 137.797L195.18 136.868L192.684 138.103L192.922 140.822L195.592 141.579L195.529 140.865C195.525 140.811 195.525 140.762 195.53 140.716C195.546 140.588 195.657 140.515 195.863 140.497L196.078 142.947L195.714 142.978L195.639 142.117L187.668 139.831L187.595 138.996L195.031 135.172L194.995 134.755C194.989 134.692 194.989 134.642 194.995 134.606C195.011 134.478 195.122 134.405 195.329 134.387ZM192.294 138.3L189.251 139.787L192.505 140.709L192.294 138.3ZM195.007 129.939L195.029 130.182C195.046 130.379 195.023 130.53 194.96 130.635C194.881 130.769 194.577 130.967 194.049 131.23L187.563 134.442L187.626 135.169L187.263 135.201L186.961 131.755L187.325 131.724L187.418 132.787L193.123 129.941L187.029 128.345L187.123 129.422L186.76 129.454L186.561 127.179L186.924 127.148L186.983 127.82L195.007 129.939ZM188.481 119.986L188.512 120.336L187.7 120.665C187.612 120.7 187.53 120.739 187.452 120.781C186.76 121.131 186.444 121.652 186.504 122.343L186.655 124.065L190.006 123.772L189.774 121.121L190.178 121.085L190.41 123.737L194.003 123.423L193.853 121.7C193.837 121.52 193.8 121.356 193.742 121.208C193.557 120.754 193.105 120.441 192.385 120.269L191.527 120.072L191.496 119.722L194.031 119.555L194.606 126.123L194.242 126.155L194.148 125.078L186.8 125.721L186.894 126.798L186.53 126.829L185.956 120.261L188.481 119.986ZM193.382 112.139L193.94 118.519L193.577 118.55L193.483 117.474L186.134 118.117L186.228 119.193L185.865 119.225L185.526 115.349L185.889 115.317L185.989 116.461L193.338 115.818L193.204 114.284C193.182 114.033 193.118 113.817 193.011 113.636C192.81 113.292 192.386 113.053 191.742 112.92L190.555 112.685L190.524 112.335L193.382 112.139ZM185.076 106.017L185.163 107.013L188.918 106.684L188.84 105.796C188.835 105.742 188.831 105.688 188.826 105.635C188.67 104.681 187.996 104.256 186.802 104.361C186.677 104.372 186.556 104.387 186.44 104.406C185.454 104.601 184.999 105.138 185.076 106.017ZM192.757 104.992L193.114 109.07L192.75 109.102L192.656 108.025L185.308 108.668L185.402 109.745L185.038 109.777L184.659 105.443C184.607 104.842 184.665 104.322 184.835 103.882C185.137 103.096 185.714 102.666 186.566 102.591C186.934 102.559 187.277 102.601 187.594 102.718C188.547 103.069 189.09 104.002 189.223 105.519L189.322 106.649L192.511 106.37L192.425 105.388C192.427 105.198 192.537 105.066 192.757 104.992ZM191.734 93.2965L192.029 96.6747L191.666 96.7065L191.585 95.7779L189.089 97.0134L189.327 99.7321L191.997 100.488L191.934 99.7752C191.93 99.7213 191.93 99.6716 191.935 99.6259C191.951 99.498 192.062 99.425 192.268 99.4069L192.483 101.856L192.119 101.888L192.044 101.027L184.073 98.7406L184 97.9061L191.436 94.082L191.4 93.6648C191.394 93.602 191.395 93.5523 191.4 93.5156C191.416 93.3876 191.527 93.3146 191.734 93.2965ZM188.699 97.2102L185.656 98.697L188.91 99.6193L188.699 97.2102ZM188.93 86.666C189.513 86.615 190.024 86.7782 190.464 87.1556C191.09 87.6975 191.452 88.5203 191.548 89.6239C191.631 90.5661 191.474 91.4071 191.077 92.147C191.248 92.1321 191.374 92.1301 191.456 92.1409C191.595 92.174 191.674 92.3027 191.694 92.527L188.867 92.7743L188.825 92.2898C189.172 92.2323 189.49 92.1457 189.779 92.03C190.799 91.5972 191.262 90.847 191.168 89.7792C191.143 89.4921 191.071 89.2362 190.952 89.0116C190.668 88.4487 190.212 88.1948 189.583 88.2498C189.377 88.2678 189.184 88.3344 189.004 88.4496C188.644 88.671 188.305 89.1934 187.989 90.0167C187.641 90.906 187.438 91.4211 187.378 91.562C186.94 92.4502 186.345 92.9272 185.591 92.9932C185.088 93.0371 184.637 92.8957 184.238 92.569C183.634 92.0704 183.286 91.3006 183.195 90.2598C183.124 89.4433 183.232 88.6653 183.52 87.9258C183.439 87.9329 183.367 87.9347 183.304 87.9312C183.13 87.9103 183.032 87.7741 183.01 87.5229L185.419 87.3121L185.462 87.7967C184.968 87.8398 184.553 88.0027 184.216 88.2854C183.72 88.7085 183.504 89.288 183.568 90.0238C183.588 90.257 183.648 90.4733 183.747 90.6726C183.99 91.1758 184.38 91.4038 184.919 91.3567C185.125 91.3387 185.323 91.2716 185.511 91.1557C185.863 90.9351 186.198 90.4221 186.516 89.6167C186.855 88.7371 187.055 88.2314 187.116 88.0995C187.562 87.2106 188.167 86.7327 188.93 86.666ZM188.281 79.2501C188.864 79.1991 189.375 79.3623 189.815 79.7397C190.441 80.2817 190.803 81.1045 190.899 82.2081C190.982 83.1502 190.825 83.9912 190.428 84.7311C190.599 84.7162 190.725 84.7142 190.808 84.7251C190.946 84.7582 191.025 84.8869 191.045 85.1112L188.218 85.3584L188.176 84.8739C188.524 84.8164 188.842 84.7298 189.13 84.6142C190.15 84.1814 190.613 83.4311 190.52 82.3634C190.494 82.0762 190.422 81.8203 190.303 81.5957C190.019 81.0329 189.563 80.779 188.935 80.8339C188.728 80.852 188.535 80.9186 188.355 81.0338C187.995 81.2552 187.656 81.7775 187.34 82.6009C186.993 83.4902 186.789 84.0053 186.729 84.1461C186.291 85.0343 185.696 85.5113 184.942 85.5773C184.44 85.6212 183.989 85.4799 183.589 85.1531C182.985 84.6545 182.638 83.8847 182.547 82.8439C182.475 82.0274 182.583 81.2494 182.871 80.51C182.79 80.517 182.718 80.5188 182.655 80.5154C182.481 80.4944 182.383 80.3583 182.361 80.1071L184.77 79.8963L184.813 80.3808C184.319 80.424 183.904 80.5869 183.567 80.8695C183.071 81.2927 182.855 81.8721 182.919 82.6079C182.94 82.8412 182.999 83.0575 183.098 83.2568C183.341 83.7599 183.732 83.9879 184.27 83.9408C184.476 83.9228 184.674 83.8558 184.863 83.7398C185.214 83.5192 185.549 83.0062 185.867 82.2008C186.206 81.3213 186.406 80.8155 186.467 80.6836C186.913 79.7947 187.518 79.3168 188.281 79.2501Z" fill="white"/>
<path d="M123.986 386.529L125.226 400.702L124 400.809L123.622 396.494L98.8207 398.663L98.9359 399.981C98.9889 400.586 99.1123 401.125 99.3061 401.596C99.931 403.159 101.456 404.2 103.882 404.72L107.755 405.571L107.875 406.934L98.3612 407.538L96.3344 384.371L105.812 383.359L105.927 384.676L102.261 386.187C101.877 386.343 101.511 386.512 101.161 386.695C99.0019 387.83 98.0192 389.503 98.2126 391.714L98.3319 393.076L123.133 390.906L122.863 387.818C122.876 387.267 123.25 386.838 123.986 386.529ZM122.257 366.77L123.382 379.625L122.156 379.732L121.838 376.098L97.0363 378.268L97.3542 381.902L96.1278 382.009L94.8481 367.383C94.6388 364.99 95.0216 362.913 95.9963 361.149C97.1842 359.031 98.9137 357.873 101.185 357.674C101.942 357.608 102.71 357.663 103.488 357.839C106.015 358.472 107.822 360.297 108.91 363.315L120.051 355.154L119.968 354.2C119.952 354.018 119.951 353.835 119.965 353.651C120.022 353.249 120.383 353.019 121.049 352.961L121.762 360.588L109.875 368.586L110.129 371.493L121.349 370.511L121.031 366.877L122.257 366.77ZM96.2733 369.547L96.5475 372.681L108.767 371.612L108.468 368.205C108.376 367.145 108.006 366.232 107.359 365.464C106.103 364.018 104.264 363.401 101.842 363.613C100.903 363.695 100.038 363.923 99.2469 364.297C97.0499 365.344 96.0587 367.094 96.2733 369.547ZM118.522 324.071L119.519 335.473L118.293 335.58L118.019 332.446L109.595 336.616L110.398 345.791L119.41 348.344L119.199 345.937C119.183 345.755 119.184 345.587 119.201 345.433C119.254 345.001 119.63 344.755 120.326 344.694L121.049 352.961L119.823 353.068L119.569 350.161L92.6664 342.445L92.42 339.629L117.518 326.722L117.395 325.314C117.376 325.102 117.377 324.934 117.396 324.811C117.45 324.379 117.825 324.132 118.522 324.071ZM108.28 337.28L98.0088 342.298L108.992 345.411L108.28 337.28ZM117.438 309.062L117.509 309.879C117.567 310.546 117.49 311.056 117.277 311.41C117.011 311.861 115.986 312.53 114.203 313.418L92.3111 324.259L92.5257 326.712L91.2993 326.819L90.2819 315.191L91.5084 315.083L91.8223 318.672L111.076 309.069L90.5109 303.682L90.8288 307.316L89.6024 307.423L88.9307 299.747L90.1572 299.639L90.3559 301.911L117.438 309.062ZM95.4119 275.47L95.5152 276.651L92.7744 277.76C92.4795 277.878 92.2011 278.009 91.9392 278.154C89.6014 279.335 88.5344 281.091 88.7384 283.423L89.2471 289.237L100.558 288.248L99.7748 279.299L101.137 279.18L101.92 288.129L114.049 287.067L113.54 281.253C113.487 280.648 113.362 280.094 113.166 279.592C112.543 278.06 111.017 277.004 108.586 276.423L105.69 275.761L105.587 274.58L114.142 274.014L116.082 296.181L114.855 296.288L114.537 292.655L89.7359 294.824L90.0539 298.458L88.8274 298.566L86.8881 276.399L95.4119 275.47ZM111.953 248.986L113.836 270.517L112.61 270.624L112.292 266.99L87.4906 269.16L87.8085 272.794L86.5821 272.901L85.4375 259.819L86.664 259.712L87.0018 263.573L111.803 261.403L111.35 256.225C111.276 255.377 111.06 254.648 110.701 254.039C110.02 252.878 108.591 252.072 106.416 251.621L102.41 250.828L102.307 249.647L111.953 248.986ZM83.9179 228.324L84.212 231.685L96.8852 230.576L96.6229 227.578C96.607 227.397 96.5912 227.215 96.5753 227.033C96.0495 223.814 93.7728 222.381 89.7453 222.733C89.3213 222.77 88.9138 222.821 88.5228 222.886C85.1932 223.544 83.6583 225.356 83.9179 228.324ZM109.842 224.866L111.047 238.629L109.82 238.736L109.502 235.103L84.7008 237.272L85.0187 240.906L83.7923 241.014L82.5126 226.387C82.3351 224.358 82.5323 222.602 83.1043 221.117C84.1234 218.465 86.0713 217.013 88.9481 216.761C90.1897 216.653 91.3465 216.796 92.4185 217.19C95.6345 218.373 97.4664 221.524 97.9141 226.642L98.248 230.457L109.013 229.515L108.723 226.199C108.728 225.558 109.101 225.114 109.842 224.866ZM106.389 185.392L107.386 196.794L106.16 196.901L105.886 193.767L97.4625 197.937L98.2652 207.112L107.277 209.665L107.066 207.258C107.05 207.076 107.051 206.908 107.068 206.754C107.122 206.322 107.497 206.076 108.193 206.015L108.916 214.282L107.69 214.389L107.436 211.482L80.5335 203.766L80.2871 200.95L105.385 188.043L105.262 186.635C105.243 186.423 105.244 186.255 105.264 186.132C105.317 185.7 105.692 185.453 106.389 185.392ZM96.1475 198.601L85.8759 203.619L96.8588 206.732L96.1475 198.601ZM96.9246 163.014C98.893 162.842 100.619 163.393 102.104 164.667C104.217 166.496 105.436 169.273 105.762 172.997C106.04 176.177 105.511 179.015 104.173 181.513C104.748 181.462 105.175 181.455 105.453 181.492C105.92 181.604 106.187 182.038 106.253 182.795L96.7143 183.63L96.5712 181.995C97.7443 181.8 98.8172 181.508 99.7901 181.118C103.232 179.657 104.796 177.125 104.481 173.521C104.396 172.552 104.153 171.689 103.751 170.931C102.791 169.031 101.251 168.174 99.1316 168.359C98.4351 168.42 97.7834 168.645 97.1766 169.034C95.9604 169.781 94.8178 171.544 93.7488 174.323C92.5772 177.324 91.8901 179.063 91.6876 179.538C90.2106 182.536 88.2001 184.146 85.6564 184.368C83.9606 184.517 82.4389 184.04 81.0913 182.937C79.0522 181.254 77.879 178.656 77.5716 175.143C77.3305 172.388 77.6959 169.762 78.6676 167.266C78.395 167.29 78.1515 167.296 77.9368 167.284C77.3509 167.214 77.0208 166.754 76.9466 165.906L85.0775 165.195L85.2205 166.83C83.555 166.976 82.1537 167.526 81.0165 168.48C79.3411 169.908 78.6121 171.863 78.8293 174.347C78.8982 175.134 79.0994 175.864 79.4329 176.537C80.2527 178.235 81.5712 179.004 83.3881 178.845C84.0846 178.784 84.7514 178.558 85.3885 178.167C86.5744 177.422 87.7046 175.691 88.7789 172.973C89.9228 170.004 90.5974 168.297 90.8026 167.852C92.3099 164.852 94.3506 163.239 96.9246 163.014ZM94.7349 137.986C96.7033 137.813 98.4297 138.364 99.9143 139.638C102.027 141.467 103.247 144.244 103.573 147.969C103.851 151.148 103.321 153.987 101.983 156.484C102.559 156.434 102.985 156.427 103.263 156.464C103.73 156.575 103.997 157.01 104.064 157.767L94.5246 158.601L94.3815 156.966C95.5546 156.772 96.6275 156.48 97.6004 156.089C101.043 154.629 102.606 152.096 102.291 148.493C102.206 147.524 101.963 146.66 101.561 145.902C100.601 144.002 99.0616 143.145 96.9419 143.331C96.2454 143.392 95.5937 143.617 94.9869 144.005C93.7707 144.753 92.6281 146.516 91.5591 149.294C90.3875 152.296 89.7004 154.034 89.4979 154.51C88.0208 157.507 86.0104 159.117 83.4667 159.34C81.7709 159.488 80.2492 159.011 78.9016 157.908C76.8625 156.225 75.6893 153.627 75.3819 150.115C75.1408 147.359 75.5061 144.733 76.4779 142.238C76.2053 142.262 75.9617 142.268 75.7471 142.256C75.1611 142.185 74.8311 141.726 74.7569 140.878L82.8878 140.166L83.0308 141.802C81.3653 141.947 79.964 142.497 78.8268 143.451C77.1514 144.879 76.4224 146.835 76.6396 149.318C76.7085 150.105 76.9097 150.835 77.2432 151.508C78.063 153.206 79.3815 153.976 81.1984 153.817C81.8949 153.756 82.5617 153.53 83.1988 153.138C84.3847 152.394 85.5148 150.662 86.5891 147.944C87.7331 144.976 88.4077 143.269 88.6128 142.824C90.1202 139.824 92.1609 138.211 94.7349 137.986Z" fill="#EDEDED"/>
<path d="M176.201 54.7493L173.965 53.2461L174.216 35.6067L167.614 30.466C166.254 29.4514 164.92 26.8583 166.203 25.0576C167.754 23.4805 170.539 24.3437 171.774 25.5073L177.983 31.1166L195.311 27.8065L197.18 29.7472L183.337 36.0305L189.131 41.173L194.949 40.6595L196.657 42.1469L189.695 44.7693L188.321 52.081L186.56 50.6573L186.055 44.8383L179.985 40.026L176.201 54.7493Z" fill="white"/>
<defs>
<clipPath id="clip0_1615_9855">
<rect width="122.782" height="46.6917" fill="white" transform="translate(17.3132 37.4033) rotate(-5)"/>
</clipPath>
</defs>
</svg>
