<svg width="28" height="31" viewBox="0 0 28 31" fill="none" xmlns="http://www.w3.org/2000/svg">
<path d="M20.5937 21.3555C20.0695 21.3555 19.6445 21.7805 19.6445 22.3046V29.4233C19.6445 29.9474 20.0695 30.3724 20.5937 30.3724C21.1179 30.3724 21.5428 29.9474 21.5428 29.4233V22.3046C21.5428 21.7805 21.1179 21.3555 20.5937 21.3555Z" fill="black"/>
<path d="M7.40618 21.3555C6.88201 21.3555 6.45703 21.7805 6.45703 22.3046V29.4233C6.45703 29.9474 6.88201 30.3724 7.40618 30.3724C7.93035 30.3724 8.35534 29.9474 8.35534 29.4233V22.3046C8.35534 21.7805 7.93035 21.3555 7.40618 21.3555Z" fill="black"/>
<path d="M11.8017 21.3555C11.2775 21.3555 10.8525 21.7805 10.8525 22.3046V29.4233C10.8525 29.9474 11.2775 30.3724 11.8017 30.3724C12.3259 30.3724 12.7508 29.9474 12.7508 29.4233V22.3046C12.7508 21.7805 12.3259 21.3555 11.8017 21.3555Z" fill="black"/>
<path d="M16.1982 21.3555C15.674 21.3555 15.249 21.7805 15.249 22.3046V29.4233C15.249 29.9474 15.674 30.3724 16.1982 30.3724C16.7223 30.3724 17.1473 29.9474 17.1473 29.4233V22.3046C17.1473 21.7805 16.7223 21.3555 16.1982 21.3555Z" fill="black"/>
<path d="M0.949153 1.89831H27.0508C27.575 1.89831 28 1.47332 28 0.949153C28 0.424983 27.575 0 27.0508 0H0.949153C0.424983 0 0 0.424983 0 0.949153C0 1.47332 0.424983 1.89831 0.949153 1.89831Z" fill="black"/>
<path d="M22.942 4.69824H5.05803C3.71309 4.69824 2.44692 5.2058 1.49325 6.12719C0.530102 7.05736 0 8.29672 0 9.61628C0 10.9358 0.530102 12.1752 1.49325 13.1051C2.44715 14.027 3.71309 14.5343 5.05803 14.5343C6.40251 14.5343 7.66868 14.0267 8.62281 13.1054C9.58549 12.1754 10.1156 10.9361 10.1156 9.61628C10.1156 8.50648 9.73665 7.45624 9.04519 6.59631H18.9546C18.2626 7.45624 17.8837 8.50648 17.8837 9.61628C17.8837 10.9361 18.4138 12.1752 19.377 13.1051C20.3308 14.027 21.5968 14.5343 22.9417 14.5343C24.2867 14.5343 25.5528 14.0267 26.5065 13.1054C27.4697 12.1752 27.9998 10.9358 27.9998 9.61628C27.9998 8.29672 27.4697 7.05736 26.5065 6.12743C25.5531 5.20556 24.2869 4.69824 22.942 4.69824ZM7.30397 7.49255C7.89292 8.06133 8.21753 8.81567 8.21753 9.61628C8.21753 10.4169 7.89315 11.1712 7.30397 11.74C6.70576 12.318 5.908 12.636 5.05803 12.636C4.20759 12.636 3.41007 12.3178 2.8121 11.74C2.22268 11.1707 1.89831 10.4164 1.89831 9.61628C1.89831 8.81614 2.22268 8.0618 2.81234 7.49231C3.41031 6.91451 4.20783 6.59655 5.05827 6.59655C5.908 6.59655 6.70576 6.91475 7.30397 7.49255ZM25.1877 11.7402C24.5897 12.318 23.7922 12.636 22.9417 12.636C22.0913 12.636 21.2938 12.3178 20.6958 11.74C20.1064 11.1707 19.7818 10.4164 19.7818 9.61628C19.7818 8.81614 20.1061 8.0618 20.6958 7.49231C21.2938 6.91451 22.0913 6.59655 22.9417 6.59655C23.7922 6.59655 24.5897 6.91475 25.1877 7.49255C25.7771 8.0618 26.1017 8.81614 26.1017 9.61628C26.1017 10.4164 25.7773 11.1708 25.1877 11.7402Z" fill="black"/>
<path d="M20.1419 17.7522C20.2338 17.3123 20.0038 16.8679 19.5919 16.6887C18.7142 16.3064 17.892 15.7576 17.214 15.101C15.9633 13.8937 15.1776 12.3663 14.9418 10.6837C14.8765 10.2153 14.476 9.86669 14.0028 9.86621C14.0028 9.86621 14.0023 9.86621 14.0019 9.86621C13.5296 9.86621 13.1286 10.2136 13.062 10.6815C12.8218 12.3672 12.0345 13.8956 10.7835 15.1027C10.094 15.7707 9.29548 16.3041 8.40873 16.6885C7.99633 16.8674 7.76592 17.3116 7.85728 17.752C7.94863 18.1924 8.33636 18.508 8.78626 18.508H19.2125C19.6621 18.508 20.0501 18.1927 20.1419 17.7522ZM11.9522 16.6097C12.0032 16.5627 12.0532 16.5153 12.1028 16.4669C12.8773 15.7199 13.5173 14.8507 13.9997 13.906C14.4807 14.85 15.1204 15.7187 15.8942 16.4654C15.9443 16.5138 15.9953 16.562 16.0463 16.6095L11.9522 16.6097Z" fill="black"/>
</svg>
