<svg width="28" height="28" viewBox="0 0 28 28" fill="none" xmlns="http://www.w3.org/2000/svg">
<path d="M27.8138 12.0296L22.536 6.13059C22.2593 5.82073 21.7245 5.82073 21.4477 6.13059L19.278 8.55542L11.83 0.232089C11.5527 -0.0772819 11.0184 -0.0775254 10.7417 0.232333L0.186058 12.0291C-0.00599076 12.2435 -0.0539419 12.5512 0.063624 12.8141C0.180947 13.077 0.442123 13.2461 0.730075 13.2461L5.98598 13.2464V13.6748C5.98598 14.0781 6.31288 14.405 6.7162 14.405H9.56894V19.9243H10.7176C8.43661 19.9861 5.96797 19.9576 3.81576 19.9323C2.53665 19.9172 1.32861 19.9033 0.175105 19.9033V21.3638C1.3201 21.3638 2.52399 21.3779 3.79872 21.3925C11.9052 21.4879 17.3463 21.4227 19.0541 19.7346C19.4262 19.3666 19.6231 18.9153 19.6231 18.4295C19.6231 17.4444 18.7174 17.0384 17.9901 16.712C17.1477 16.3342 16.7361 16.0977 16.7098 15.6206C17.035 15.1328 19.0375 14.5194 21.769 14.0002C21.3392 14.415 21.0673 14.8884 21.0673 15.4232C21.0673 16.5205 22.2444 16.7597 23.3831 16.9912C25.1212 17.3446 26.2601 17.6732 26.2601 18.9699C26.2601 20.0567 25.8247 21.0038 24.928 21.8654C19.5355 27.0486 0.676281 26.3619 0.485936 26.3539L0.428006 27.8134C0.595714 27.8199 1.55912 27.8555 3.03125 27.8555C8.57413 27.8555 21.3253 27.3528 25.9396 22.9187C27.1213 21.7832 27.7203 20.4546 27.7203 18.9699C27.7203 16.3829 25.1874 15.8679 23.6737 15.56C23.3176 15.4877 22.8108 15.3845 22.564 15.2835C22.8578 14.6837 24.8934 13.7522 27.0661 13.2464H27.27C27.5578 13.2464 27.8192 13.0772 27.9365 12.8143C28.0538 12.5514 28.0061 12.244 27.8138 12.0296ZM7.44643 12.9443V11.3609H13.4941L14.1022 12.153L13.4944 12.9443H7.44643ZM15.2476 15.5707C15.2476 17.083 16.5384 17.6615 17.3923 18.0444C17.6428 18.1569 18.0537 18.3411 18.1615 18.4589C18.1559 18.5198 18.1291 18.595 18.0269 18.696C17.2093 19.5046 14.3458 19.8116 11.0294 19.915V14.4047H13.8541C14.0812 14.4047 14.2949 14.2991 14.4332 14.1192L15.1035 13.2464H18.5273C15.7087 14.0452 15.2476 14.8297 15.2476 15.5707ZM15.6517 11.7859C15.6364 11.7596 15.6208 11.7331 15.6018 11.7085L14.4332 10.1863C14.2949 10.0064 14.0812 9.90073 13.8541 9.90073H11.0291V9.09578H9.5687V9.90073H6.71596C6.31263 9.90073 5.98574 10.2276 5.98574 10.631V11.7859L2.36334 11.7857L11.2859 1.81424L18.7342 10.1376C19.0115 10.4469 19.5457 10.4472 19.8225 10.1373L21.9922 7.7125L25.6368 11.7859H15.6517Z" fill="black"/>
</svg>
