<svg width="16" height="16" viewBox="0 0 16 16" fill="none" xmlns="http://www.w3.org/2000/svg">
<path d="M6.87187 4.36917C6.47521 4.19146 6.04787 4 5.33333 4C2.66667 4 2.00002 6.6668 2 9.33333C1.99998 11.9999 4 15.3333 5.33333 15.3333C6.11438 15.3333 6.66667 15.1046 7.1242 14.9151C7.44773 14.7811 7.72387 14.6667 8 14.6667C8.27613 14.6667 8.55227 14.7811 8.8758 14.9151C9.33333 15.1046 9.8856 15.3333 10.6667 15.3333C11.6185 15.3333 12.9101 13.6347 13.5713 11.6925C13.6378 11.4969 13.502 11.2951 13.3025 11.2412C12.1681 10.9346 11.3333 9.89813 11.3333 8.66667C11.3333 7.50467 12.0766 6.5162 13.1137 6.15085C13.3106 6.08145 13.4321 5.86579 13.3393 5.67871C12.84 4.67203 12.0053 4 10.6667 4C9.95213 4 9.5248 4.19146 9.12813 4.36917C8.7846 4.52307 8.46413 4.66667 8 4.66667C7.53587 4.66667 7.2154 4.52307 6.87187 4.36917Z" fill="#FCFCFD"/>
<path d="M8 3.16699C8 1.78628 9.11927 0.666992 10.5 0.666992C10.5921 0.666992 10.6667 0.741612 10.6667 0.833659C10.6667 2.21437 9.5474 3.33366 8.16667 3.33366C8.0746 3.33366 8 3.25904 8 3.16699Z" fill="#FCFCFD"/>
</svg>
