<svg width="322" height="445" viewBox="0 0 322 445" fill="none" xmlns="http://www.w3.org/2000/svg">
<path d="M149.787 432.516C123.67 427.476 102.826 421.204 103.231 418.508C103.636 415.811 125.137 417.711 151.254 422.751C177.371 427.791 198.214 434.063 197.809 436.759C197.404 439.456 175.904 437.556 149.787 432.516Z" fill="#DD2C2C"/>
<path d="M102.849 279.037C102.717 277.742 102.685 276.438 102.753 275.138C106.028 262.407 133.555 232.374 149.458 214.876C154.479 210.096 161.236 207.594 168.147 207.957L172.484 208.184C185.877 208.886 196.378 219.976 196.387 233.427L196.52 423.606L196.485 423.59L186.211 439.874C184.232 443.012 182.872 446.5 182.207 450.15L147.127 642.681L40.058 637.069L124.415 412.743C125.607 409.572 126.336 406.236 126.378 402.849C126.903 360.716 107.139 321.16 102.849 279.037Z" fill="#F39E7C"/>
<path d="M34.7296 616.409L132.479 632.774L197.791 632.774C197.69 579.51 197.775 441.798 197.791 436.76C196.227 437.482 192.693 437.679 187.857 437.478C176.886 437.017 159.239 434.454 142.838 431.115C142.717 431.087 142.594 431.065 142.47 431.039C133.61 429.226 125.125 427.189 118.285 425.133C118.189 425.109 118.09 425.08 117.996 425.049C116.804 424.688 115.663 424.328 114.581 423.969C108.822 422.07 104.701 420.195 103.216 418.502C103.218 418.506 103.212 418.514 103.21 418.521C103.008 419.368 41.3637 588.549 34.7296 616.409Z" fill="#FF4945"/>
<path d="M98.5413 486.583L98.9253 487.574C100.16 483.889 101.221 480.156 102.216 476.404C103.418 471.926 104.484 467.402 105.464 462.859C106.437 458.308 107.334 453.739 108.074 449.128C108.832 444.519 109.488 439.882 109.825 435.177C108.399 439.61 107.182 444.085 106.04 448.579C104.886 453.075 103.837 457.595 102.855 462.135C101.879 466.677 100.969 471.237 100.178 475.832C99.5575 479.392 98.9838 482.966 98.5413 486.583Z" fill="#DD2C2C"/>
<path d="M130.056 438.815C129.931 443.535 129.48 448.204 128.932 452.849C128.399 457.497 127.708 462.114 126.941 466.712C126.165 471.31 125.301 475.884 124.3 480.432C123.312 484.98 122.229 489.507 120.87 493.97C121.132 489.26 121.64 484.609 122.242 479.974C122.825 475.337 123.53 470.734 124.303 466.138C125.083 461.549 125.926 456.97 126.88 452.418C127.818 447.859 128.834 443.324 130.06 438.813L130.056 438.815Z" fill="#DD2C2C"/>
<path d="M150.268 442.461C150.298 447.181 150.009 451.868 149.611 456.532C149.233 461.201 148.698 465.844 148.084 470.47C147.46 475.095 146.752 479.706 145.903 484.293C145.069 488.883 144.135 493.451 142.928 497.967C143.031 493.248 143.387 488.579 143.83 483.925C144.258 479.267 144.811 474.635 145.427 470.014C146.052 465.392 146.743 460.786 147.544 456.191C148.325 451.596 149.193 447.021 150.268 442.461Z" fill="#DD2C2C"/>
<path d="M223.631 230.748L186.24 198.456C182.916 195.585 177.77 198.089 177.978 202.476L181.955 286.487C182.104 289.625 185.074 291.85 188.127 291.11L210.114 285.783C211.927 285.343 213.345 283.931 213.791 282.119L225.217 235.728C225.667 233.902 225.054 231.978 223.631 230.748Z" fill="#EE875D"/>
<path d="M230.293 248.849L192.902 216.556C189.578 213.685 184.432 216.189 184.64 220.577L188.617 304.588C188.766 307.725 191.736 309.951 194.789 309.211L216.776 303.883C218.589 303.444 220.007 302.031 220.453 300.22L231.879 253.829C232.329 252.003 231.716 250.078 230.293 248.849Z" fill="#EE875D"/>
<path d="M236.817 269.479L199.426 237.186C196.102 234.315 190.956 236.819 191.164 241.207L195.141 325.218C195.29 328.355 198.26 330.58 201.313 329.841L223.3 324.513C225.113 324.074 226.531 322.661 226.977 320.85L238.403 274.459C238.853 272.632 238.24 270.708 236.817 269.479Z" fill="#EE875D"/>
<path d="M240.949 287.448L203.559 255.155C200.234 252.284 195.089 254.788 195.296 259.176L199.274 343.187C199.422 346.324 202.393 348.549 205.446 347.809L227.432 342.482C229.246 342.042 230.664 340.63 231.11 338.818L242.536 292.428C242.986 290.601 242.373 288.677 240.949 287.448Z" fill="#EE875D"/>
<path d="M69.8138 78.5333C68.0157 73.3114 70.7913 67.6205 76.0133 65.8224L212.472 18.836C222.916 15.2399 234.297 20.7911 237.894 31.235L303.262 221.078C306.858 231.521 301.307 242.903 290.863 246.499L154.404 293.486C149.182 295.284 143.491 292.508 141.693 287.286L69.8138 78.5333Z" fill="#0E4577"/>
<path d="M176.545 119.075C157.201 125.406 146.638 146.35 152.99 165.76C159.343 185.171 180.25 195.816 199.589 189.487C218.928 183.157 229.496 162.212 223.143 142.801C216.79 123.39 195.884 112.746 176.545 119.075ZM219.319 142.268L205.529 146.781C203.549 141.275 200.869 136.263 197.652 132.059C200.132 129.922 202.306 127.506 204.13 124.848C210.885 128.563 216.37 134.59 219.319 142.268ZM179.554 122.824C180.871 123.152 182.225 123.637 183.613 124.316C186.904 125.938 190.013 128.428 192.819 131.539C190.133 133.454 187.153 135.04 183.946 136.242L179.554 122.824ZM185.095 121.265C184.788 121.116 184.482 120.997 184.176 120.861C190.024 120.188 195.819 121.12 201.054 123.342C199.462 125.581 197.591 127.635 195.473 129.461C192.33 125.943 188.827 123.105 185.099 121.264L185.095 121.265ZM173.935 127.483C174.649 126.121 175.475 124.963 176.35 123.913L180.729 137.294C177.403 138.231 174.033 138.718 170.705 138.75C171.149 134.58 172.207 130.735 173.935 127.483ZM167.337 138.634C164.582 138.407 161.891 137.86 159.312 137.003C162.218 132.121 166.329 127.947 171.439 125.034C171.275 125.32 171.102 125.591 170.943 125.893C168.987 129.576 167.812 133.932 167.337 138.634ZM181.786 140.523L185.933 153.194L172.645 157.543C171.1 152.293 170.352 147.045 170.463 142.153C174.224 142.141 178.033 141.595 181.783 140.528L181.786 140.523ZM186.989 156.423L191.762 171.005C188.286 172.258 185.016 173.824 182.03 175.649C178.622 171.539 175.757 166.466 173.706 160.77L186.993 156.421L186.989 156.423ZM192.818 174.233L196.572 185.704C195.224 185.373 193.868 184.924 192.502 184.243C189.614 182.849 186.869 180.776 184.337 178.218C186.955 176.665 189.798 175.329 192.818 174.233ZM191.015 187.291C191.323 187.444 191.63 187.567 191.936 187.703C186.19 188.361 180.493 187.472 175.332 185.328C177.097 183.439 179.144 181.693 181.407 180.105C184.345 183.186 187.593 185.639 191.011 187.292L191.015 187.291ZM202.185 181.091C201.492 182.438 200.67 183.595 199.789 184.651L196.035 173.18C199.09 172.288 202.148 171.688 205.149 171.389C204.634 174.949 203.669 178.25 202.189 181.09L202.185 181.091ZM208.617 171.173C211.415 171.11 214.129 171.306 216.697 171.79C213.799 176.572 209.731 180.661 204.698 183.526C204.861 183.236 205.037 182.96 205.192 182.659C206.941 179.294 208.087 175.394 208.617 171.173ZM194.978 169.952L190.205 155.366L203.372 151.057C205.076 156.848 205.774 162.622 205.477 167.948C202.018 168.246 198.489 168.915 194.977 169.948L194.978 169.952ZM189.149 152.142L185.002 139.47C188.625 138.124 191.992 136.335 195.01 134.146C197.98 138.034 200.464 142.7 202.317 147.832L189.149 152.142ZM157.712 140.035C160.725 141.088 163.872 141.754 167.098 142.019C166.969 147.317 167.768 152.964 169.429 158.596L155.76 163.069C153.594 155.135 154.462 147.029 157.712 140.035ZM156.816 166.298L170.485 161.824C172.627 167.785 175.611 173.14 179.185 177.526C176.532 179.416 174.171 181.523 172.157 183.802C165.332 180.092 159.783 174.032 156.815 166.294L156.816 166.298ZM218.355 168.678C215.353 168.023 212.166 167.727 208.871 167.779C209.143 162.13 208.374 156.059 206.586 150.009L220.375 145.496C222.555 153.488 221.667 161.655 218.355 168.678Z" fill="#F9DCB2"/>
<path d="M215.206 363.986C215.848 413.319 196.857 423.831 196.857 423.831L133.509 290.547C133.509 290.547 129.033 291.297 143.759 272.928C158.486 254.559 146.103 184.674 171.111 171.904C196.119 159.134 188.188 261.125 187.262 278.79C186.336 296.456 214.563 314.653 215.206 363.986Z" fill="#F39E7C"/>
</svg>
