<svg width="28" height="20" viewBox="0 0 28 20" fill="none" xmlns="http://www.w3.org/2000/svg">
<path d="M13.9766 18.5793C12.1752 18.5793 10.4141 18.0451 8.91625 17.0442C7.41836 16.0434 6.25091 14.6208 5.56151 12.9564C4.87211 11.2921 4.69173 9.46068 5.04318 7.69381C5.39464 5.92694 6.26214 4.30396 7.53598 3.03012C8.80982 1.75628 10.4328 0.888778 12.1997 0.537326C13.9665 0.185873 15.798 0.366251 17.4623 1.05565C19.1267 1.74505 20.5492 2.91251 21.5501 4.41039C22.5509 5.90827 23.0851 7.6693 23.0851 9.47078C23.0833 11.886 22.1231 14.2017 20.4154 15.9095C18.7076 17.6173 16.3918 18.5775 13.9766 18.5793ZM13.9766 1.70454C12.439 1.70454 10.9359 2.16058 9.65755 3.01498C8.37915 3.86937 7.38288 5.08373 6.79476 6.50444C6.20665 7.92514 6.05311 9.48836 6.35357 10.9963C6.65403 12.5043 7.39499 13.8893 8.48272 14.9761C9.57045 16.0629 10.9561 16.8027 12.4643 17.1018C13.9726 17.401 15.5356 17.2461 16.9558 16.6568C18.376 16.0674 19.5895 15.0701 20.4428 13.791C21.2961 12.5119 21.7509 11.0084 21.7496 9.47078C21.7478 7.40982 20.9283 5.43377 19.471 3.97645C18.0137 2.51913 16.0376 1.69963 13.9766 1.69786V1.70454Z" fill="black"/>
<path d="M2.62432 18.6991C2.44721 18.6991 2.27736 18.6288 2.15213 18.5035C2.0269 18.3783 1.95654 18.2084 1.95654 18.0313V2.00469C1.95654 1.82759 2.0269 1.65773 2.15213 1.5325C2.27736 1.40727 2.44721 1.33691 2.62432 1.33691C2.80143 1.33691 2.97128 1.40727 3.09651 1.5325C3.22174 1.65773 3.2921 1.82759 3.2921 2.00469V18.0313C3.2921 18.2084 3.22174 18.3783 3.09651 18.5035C2.97128 18.6288 2.80143 18.6991 2.62432 18.6991Z" fill="black"/>
<path d="M3.1252 6.62598H2.12353C1.56033 6.62598 1.02021 6.40225 0.621968 6.00401C0.223728 5.60577 0 5.06564 0 4.50245V2.00496C0.0159034 1.85221 0.0878391 1.71078 0.201916 1.60796C0.315993 1.50514 0.46412 1.44824 0.617693 1.44824C0.771267 1.44824 0.919394 1.50514 1.03347 1.60796C1.14755 1.71078 1.21948 1.85221 1.23539 2.00496V4.50913C1.23713 4.74236 1.33056 4.96556 1.49549 5.13049C1.66042 5.29542 1.88361 5.38884 2.11685 5.39059H3.11852C3.35176 5.38884 3.57495 5.29542 3.73988 5.13049C3.90481 4.96556 3.99824 4.74236 3.99998 4.50913V2.00496C4.01589 1.85221 4.08782 1.71078 4.2019 1.60796C4.31598 1.50514 4.4641 1.44824 4.61768 1.44824C4.77125 1.44824 4.91938 1.50514 5.03345 1.60796C5.14753 1.71078 5.21947 1.85221 5.23537 2.00496V4.50913C5.23362 5.06886 5.01095 5.60526 4.61578 6.00168C4.22062 6.39809 3.68492 6.62246 3.1252 6.62598Z" fill="black"/>
<path d="M27.3322 19.3673C27.1551 19.3673 26.9853 19.2969 26.86 19.1717C26.7348 19.0464 26.6645 18.8766 26.6645 18.6995V12.6895H25.3289C25.1518 12.6895 24.982 12.6191 24.8567 12.4939C24.7315 12.3687 24.6611 12.1988 24.6611 12.0217V6.67949C24.6611 1.01675 26.8715 0.121925 27.1186 0.0351144C27.2191 0.00113607 27.3264 -0.00836377 27.4314 0.00740348C27.5364 0.0231707 27.6361 0.0637509 27.7223 0.125776C27.8085 0.187801 27.8787 0.269482 27.9269 0.364044C27.9752 0.458606 28.0003 0.563321 28 0.669502V18.6995C28 18.8766 27.9297 19.0464 27.8044 19.1717C27.6792 19.2969 27.5093 19.3673 27.3322 19.3673ZM25.9967 11.3539H26.6645V2.47918C26.1592 3.81949 25.932 5.24858 25.9967 6.67949V11.3539Z" fill="black"/>
<path d="M13.9163 15.6011C13.7392 15.6011 13.5693 15.5308 13.4441 15.4055C13.3189 15.2803 13.2485 15.1105 13.2485 14.9333C13.2485 14.7562 13.3189 14.5864 13.4441 14.4612C13.5693 14.3359 13.7392 14.2656 13.9163 14.2656C14.8527 14.2656 15.7681 13.9879 16.5467 13.4677C17.3252 12.9474 17.9321 12.208 18.2904 11.3429C18.6488 10.4777 18.7425 9.52578 18.5598 8.60737C18.3772 7.68896 17.9262 6.84534 17.2641 6.18321C16.602 5.52107 15.7584 5.07015 14.8399 4.88747C13.9215 4.70478 12.9696 4.79854 12.1045 5.15689C11.2393 5.51523 10.4999 6.12207 9.97966 6.90066C9.45942 7.67925 9.18174 8.59463 9.18174 9.53103C9.18174 9.70814 9.11139 9.87799 8.98616 10.0032C8.86093 10.1285 8.69107 10.1988 8.51397 10.1988C8.33686 10.1988 8.16701 10.1285 8.04178 10.0032C7.91655 9.87799 7.84619 9.70814 7.84619 9.53103C7.84619 8.33048 8.2022 7.15689 8.86919 6.15867C9.53618 5.16045 10.4842 4.38243 11.5934 3.923C12.7025 3.46357 13.923 3.34336 15.1005 3.57758C16.278 3.81179 17.3596 4.38991 18.2085 5.23883C19.0574 6.08775 19.6355 7.16933 19.8697 8.34682C20.104 9.5243 19.9837 10.7448 19.5243 11.854C19.0649 12.9631 18.2869 13.9111 17.2886 14.5781C16.2904 15.2451 15.1168 15.6011 13.9163 15.6011Z" fill="black"/>
</svg>
