<svg width="28" height="24" viewBox="0 0 28 24" fill="none" xmlns="http://www.w3.org/2000/svg">
<path d="M17.6021 5.72005C17.6021 7.69924 19.2123 9.30949 21.1917 9.30949C23.1707 9.30949 24.7809 7.69924 24.7809 5.72005C24.7809 3.74087 23.1704 2.13086 21.1915 2.13086C19.2121 2.13086 17.6021 3.74087 17.6021 5.72005ZM23.3626 5.72005C23.3626 6.91716 22.3886 7.89139 21.1915 7.89139C19.9941 7.89139 19.0199 6.9174 19.0199 5.72005C19.0199 4.52271 19.9939 3.54872 21.1915 3.54872C22.3886 3.54895 23.3626 4.52295 23.3626 5.72005Z" fill="black"/>
<path d="M19.5498 9.69727L19.0083 11.0078C19.7013 11.2943 20.4356 11.4394 21.1912 11.4394H21.1962L21.1912 10.0213C20.6226 10.0213 20.07 9.91234 19.5498 9.69727Z" fill="black"/>
<path d="M26.9105 5.72002V5.69922L25.4924 5.72002C25.4924 6.29009 25.383 6.84386 25.167 7.36524L26.4771 7.90814C26.7645 7.21374 26.9105 6.47752 26.9105 5.72002Z" fill="black"/>
<path d="M26.4684 3.51033C26.1777 2.81593 25.758 2.19386 25.2217 1.66113L24.2227 2.66751C24.6266 3.06859 24.9419 3.53656 25.1607 4.05842L26.4684 3.51033Z" fill="black"/>
<path d="M22.8408 9.69382L23.3851 11.0034C24.0802 10.7146 24.704 10.297 25.2381 9.76188L24.2346 8.75977C23.8323 9.1625 23.3634 9.47685 22.8408 9.69382Z" fill="black"/>
<path d="M15.9102 7.91854C16.1997 8.61341 16.6178 9.23642 17.1534 9.77033L18.1545 8.76632C17.7515 8.36453 17.4367 7.89561 17.2193 7.37305L15.9102 7.91854Z" fill="black"/>
<path d="M22.8244 1.73882L23.363 0.427082C22.6734 0.143936 21.943 0 21.1801 0C21.1801 0 21.1796 0 21.1792 0L21.1782 0.241076L21.1912 1.41809C21.7568 1.41809 22.3061 1.52587 22.8244 1.73882Z" fill="black"/>
<path d="M16.158 5.72964H16.8898C16.8898 5.72468 16.8898 5.71829 16.8893 5.71168C16.8902 5.14727 16.9987 4.59918 17.2119 4.08205L15.9004 3.54199C15.6156 4.23355 15.4712 4.96599 15.4712 5.71924C15.4712 5.73436 15.4717 5.74973 15.4726 5.76485L16.158 5.72964Z" fill="black"/>
<path d="M19.5338 1.74862L18.9869 0.44043C18.2922 0.730903 17.6694 1.14995 17.1367 1.68575L18.1421 2.68575C18.543 2.2823 19.0112 1.96701 19.5338 1.74862Z" fill="black"/>
<path d="M26.3062 21.9821L23.4294 18.5085L20.3296 14.5915C20.1954 14.4211 19.9902 14.3223 19.7738 14.3223C19.5568 14.3223 19.3523 14.4211 19.2174 14.5915L16.1278 18.496L13.2411 21.9821H11.3853V23.4002H28.0001V21.9821H26.3062ZM15.082 21.9821L17.2299 19.3882L19.774 16.1738L22.3277 19.4L24.4655 21.9819L15.082 21.9821Z" fill="black"/>
<path d="M8.06683 18.2792C11.7926 17.9214 14.7153 14.7742 14.7153 10.9564C14.7153 6.89925 11.4149 3.59863 7.35778 3.59863C3.30061 3.59863 0 6.89901 0 10.9562C0 14.7739 2.92293 17.9214 6.64873 18.279V21.858H5.23537V23.2761H9.48043V21.858H8.06706L8.06683 18.2792ZM6.64873 13.7243L5.02927 12.063L4.01368 13.0531L6.6485 15.756V16.8524C3.7069 16.5007 1.41809 13.9911 1.41809 10.9562C1.41809 7.68109 4.08246 5.01649 7.35778 5.01649C10.6331 5.01649 13.2975 7.68085 13.2975 10.9562C13.2975 13.9911 11.0087 16.5005 8.06683 16.8521V13.7484L10.7016 11.0462L9.68653 10.0564L8.06659 11.7172V9.8893H6.6485L6.64873 13.7243Z" fill="black"/>
</svg>
