<svg width="129" height="92" viewBox="0 0 129 92" fill="none" xmlns="http://www.w3.org/2000/svg">
<path d="M35 36.2102V43.9902L93.2318 76.7603L121.994 60.0216V52.7132L63.998 19L35 36.2102Z" fill="#84B48A"/>
<path d="M35 36.2102L93.2318 68.9804L121.994 52.7132L64.2338 19L35 36.2102Z" fill="#A2D5AA"/>
<path d="M40.4224 37.091L91.5528 66.1513L116.807 51.7257L66.0911 21.8291L40.4224 37.091Z" fill="#A2D5AA" stroke="#61996C"/>
<path d="M111.149 50.3559L94.8822 41.1614C96.2024 52.6663 81.7584 54.2852 74.3714 53.6565L89.224 62.6152C91.4873 61.1064 94.5678 61.9865 95.8252 62.6152L111.149 53.6565C107.189 51.959 109.499 50.7488 111.149 50.3559Z" fill="#7FB488"/>
<path d="M70.1277 54.5992V63.7937L60.226 58.1355V49.884L90.167 32.6738L99.3615 38.0962L70.1277 54.5992Z" fill="#495768"/>
<path d="M70.1277 54.5989V63.7934L60.226 58.1353V49.8838L70.1277 54.5989Z" fill="#293036"/>
<path d="M47.0236 37.8609L63.2908 47.0554C61.9706 35.5505 76.4146 33.9316 83.8016 34.5603L68.9489 25.6016C66.6857 27.1104 63.6051 26.2302 62.3478 25.6016L47.0236 34.5603C50.9843 36.2578 48.6739 37.468 47.0236 37.8609Z" fill="#7FB488"/>
<mask id="mask0_1804_7361" style="mask-type:alpha" maskUnits="userSpaceOnUse" x="60" y="32" width="40" height="32">
<path d="M70.1277 54.5992V63.7937L60.226 58.1355V49.884L90.167 32.6738L99.3615 38.0962L70.1277 54.5992Z" fill="#495768"/>
</mask>
<g mask="url(#mask0_1804_7361)">
<path d="M61.1689 58.8428V50.3556L91.5815 32.6738" stroke="white"/>
<path d="M68.7131 63.3227V54.3639L99.3614 36.918" stroke="white"/>
</g>
<path d="M93.2319 73.4601L83.3301 67.0947L93.2319 72.5171L98.1827 69.688L93.2319 73.4601Z" fill="#6A9770"/>
<path d="M27 31.2102V38.9902L85.2318 71.7603L113.994 55.0216V47.7132L55.998 14L27 31.2102Z" fill="#84B48A"/>
<path d="M109 58L98.5 56.5L114 47.5V55L109 58Z" fill="#141414" fill-opacity="0.1"/>
<path d="M27 31.2102L85.2318 63.9804L113.994 47.7132L56.2338 14L27 31.2102Z" fill="#A2D5AA"/>
<path d="M32.4224 32.091L83.5528 61.1513L108.807 46.7257L58.0911 16.8291L32.4224 32.091Z" fill="#A2D5AA" stroke="#61996C"/>
<path d="M103.149 45.3559L86.8822 36.1614C88.2024 47.6663 73.7584 49.2852 66.3714 48.6565L81.224 57.6152C83.4873 56.1064 86.5678 56.9865 87.8252 57.6152L103.149 48.6565C99.1886 46.959 101.499 45.7488 103.149 45.3559Z" fill="#7FB488"/>
<path d="M62.1277 49.5992V58.7937L52.226 53.1355V44.884L82.167 27.6738L91.3615 33.0962L62.1277 49.5992Z" fill="#495768"/>
<path d="M62.1277 49.5989V58.7934L52.226 53.1353V44.8838L62.1277 49.5989Z" fill="#293036"/>
<path d="M39.0236 32.8609L55.2908 42.0554C53.9706 30.5505 68.4146 28.9316 75.8016 29.5603L60.949 20.6016C58.6857 22.1104 55.6052 21.2302 54.3478 20.6016L39.0236 29.5603C42.9843 31.2578 40.6739 32.468 39.0236 32.8609Z" fill="#7FB488"/>
<mask id="mask1_1804_7361" style="mask-type:alpha" maskUnits="userSpaceOnUse" x="52" y="27" width="40" height="32">
<path d="M62.1277 49.5992V58.7937L52.226 53.1355V44.884L82.167 27.6738L91.3615 33.0962L62.1277 49.5992Z" fill="#495768"/>
</mask>
<g mask="url(#mask1_1804_7361)">
<path d="M53.1689 53.8428V45.3556L83.5815 27.6738" stroke="white"/>
<path d="M60.7131 58.3227V49.3639L91.3614 31.918" stroke="white"/>
</g>
<path d="M85.2319 68.4601L75.3301 62.0947L85.2319 67.5171L90.1827 64.688L85.2319 68.4601Z" fill="#6A9770"/>
<path d="M0 51.2415V59.0214L58.2318 91.7916L86.9941 75.0529V67.7444L28.998 34.0312L0 51.2415Z" fill="#84B48A"/>
<path d="M0 51.2415L58.2318 84.0116L86.9941 67.7444L29.2338 34.0312L0 51.2415Z" fill="#A2D5AA"/>
<path d="M5.42239 52.1222L56.5528 81.1826L81.8075 66.7569L31.0911 36.8604L5.42239 52.1222Z" fill="#A2D5AA" stroke="#61996C"/>
<path d="M76.1493 65.3872L59.8821 56.1927C61.2024 67.6976 46.7584 69.3164 39.3713 68.6877L54.224 77.6465C56.4872 76.1376 59.5678 77.0178 60.8252 77.6465L76.1493 68.6877C72.1886 66.9903 74.499 65.7801 76.1493 65.3872Z" fill="#7FB488"/>
<path d="M35.1277 69.6304V78.8249L25.2259 73.1668V64.9153L55.167 47.7051L64.3615 53.1275L35.1277 69.6304Z" fill="#495768"/>
<path d="M35.1277 69.6302V78.8247L25.2259 73.1665V64.915L35.1277 69.6302Z" fill="#293036"/>
<path d="M12.0236 52.8921L28.2908 62.0866C26.9705 50.5817 41.4146 48.9629 48.8016 49.5916L33.9489 40.6328C31.6857 42.1417 28.6051 41.2615 27.3478 40.6328L12.0236 49.5916C15.9843 51.289 13.6739 52.4992 12.0236 52.8921Z" fill="#7FB488"/>
<mask id="mask2_1804_7361" style="mask-type:alpha" maskUnits="userSpaceOnUse" x="25" y="47" width="40" height="32">
<path d="M35.1277 69.6304V78.8249L25.2259 73.1668V64.9153L55.167 47.7051L64.3615 53.1275L35.1277 69.6304Z" fill="#495768"/>
</mask>
<g mask="url(#mask2_1804_7361)">
<path d="M26.169 73.874V65.3868L56.5816 47.7051" stroke="white"/>
<path d="M33.7133 78.3539V69.3952L64.3616 51.9492" stroke="white"/>
</g>
<path d="M58.2318 88.4914L48.3301 82.126L58.2318 87.5484L63.1827 84.7193L58.2318 88.4914Z" fill="#6A9770"/>
<path d="M9.4303 38.0393V45.8193L67.6621 78.5894L96.4244 61.8507V54.5423L38.4283 20.8291L9.4303 38.0393Z" fill="#84B48A"/>
<path d="M9.4303 38.0393L67.6621 70.8095L96.4244 54.5423L38.6641 20.8291L9.4303 38.0393Z" fill="#A2D5AA"/>
<path d="M14.8528 38.9201L65.9832 67.9804L91.2379 53.5548L40.5215 23.6582L14.8528 38.9201Z" fill="#A2D5AA" stroke="#61996C"/>
<path d="M85.5797 52.185L69.3125 42.9905C70.6327 54.4954 56.1887 56.1143 48.8017 55.4856L63.6543 64.4443C65.9176 62.9355 68.9981 63.8157 70.2555 64.4443L85.5797 55.4856C81.619 53.7881 83.9294 52.5779 85.5797 52.185Z" fill="#7FB488"/>
<path d="M44.5581 56.4283V65.6228L34.6563 59.9646V51.7131L64.5974 34.5029L73.7919 39.9253L44.5581 56.4283Z" fill="#495768"/>
<path d="M44.5581 56.428V65.6225L34.6563 59.9644V51.7129L44.5581 56.428Z" fill="#293036"/>
<path d="M21.4539 39.69L37.7211 48.8845C36.4009 37.3796 50.8449 35.7607 58.2319 36.3894L43.3793 27.4307C41.116 28.9395 38.0355 28.0593 36.7781 27.4307L21.4539 36.3894C25.4147 38.0869 23.1042 39.2971 21.4539 39.69Z" fill="#7FB488"/>
<mask id="mask3_1804_7361" style="mask-type:alpha" maskUnits="userSpaceOnUse" x="34" y="34" width="40" height="32">
<path d="M44.5581 56.4283V65.6228L34.6563 59.9646V51.7131L64.5974 34.5029L73.7919 39.9253L44.5581 56.4283Z" fill="#495768"/>
</mask>
<g mask="url(#mask3_1804_7361)">
<path d="M35.5993 60.6719V52.1847L66.0118 34.5029" stroke="white"/>
<path d="M43.1435 65.1508V56.1921L73.7918 38.7461" stroke="white"/>
</g>
<path d="M67.6622 75.2893L57.7604 68.9238L67.6622 74.3462L72.6131 71.5171L67.6622 75.2893Z" fill="#6A9770"/>
<path d="M42 17.2102V24.9902L100.232 57.7603L128.994 41.0216V33.7132L70.998 0L42 17.2102Z" fill="#84B48A"/>
<path d="M42 17.2102L100.232 49.9804L128.994 33.7132L71.2338 0L42 17.2102Z" fill="#A2D5AA"/>
<path d="M47.4225 18.091L98.5529 47.1513L123.808 32.7257L73.0912 2.8291L47.4225 18.091Z" fill="#A2D5AA" stroke="#61996C"/>
<path d="M118.149 31.3559L101.882 22.1614C103.202 33.6663 88.7584 35.2852 81.3714 34.6565L96.224 43.6152C98.4873 42.1064 101.568 42.9865 102.825 43.6152L118.149 34.6565C114.189 32.959 116.499 31.7488 118.149 31.3559Z" fill="#7FB488"/>
<path d="M77.1278 35.5992V44.7937L67.226 39.1355V30.884L97.1671 13.6738L106.362 19.0962L77.1278 35.5992Z" fill="#495768"/>
<path d="M77.1278 35.5989V44.7934L67.226 39.1353V30.8838L77.1278 35.5989Z" fill="#293036"/>
<path d="M54.0237 18.8609L70.2908 28.0554C68.9706 16.5505 83.4146 14.9316 90.8016 15.5603L75.949 6.60156C73.6857 8.1104 70.6052 7.23025 69.3478 6.60156L54.0237 15.5603C57.9844 17.2578 55.6739 18.468 54.0237 18.8609Z" fill="#7FB488"/>
<mask id="mask4_1804_7361" style="mask-type:alpha" maskUnits="userSpaceOnUse" x="67" y="13" width="40" height="32">
<path d="M77.1278 35.5992V44.7937L67.226 39.1355V30.884L97.1671 13.6738L106.362 19.0962L77.1278 35.5992Z" fill="#495768"/>
</mask>
<g mask="url(#mask4_1804_7361)">
<path d="M68.169 39.8428V31.3556L98.5815 13.6738" stroke="white"/>
<path d="M75.7132 44.3217V35.363L106.362 17.917" stroke="white"/>
</g>
<path d="M100.232 54.4601L90.3301 48.0947L100.232 53.5171L105.183 50.688L100.232 54.4601Z" fill="#6A9770"/>
<path d="M0 27.2102V34.9902L58.2318 67.7603L86.9941 51.0216V43.7132L28.998 10L0 27.2102Z" fill="#84B48A"/>
<path d="M0 27.2102L58.2318 59.9804L86.9941 43.7132L29.2338 10L0 27.2102Z" fill="#A2D5AA"/>
<path d="M5.42249 28.091L56.5529 57.1513L81.8076 42.7257L31.0912 12.8291L5.42249 28.091Z" fill="#A2D5AA" stroke="#61996C"/>
<path d="M76.1494 41.3559L59.8822 32.1614C61.2024 43.6663 46.7584 45.2852 39.3714 44.6565L54.224 53.6152C56.4873 52.1064 59.5679 52.9865 60.8252 53.6152L76.1494 44.6565C72.1887 42.959 74.4991 41.7488 76.1494 41.3559Z" fill="#7FB488"/>
<path d="M35.1278 45.5992V54.7937L25.226 49.1355V40.884L55.1671 23.6738L64.3616 29.0962L35.1278 45.5992Z" fill="#495768"/>
<path d="M35.1278 45.5989V54.7934L25.226 49.1353V40.8838L35.1278 45.5989Z" fill="#293036"/>
<path d="M12.0237 28.8609L28.2908 38.0554C26.9706 26.5505 41.4146 24.9316 48.8016 25.5603L33.949 16.6016C31.6857 18.1104 28.6052 17.2302 27.3478 16.6016L12.0237 25.5603C15.9844 27.2578 13.6739 28.468 12.0237 28.8609Z" fill="#7FB488"/>
<mask id="mask5_1804_7361" style="mask-type:alpha" maskUnits="userSpaceOnUse" x="25" y="23" width="40" height="32">
<path d="M35.1278 45.5992V54.7937L25.226 49.1355V40.884L55.1671 23.6738L64.3616 29.0962L35.1278 45.5992Z" fill="#495768"/>
</mask>
<g mask="url(#mask5_1804_7361)">
<path d="M26.169 49.8428V41.3556L56.5815 23.6738" stroke="white"/>
<path d="M33.7132 54.3217V45.363L64.3615 27.917" stroke="white"/>
</g>
<path d="M58.2319 64.4601L48.3301 58.0947L58.2319 63.5171L63.1828 60.688L58.2319 64.4601Z" fill="#6A9770"/>
</svg>
