<svg width="28" height="33" viewBox="0 0 28 33" fill="none" xmlns="http://www.w3.org/2000/svg">
<path d="M0.000206861 21.0006V31.1114C0.00166512 31.9704 0.697305 32.666 1.55628 32.6675H4.66694C5.44569 32.6646 6.10198 32.087 6.2026 31.3156C6.26531 31.3243 6.32801 31.3316 6.39072 31.3345H17.1418C17.8607 31.3345 20.7089 31.0779 21.6786 30.2612L26.9912 25.7841V25.7827C28.1199 24.8333 28.3299 23.1766 27.4768 21.9735C26.6237 20.7703 24.9903 20.4233 23.7203 21.1743L22.0578 22.2331L22.0592 22.2316C21.9921 22.1514 21.909 22.0843 21.8157 22.0362C20.7176 21.4776 19.5581 21.0474 18.3623 20.7557C18.5198 19.8078 18.6131 18.8497 18.6438 17.8901H23.3337C23.5393 17.8901 23.7376 17.8084 23.8835 17.6611C24.0293 17.5153 24.111 17.3184 24.111 17.1113C24.111 14.9719 23.427 12.8881 22.1597 11.164C22.1538 11.1523 22.1553 11.1407 22.1495 11.1305C22.1013 11.0371 22.0343 10.954 21.9526 10.8884C20.2069 8.65417 17.6039 7.25852 14.7774 7.03963V6.22295C16.2212 6.22149 17.6051 5.64689 18.6261 4.62607C19.6472 3.60525 20.2216 2.22125 20.223 0.777321C20.223 0.571694 20.1414 0.373369 19.9941 0.227505C19.8482 0.0816717 19.6514 0 19.4443 0H18.667C17.703 0.00145826 16.7565 0.25813 15.9238 0.745221C15.091 1.23086 14.4042 1.93087 13.9302 2.77088C13.0581 1.52251 11.6333 0.778785 10.111 0.777329H8.16699C7.96137 0.777329 7.76304 0.858996 7.61718 1.00629C7.47134 1.15213 7.38967 1.349 7.38967 1.55611C7.39259 4.13154 9.47951 6.21985 12.0564 6.22284H13.2231V7.03952C10.3866 7.25827 7.77309 8.66559 6.02885 10.9129C5.94864 10.98 5.88156 11.0617 5.83489 11.155C5.83052 11.1637 5.83052 11.174 5.82614 11.1842C4.56758 12.905 3.88945 14.9803 3.88945 17.1109C3.89091 17.897 3.98424 18.6801 4.16799 19.4443H1.55608C0.697098 19.4457 0.00166288 20.1417 0.000206861 21.0006ZM18.5884 1.55642C18.2223 3.33706 16.6736 4.62772 14.8564 4.66562C15.2225 2.88644 16.7713 1.59577 18.5884 1.55642ZM1.55628 31.1114V21.0006H4.66257L4.66695 21.0109V29.6092L4.66841 29.615V31.1113L1.55628 31.1114ZM6.80356 12.5027C7.71212 12.9154 8.65711 13.2421 9.62693 13.4798C9.47235 14.4233 9.37901 15.3771 9.3513 16.3338H5.48389C5.60785 14.9688 6.06125 13.6549 6.80356 12.5027ZM14.0004 8.55652C14.9177 8.55652 15.9036 9.98424 16.5132 12.2505C15.6717 12.3789 14.8215 12.4445 13.9698 12.4445C13.1371 12.443 12.3073 12.3818 11.4848 12.2593C12.0944 9.98862 13.0816 8.55652 14.0004 8.55652ZM13.9698 14.0005C14.9308 13.9991 15.8919 13.9233 16.8413 13.7745C16.9813 14.6203 17.0659 15.4764 17.095 16.3339H10.9043H10.9058C10.935 15.4793 11.0195 14.6276 11.1581 13.7833C12.0885 13.9262 13.0277 13.9991 13.9698 14.0005ZM22.5174 16.3339H18.65C18.6223 15.3714 18.5289 14.4133 18.3714 13.4639C19.3383 13.2247 20.279 12.8951 21.1846 12.4809C21.9342 13.6374 22.392 14.9602 22.5174 16.3339ZM9.35569 17.89C9.38486 18.8496 9.47819 19.8048 9.63569 20.7527C9.05963 20.8913 8.49234 21.059 7.93525 21.2588H6.39086C6.33544 21.2617 6.27857 21.2676 6.22315 21.2763V21.0007C6.22169 20.7805 6.17356 20.5632 6.08169 20.3634C5.75647 19.5744 5.5552 18.7402 5.48229 17.89L9.35569 17.89ZM14.8609 22.0669C14.7603 21.9677 14.6524 21.8759 14.5372 21.7942C15.1978 21.8146 15.857 21.8744 16.5104 21.9721C16.3076 22.7727 16.0028 23.5427 15.6047 24.2661L15.6178 24.0007C15.6383 23.2802 15.3655 22.5817 14.8609 22.0669ZM24.5256 22.5059V22.5044C24.8989 22.2915 25.3524 22.2769 25.7375 22.4694C26.1225 22.6619 26.385 23.0352 26.436 23.464C26.4871 23.8913 26.3193 24.3157 25.9898 24.5942L20.6772 29.0713C20.2805 29.4067 18.2315 29.7786 17.1436 29.7786H6.39105C6.29771 29.7786 6.22333 29.7028 6.22333 29.6094V22.9842C6.22333 22.8908 6.29771 22.815 6.39105 22.815H12.9476C13.2451 22.815 13.531 22.9346 13.7395 23.146C13.9495 23.3575 14.0662 23.6433 14.0633 23.9408L14.0195 24.8173C14.0181 24.8305 14.0181 24.8421 14.0181 24.8552H12.6924L12.6939 24.8567C12.2637 24.8567 11.9151 25.2052 11.9151 25.634C11.9151 26.0642 12.2637 26.4113 12.6939 26.4113H15.5756L15.5873 26.4142L15.5989 26.4113H17.6056H17.6042C18.119 26.4127 18.6221 26.2654 19.0552 25.9884L24.5256 22.5059ZM20.5824 23.1738L18.2198 24.6788V24.6774C18.0361 24.794 17.8232 24.8567 17.6044 24.8567H17.0546H17.0561C17.4848 24.0401 17.8159 23.1738 18.0419 22.2798C18.914 22.4986 19.7642 22.7975 20.5824 23.1723L20.5824 23.1738ZM16.8329 20.4481C14.9546 20.1477 13.0398 20.1477 11.1615 20.4496C11.023 19.6023 10.9399 18.7477 10.9122 17.8902H17.0883C17.0591 18.7477 16.9729 19.6023 16.8329 20.4481ZM20.1915 11.2241C19.4959 11.5172 18.7798 11.7578 18.0463 11.9416C17.7969 10.9353 17.4075 9.96695 16.8898 9.06862C18.1425 9.5207 19.2742 10.2586 20.1915 11.2241ZM12.0568 4.66745C10.6378 4.66599 9.39971 3.7064 9.04388 2.33408H10.1114C11.5304 2.33554 12.7685 3.29513 13.1244 4.66745H12.0568ZM11.1118 9.06874C10.5912 9.97293 10.2004 10.9442 9.95098 11.9577C9.21449 11.7755 8.49264 11.5363 7.79263 11.2417C8.71433 10.2675 9.85037 9.52373 11.1118 9.06874Z" fill="black"/>
</svg>
