<svg width="14" height="14" viewBox="0 0 14 14" fill="none" xmlns="http://www.w3.org/2000/svg">
<path fill-rule="evenodd" clip-rule="evenodd" d="M6.99981 13.2301C10.441 13.2301 13.2306 10.4405 13.2306 6.99932C13.2306 3.55817 10.441 0.768555 6.99981 0.768555C3.55865 0.768555 0.769043 3.55817 0.769043 6.99932C0.769043 10.4405 3.55865 13.2301 6.99981 13.2301ZM10.3009 5.36561C10.5457 5.07188 10.506 4.63533 10.2122 4.39056C9.91852 4.14578 9.48197 4.18547 9.2372 4.4792L6.74631 7.46827C6.50627 7.75631 6.37133 7.91578 6.2636 8.01377L6.25948 8.0175L6.25504 8.01416C6.13888 7.92632 5.99005 7.77972 5.72493 7.5146L4.72012 6.50979C4.44975 6.23943 4.01141 6.23943 3.74105 6.50979C3.47068 6.78015 3.47068 7.2185 3.74105 7.48886L4.74585 8.49367L4.77412 8.52194L4.77412 8.52194C5.00016 8.74806 5.2176 8.96559 5.41992 9.11858C5.64656 9.28995 5.94336 9.4511 6.32373 9.43385C6.70409 9.41659 6.98508 9.22924 7.19527 9.03804C7.38291 8.86737 7.57976 8.63106 7.7844 8.3854L7.78441 8.38539L7.81 8.35468L10.3009 5.36561Z" fill="#B8B8B8"/>
</svg>
