<svg width="100" height="104" viewBox="0 0 100 104" fill="none" xmlns="http://www.w3.org/2000/svg">
<path d="M67.1546 2.23559C25.1827 -8.10306 7.36013 19.9167 3.69531 35.219L52.4953 55.4719L95.3158 68.2024C97.8233 44.6704 98.5949 12.4585 67.1546 2.23559Z" fill="#B26726"/>
<path d="M64.6442 1.54297C36.9706 6.14576 25.3381 24.1734 22.981 32.6118C26.1025 33.4429 32.9572 35.105 35.4035 35.105C40.1432 16.0801 56.8722 4.80328 64.6442 1.54297Z" fill="#F7921E"/>
<path d="M64.6994 1.54376C82.8708 22.917 80.1249 44.1954 76.4806 52.163C73.5596 50.7836 67.2504 47.6303 65.3815 46.0518C74.0368 28.4593 68.5332 9.04955 64.6994 1.54376Z" fill="#F7921E"/>
<path d="M14.849 86.265C14.9118 86.5903 15.2265 86.8031 15.5518 86.7403C15.8771 86.6774 16.0899 86.3627 16.0271 86.0374L14.849 86.265ZM5.75811 39.2085L14.849 86.265L16.0271 86.0374L6.93623 38.9809L5.75811 39.2085Z" fill="black"/>
<path d="M24.6429 51.2518C24.714 50.9282 24.5093 50.6082 24.1857 50.5371C23.8621 50.466 23.5421 50.6707 23.471 50.9943L24.6429 51.2518ZM23.471 50.9943L15.8432 85.7052L17.0152 85.9628L24.6429 51.2518L23.471 50.9943Z" fill="black"/>
<ellipse cx="49.5875" cy="51.0158" rx="48.8098" ry="10.9724" transform="rotate(20.2787 49.5875 51.0158)" fill="#452911"/>
<path d="M14.7084 31.1883C14.676 30.8586 14.3824 30.6176 14.0526 30.65C13.7228 30.6824 13.4818 30.976 13.5143 31.3058L14.7084 31.1883ZM13.5143 31.3058L20.4581 101.902L21.6523 101.784L14.7084 31.1883L13.5143 31.3058Z" fill="black"/>
<path d="M71.6968 48.6769C71.8883 48.4065 71.8244 48.032 71.554 47.8405C71.2836 47.649 70.9091 47.7129 70.7176 47.9833L71.6968 48.6769ZM70.7176 47.9833C55.175 69.925 46.1413 81.9875 29.0806 102.728L30.0073 103.491C47.0896 82.7235 56.1408 70.6374 71.6968 48.6769L70.7176 47.9833Z" fill="black"/>
<path d="M87.5718 57.948C87.8354 57.7473 87.8864 57.3708 87.6856 57.1072C87.4849 56.8436 87.1084 56.7926 86.8448 56.9934L87.5718 57.948ZM86.8448 56.9934L39.9768 92.6854L40.7038 93.64L87.5718 57.948L86.8448 56.9934Z" fill="black"/>
</svg>
