<svg width="141" height="211" viewBox="0 0 141 211" fill="none" xmlns="http://www.w3.org/2000/svg">
<rect x="0.649414" y="0.301758" width="140.052" height="210.391" rx="61.8981" fill="#636363"/>
<mask id="mask0_1615_7958" style="mask-type:alpha" maskUnits="userSpaceOnUse" x="0" y="0" width="141" height="211">
<rect x="0.650879" y="0.301758" width="140.052" height="210.391" rx="61.8981" fill="#FDFEFF"/>
</mask>
<g mask="url(#mask0_1615_7958)">
<path d="M118.74 102.122L121.097 102.643C123.347 103.141 124.805 105.323 124.406 107.592L111.053 183.398C110.988 183.763 110.877 184.119 110.722 184.455L86.4922 236.958C85.7887 238.482 84.2632 239.458 82.5844 239.458H45.1686C42.1547 239.458 40.0741 236.44 41.1462 233.623L89.0673 107.714C89.5638 106.41 90.6623 105.427 92.014 105.078L97.1227 103.759C97.6988 103.611 98.2995 103.583 98.8869 103.678L109.32 105.369C110.373 105.54 111.451 105.313 112.347 104.734L115.472 102.711C116.439 102.086 117.616 101.873 118.74 102.122Z" fill="#B6C9FF"/>
<path d="M110.132 109.229L78.2776 190.739" stroke="black" stroke-width="1.07597"/>
<path d="M118.898 186.33L102.596 226.431L99.8702 236.301C99.3549 238.166 97.6574 239.459 95.7216 239.459H86.0566C82.886 239.459 80.8037 236.147 82.1781 233.289L107.462 180.723C107.615 180.404 107.728 180.068 107.799 179.721L122.58 107.565C123.108 104.988 125.851 103.501 128.322 104.404C130.252 105.11 131.448 107.095 131.129 109.126L119.162 185.377C119.111 185.704 119.022 186.024 118.898 186.33Z" fill="black"/>
</g>
</svg>
