<svg width="28" height="28" viewBox="0 0 28 28" fill="none" xmlns="http://www.w3.org/2000/svg">
<path d="M0.151151 22.3663C0.154864 22.5961 0.174825 22.8212 0.204998 23.0431C0.20964 23.0775 0.21521 23.1109 0.220781 23.1453C0.255132 23.3644 0.300624 23.5788 0.359578 23.7886C0.361899 23.7965 0.363291 23.8044 0.365612 23.8128C0.496518 24.2691 0.68452 24.6999 0.920335 25.1C0.935189 25.1255 0.950972 25.1506 0.966755 25.1761C1.07445 25.3521 1.1905 25.5215 1.3163 25.684C1.33301 25.7058 1.34879 25.7285 1.36597 25.7504C1.50709 25.9272 1.65749 26.0957 1.81903 26.254C1.84364 26.2782 1.87056 26.3 1.89563 26.3237C2.03024 26.4508 2.1709 26.5706 2.31712 26.6843C2.36726 26.7233 2.41832 26.7614 2.46985 26.7985C2.59611 26.8895 2.72609 26.974 2.85978 27.0543C2.86627 27.0585 2.87138 27.0645 2.87834 27.0687C2.89738 27.0798 2.91641 27.091 2.93591 27.1021C2.96004 27.1179 2.98418 27.1332 3.00925 27.1476C3.01064 27.1485 3.01203 27.1495 3.01343 27.1504C3.01436 27.1509 3.01528 27.1509 3.01668 27.1518C3.02178 27.1546 3.02689 27.1564 3.032 27.1592C3.23857 27.2734 3.45488 27.3718 3.67631 27.4596C3.69673 27.4675 3.71716 27.4744 3.73758 27.4823C3.91584 27.5505 4.09827 27.609 4.28442 27.6587C4.32805 27.6703 4.37215 27.6819 4.41625 27.6926C4.5829 27.7325 4.7528 27.7645 4.92502 27.7891C4.97376 27.7961 5.02203 27.8059 5.07124 27.8114C5.28338 27.836 5.49831 27.8518 5.71741 27.8518C5.93976 27.8518 6.15794 27.8351 6.37379 27.8096C6.39004 27.8077 6.40675 27.804 6.42346 27.8021C6.637 27.7748 6.84635 27.7344 7.05153 27.6838C7.05756 27.6824 7.0636 27.6819 7.06917 27.6805C7.07242 27.6796 7.07474 27.6777 7.07753 27.6773C8.87167 27.2242 10.3186 25.9022 10.9462 24.1837C10.9476 24.1795 10.9508 24.1763 10.9522 24.1721C10.9559 24.1614 10.9587 24.1503 10.9624 24.1396C11.0079 24.0115 11.0492 23.8815 11.0855 23.7492C11.0957 23.712 11.105 23.6749 11.1142 23.6378C11.1435 23.5213 11.1709 23.4038 11.1927 23.2845C11.2061 23.2121 11.2154 23.1392 11.2261 23.0663C11.2386 22.9768 11.2535 22.8886 11.2619 22.7976C11.2781 22.6254 11.2878 22.4536 11.2878 22.2814C11.2878 22.0999 11.2781 21.9193 11.2605 21.7392C11.2507 21.6398 11.2331 21.5428 11.2182 21.4453C11.2066 21.3692 11.1983 21.2926 11.1834 21.217C11.1579 21.0851 11.124 20.9565 11.0892 20.828C11.0785 20.789 11.0706 20.749 11.059 20.71C11.0177 20.5699 10.9689 20.4334 10.9169 20.2983C10.9077 20.2746 10.9016 20.25 10.8923 20.2263C10.8914 20.2236 10.8891 20.2212 10.8877 20.2185C10.3297 18.8245 9.22679 17.7067 7.84067 17.1329C7.83743 17.1315 7.8351 17.1292 7.83232 17.1283C7.8105 17.1194 7.78729 17.1139 7.76547 17.1055C7.59883 17.0391 7.42846 16.9811 7.25439 16.931C7.21632 16.9203 7.17779 16.9115 7.13973 16.9013C6.96937 16.8562 6.79622 16.8191 6.61982 16.7903C6.5929 16.7861 6.56597 16.782 6.53905 16.7778C6.34455 16.749 6.14726 16.73 5.94719 16.7221C5.94116 16.7216 5.93512 16.7211 5.92862 16.7211C5.8576 16.7188 5.78843 16.7109 5.71741 16.7109C4.89531 16.7109 4.11637 16.8948 3.41311 17.216C3.41032 17.2174 3.40754 17.2188 3.40475 17.2197C3.22046 17.3042 3.04221 17.3989 2.86952 17.5024C2.85699 17.5098 2.84353 17.5154 2.831 17.5228C2.82682 17.5252 2.8245 17.5298 2.82032 17.5321C1.22067 18.5125 0.146973 20.2718 0.146973 22.2814C0.146973 22.3046 0.150222 22.3269 0.150686 22.3501C0.150686 22.351 0.150222 22.3515 0.150222 22.3524C0.150222 22.357 0.151151 22.3612 0.151151 22.3663ZM3.72041 18.097C3.82578 18.0465 3.93208 17.9996 4.04071 17.9573C4.05556 17.9518 4.07042 17.9466 4.08527 17.9411C4.54298 17.7689 5.02575 17.6723 5.5113 17.6496C5.55308 17.6477 5.59486 17.644 5.63664 17.6431C5.71834 17.6412 5.80004 17.6444 5.88174 17.6472C5.9509 17.6496 6.02007 17.6523 6.08831 17.6579C6.1598 17.6635 6.23082 17.6714 6.30184 17.6802C6.37844 17.6899 6.4541 17.7015 6.5293 17.715C6.59522 17.7266 6.66113 17.7382 6.72659 17.7531C6.74748 17.7577 6.76744 17.7642 6.78833 17.7689L5.52523 19.032H4.14748L3.68791 18.1128C3.69859 18.1077 3.70973 18.1026 3.72041 18.097ZM9.35862 22.9949L10.2926 21.5266C10.301 21.5772 10.3093 21.6278 10.3158 21.6788C10.3237 21.7373 10.3325 21.7954 10.3376 21.8538C10.3506 21.995 10.3594 22.137 10.3594 22.2814C10.3594 22.4884 10.3418 22.695 10.313 22.9011C10.3084 22.935 10.3028 22.9689 10.2972 23.0027C10.2643 23.207 10.2206 23.4103 10.1598 23.6118L8.67392 23.9089L9.33819 23.0241C9.33959 23.0227 9.33959 23.0204 9.34052 23.019L9.35862 22.9949ZM6.57154 26.8399C6.38122 26.8765 6.19322 26.896 6.00661 26.909C5.95555 26.9123 5.90402 26.9155 5.85249 26.9169C5.70859 26.9216 5.56608 26.9178 5.4245 26.909C5.37297 26.9058 5.32052 26.9062 5.26899 26.9011C5.0847 26.883 4.90227 26.8542 4.72216 26.8139C4.69152 26.8074 4.66228 26.7981 4.6321 26.7906C4.46453 26.7493 4.29834 26.7001 4.13494 26.6402C4.12426 26.6365 4.11405 26.6324 4.10338 26.6286L5.45931 25.4988L6.95637 25.1994L6.57154 26.8399ZM7.30916 24.1818L5.61714 24.5202L5.3804 23.336L5.30148 22.9415L6.6746 21.9119L8.28677 22.8788L7.30916 24.1818ZM4.789 22.1653L3.5208 21.2142L4.14748 19.9604H5.43053L6.05767 21.2142L4.789 22.1653ZM2.86813 21.8854L4.36844 23.0106L4.74398 24.8869L3.19818 26.1746C3.18843 26.1686 3.17822 26.163 3.16894 26.157C2.88484 25.9699 2.62489 25.7536 2.39232 25.5136C2.37004 25.4909 2.34962 25.4663 2.32826 25.4431C2.2331 25.3409 2.14212 25.2356 2.0567 25.1255C2.03674 25.1 2.01771 25.0736 1.99821 25.0471C1.91187 24.9306 1.83017 24.8108 1.75544 24.6873C1.74383 24.6688 1.73269 24.6502 1.72155 24.6312C1.37154 24.0361 1.15337 23.3639 1.09534 22.6606C1.09488 22.6555 1.09488 22.6509 1.09441 22.6458L2.86813 21.8854ZM7.60022 26.5205L7.95765 24.9988L9.70213 24.6502C9.2124 25.4709 8.47942 26.1282 7.60022 26.5205ZM9.93655 20.3568L8.81875 22.1152L7.00047 21.0243L6.28188 19.5876L7.7534 18.1161C8.71523 18.5882 9.48952 19.381 9.93655 20.3568ZM2.89552 18.604L3.34162 19.4962L2.59286 20.9932L1.12783 21.6208C1.30377 20.3962 1.9569 19.3258 2.89552 18.604Z" fill="black"/>
<path d="M1.03769 10.8526L12.4673 18.667C12.4339 18.7515 12.4083 18.8374 12.3814 18.9232C12.3796 18.9297 12.3772 18.9358 12.3754 18.9418C12.3294 19.0913 12.2932 19.2422 12.2682 19.3953C12.2644 19.4162 12.2593 19.4371 12.2561 19.458C12.2324 19.6214 12.2171 19.7857 12.2171 19.9524C12.2171 19.9542 12.2176 19.9556 12.2176 19.9575C12.2176 19.9584 12.2171 19.9593 12.2171 19.9607C12.2171 20.8023 12.536 21.623 13.1395 22.3597C13.12 22.3797 13.1023 22.4011 13.0833 22.4215C13.0745 22.4312 13.0643 22.4391 13.0554 22.4489C13.0531 22.4517 13.0522 22.4554 13.0499 22.4577C12.5341 23.0314 12.2171 23.7872 12.2171 24.6172C12.2171 25.4383 12.5272 26.1871 13.0332 26.7581C13.0355 26.7608 13.0359 26.7646 13.0387 26.7673C13.0494 26.7794 13.0615 26.7892 13.0722 26.8012C13.1297 26.8639 13.1896 26.9242 13.2518 26.9823C13.2718 27.0008 13.2922 27.0194 13.3126 27.0375C13.3767 27.0946 13.4435 27.1485 13.5122 27.2C13.5317 27.2144 13.5507 27.2292 13.5702 27.2436C13.6436 27.2965 13.7197 27.3457 13.7972 27.3922C13.8135 27.4019 13.8297 27.4126 13.8464 27.4219C13.9305 27.4702 14.0173 27.5143 14.1055 27.5551C14.1171 27.5602 14.1282 27.5667 14.1398 27.5718C14.2341 27.6141 14.3306 27.6512 14.4295 27.6841C14.4364 27.6865 14.4434 27.6897 14.4504 27.692C14.5511 27.725 14.6537 27.7529 14.7586 27.7756C14.7642 27.777 14.7702 27.7788 14.7758 27.7802C14.876 27.8016 14.9782 27.8178 15.0812 27.8294C15.0914 27.8308 15.1017 27.8332 15.1119 27.8341C15.2237 27.8457 15.337 27.8522 15.4521 27.8522C16.0315 27.8522 16.5746 27.6971 17.0457 27.4288C17.0476 27.4279 17.049 27.427 17.0508 27.4261C17.1428 27.3736 17.2319 27.3165 17.3182 27.2552C17.3298 27.2469 17.341 27.2381 17.3526 27.2297C17.4282 27.1745 17.5016 27.1164 17.5721 27.0552C17.5889 27.0408 17.6046 27.0254 17.6209 27.0106C17.6859 26.9516 17.7481 26.8908 17.808 26.8272C17.8154 26.8193 17.8242 26.8124 17.8316 26.804C17.834 26.8012 17.8349 26.7975 17.8372 26.7947C18.2889 26.3008 18.5911 25.6686 18.6672 24.9681C19.1523 25.0271 19.6355 25.067 20.1085 25.067C20.6684 25.067 21.2138 25.028 21.7407 24.9556L23.8417 26.2651C23.9726 27.1619 24.7469 27.8522 25.679 27.8522C26.703 27.8522 27.5358 27.0194 27.5358 25.9954C27.5358 24.9713 26.703 24.1386 25.679 24.1386H25.3624L25.0658 23.9283C25.5165 23.692 25.9236 23.4237 26.2848 23.1299C26.3057 23.1173 26.3284 23.1099 26.3479 23.0936C26.9347 22.6039 27.3654 22.0599 27.6421 21.4819C27.6444 21.4773 27.6463 21.4722 27.6486 21.4675C27.7164 21.3246 27.7739 21.1793 27.8222 21.0321C27.8315 21.0038 27.8408 20.9755 27.8496 20.9467C27.8877 20.8186 27.9183 20.6895 27.9415 20.5591C27.9485 20.522 27.9568 20.4858 27.9624 20.4486C27.9851 20.2875 28 20.1251 28 19.9607C28 19.7964 27.9851 19.6339 27.9619 19.4724C27.9564 19.4353 27.9475 19.3986 27.941 19.3619C27.9178 19.2315 27.8877 19.1024 27.8491 18.9743C27.8403 18.9455 27.831 18.9172 27.8217 18.8889C27.7739 18.7417 27.7159 18.5964 27.6481 18.4535C27.6458 18.4488 27.644 18.4437 27.6416 18.4391C27.365 17.8611 26.9342 17.3171 26.3474 16.8274C26.3289 16.812 26.3071 16.8055 26.2871 16.7935C25.4371 16.1004 24.317 15.5545 23.0288 15.2212C23.0599 15.2092 23.0901 15.1952 23.1208 15.1827C23.156 15.1683 23.1909 15.1534 23.2261 15.1386C24.3681 14.6475 25.3875 13.8885 26.1943 12.9104C26.1952 12.909 26.1961 12.9081 26.1975 12.9067C26.3567 12.7131 26.5104 12.514 26.6524 12.3037C26.6585 12.2949 26.6608 12.2851 26.6659 12.2759C27.5075 11.0206 28 9.51292 28 7.89145C28 7.69788 27.9879 7.4941 27.9689 7.28056C27.9578 7.13759 27.9424 6.99647 27.9239 6.85582C27.9229 6.84978 27.9229 6.84514 27.922 6.83957C27.9216 6.83771 27.9206 6.83586 27.9206 6.834C27.5214 3.87285 25.478 1.433 22.7383 0.46049C22.7336 0.458633 22.7299 0.455383 22.7253 0.453526C22.7137 0.449349 22.7016 0.447028 22.69 0.44285C22.5145 0.382039 22.3367 0.328192 22.1561 0.27945C22.1 0.264132 22.0438 0.250205 21.9876 0.235815C21.8303 0.197286 21.672 0.161543 21.5114 0.132298C21.4055 0.112801 21.2997 0.0988753 21.1939 0.0835566C21.0732 0.0668453 20.9534 0.0478129 20.8313 0.036672C20.5909 0.0139261 20.3499 0 20.1085 0C19.8709 0 19.6351 0.0143903 19.4011 0.0357436C19.3227 0.0427066 19.2447 0.0524549 19.1667 0.061739C19.0102 0.0807713 18.8552 0.10491 18.7011 0.133226C18.6152 0.149009 18.5289 0.162471 18.4439 0.180575C18.2466 0.223746 18.0512 0.273416 17.859 0.331441C17.7411 0.36672 17.6265 0.408499 17.5109 0.448884C17.4217 0.48045 17.3331 0.512016 17.2453 0.546367C17.1209 0.595109 16.9975 0.645707 16.8763 0.700947C16.8095 0.73112 16.744 0.764543 16.6781 0.796573C16.4367 0.913088 16.2032 1.04074 15.9771 1.18093C15.9289 1.21064 15.8792 1.23849 15.8314 1.2696C15.7153 1.3448 15.6035 1.42418 15.4916 1.50541C15.4257 1.55322 15.3607 1.60197 15.2962 1.65163C15.1908 1.73287 15.0863 1.81503 14.9851 1.90138C14.9197 1.95754 14.857 2.01743 14.7934 2.07592C14.63 2.22539 14.4736 2.3809 14.3232 2.54337C14.2568 2.61532 14.1895 2.68634 14.1254 2.76062C14.0447 2.85439 13.9676 2.95094 13.8915 3.04889C13.8325 3.12455 13.7754 3.20115 13.7193 3.27913C13.645 3.38218 13.5707 3.48477 13.5011 3.59108C13.4593 3.65514 13.4212 3.72245 13.3813 3.7879C13.2453 4.00979 13.1209 4.23817 13.0072 4.47353C12.9844 4.52087 12.9584 4.56637 12.9361 4.61464C12.9347 4.61789 12.9352 4.62207 12.9338 4.62532C12.478 5.6215 12.2171 6.72538 12.2171 7.89145C12.2171 8.07203 12.2324 8.24889 12.244 8.42668C12.244 8.42807 12.2436 8.42993 12.2436 8.43132C12.2436 8.43457 12.2445 8.43736 12.2445 8.44061C12.2617 8.68663 12.2904 8.92848 12.3294 9.16801C12.3317 9.18147 12.3331 9.19494 12.3355 9.20793C12.3754 9.44282 12.4255 9.67353 12.4854 9.90099C12.4896 9.9177 12.4938 9.93395 12.4984 9.95066C12.5592 10.1753 12.6298 10.3954 12.7096 10.6112C12.7161 10.6284 12.7221 10.646 12.7286 10.6632C12.8094 10.8777 12.8995 11.0875 12.9979 11.2927C13.0058 11.3094 13.0141 11.3266 13.022 11.3433C13.1223 11.548 13.2304 11.7471 13.3474 11.9416C13.3562 11.9565 13.3655 11.9713 13.3744 11.9862C13.4514 12.112 13.5266 12.2387 13.6102 12.3599C13.6139 12.3659 13.6157 12.3729 13.6199 12.3789C13.7346 12.5442 13.8567 12.7025 13.982 12.8575C14.014 12.8965 14.0465 12.935 14.079 12.9736C14.2178 13.1383 14.3612 13.2985 14.5121 13.4503C14.52 13.4582 14.5274 13.4665 14.5353 13.4744C14.6941 13.6327 14.8603 13.7813 15.0311 13.9252C15.0705 13.9581 15.1095 13.9911 15.1495 14.0236C15.318 14.1601 15.4907 14.2905 15.6689 14.4121C15.7056 14.4372 15.7441 14.4599 15.7812 14.4845C15.933 14.5843 16.0885 14.6786 16.2468 14.7677C16.2998 14.7974 16.3517 14.8285 16.4056 14.8573C16.5843 14.9524 16.7672 15.0402 16.9534 15.1214C17.0197 15.1507 17.087 15.1776 17.1544 15.205C17.1674 15.2101 17.1799 15.2157 17.1929 15.2208C16.4223 15.4199 15.7084 15.6924 15.0794 16.0299L3.88093 7.02525C3.36427 6.60979 2.71717 6.43061 2.06125 6.52113C1.40441 6.61118 0.830188 6.95794 0.444899 7.49781C0.069359 8.02375 -0.0754724 8.66389 0.037329 9.30031C0.149202 9.93627 0.504782 10.4877 1.03769 10.8526ZM16.7705 26.5046C16.7268 26.5352 16.6799 26.5598 16.6344 26.5868C16.5685 26.6267 16.5012 26.6638 16.4316 26.6973C16.3582 26.7307 16.2835 26.7608 16.2069 26.7864C16.1735 26.798 16.1391 26.8077 16.1053 26.8179C15.6652 26.9424 15.1875 26.9382 14.7479 26.8022C14.7331 26.7975 14.7178 26.7933 14.7034 26.7882C14.6133 26.7581 14.5256 26.7205 14.4397 26.6791C14.3905 26.655 14.3427 26.6286 14.2953 26.6007C14.2331 26.565 14.1709 26.5287 14.112 26.4865C14.1004 26.4781 14.0906 26.4679 14.079 26.4591C14.8621 25.8909 16.0115 25.8965 16.7978 26.4823C16.7876 26.4893 16.7802 26.4981 16.7705 26.5046ZM15.4229 25.0958C14.7122 25.0958 14.0242 25.3371 13.4635 25.7656C13.2667 25.4263 13.1455 25.0373 13.1455 24.6172C13.1455 24.1906 13.2699 23.796 13.4723 23.4529C14.0363 23.8916 14.7321 24.1386 15.4521 24.1386C16.1712 24.1386 16.8661 23.8921 17.4296 23.4548C17.4408 23.4738 17.4533 23.4924 17.464 23.5124C17.4909 23.5611 17.5201 23.608 17.5438 23.659C17.5819 23.7421 17.6107 23.8303 17.639 23.9185C17.6557 23.9701 17.6743 24.0211 17.6873 24.074C17.7095 24.166 17.7216 24.2611 17.7323 24.3567C17.742 24.4435 17.7588 24.528 17.7588 24.6172C17.7588 25.0498 17.6316 25.4509 17.4231 25.7972C16.8559 25.3487 16.1526 25.0958 15.4229 25.0958ZM14.1101 22.7492C14.2043 22.6814 14.3046 22.6257 14.4058 22.5733C14.4188 22.5663 14.4313 22.5589 14.4448 22.5519C14.5177 22.5176 14.5924 22.4883 14.6685 22.4619C14.7048 22.4484 14.7414 22.4363 14.7786 22.4247C15.2247 22.2943 15.7093 22.2952 16.1535 22.4312C16.1628 22.434 16.1721 22.4368 16.1809 22.4396C16.271 22.4684 16.3582 22.506 16.4441 22.5459C16.4734 22.5598 16.5017 22.5751 16.5305 22.5904C16.5527 22.6025 16.5755 22.6141 16.5973 22.6267C16.6512 22.6568 16.7041 22.6884 16.7551 22.7232C16.7732 22.7357 16.79 22.7511 16.8076 22.7645C16.0226 23.3374 14.877 23.3369 14.0929 22.7627C14.099 22.759 14.1041 22.7534 14.1101 22.7492ZM14.553 21.5112C14.5492 21.5121 14.546 21.514 14.5423 21.5149C14.4587 21.5395 14.3775 21.5683 14.2972 21.5994C14.2749 21.6077 14.2522 21.6147 14.2303 21.624C14.2011 21.636 14.1723 21.649 14.1435 21.6616C14.1431 21.6616 14.1426 21.662 14.1421 21.662C14.053 21.702 13.9653 21.7447 13.8803 21.792C13.399 21.2169 13.1469 20.5883 13.1455 19.9561C13.1455 19.8247 13.158 19.6947 13.1785 19.5662C13.184 19.5323 13.1915 19.4998 13.1984 19.4668C13.2165 19.3754 13.2397 19.2849 13.2676 19.1953C13.2815 19.1507 13.2954 19.1057 13.3117 19.0625C13.3377 18.9919 13.3697 18.9228 13.4013 18.8536C13.4184 18.8174 13.4333 18.7793 13.4514 18.7441C13.456 18.7366 13.4639 18.732 13.4681 18.7241C13.5424 18.583 13.6348 18.4391 13.7504 18.284C13.7559 18.2761 13.7578 18.2669 13.762 18.2585C13.8065 18.2 13.8525 18.1448 13.8994 18.0905C13.9435 18.0385 13.9973 17.9842 14.0512 17.9289L14.0553 17.9252C14.0864 17.8927 14.1208 17.8644 14.1528 17.8324C14.7094 18.4781 15.0023 19.2036 15.0023 19.9524C15.0023 20.4862 14.851 21.0098 14.553 21.5112ZM18.6319 24.0378C18.6157 23.9478 18.5948 23.86 18.5711 23.7728C18.5692 23.7658 18.5674 23.7584 18.5655 23.7514C18.5428 23.6702 18.5168 23.5903 18.488 23.5119C18.4829 23.498 18.4783 23.484 18.4727 23.4706C18.4444 23.3958 18.4133 23.323 18.3799 23.251C18.3724 23.2352 18.3645 23.2194 18.3571 23.2037C18.3228 23.1336 18.287 23.0649 18.248 22.9976C18.2392 22.9827 18.2304 22.9683 18.2216 22.9535C18.1807 22.8857 18.1389 22.8193 18.0934 22.7552C18.0869 22.7464 18.08 22.7381 18.0739 22.7288C18.0057 22.6341 17.9324 22.544 17.8544 22.4572C17.8521 22.4544 17.8511 22.4507 17.8488 22.4484C17.84 22.4387 17.8298 22.4303 17.821 22.421C17.7615 22.357 17.7003 22.2961 17.6357 22.2372C17.6181 22.2209 17.6009 22.2052 17.5828 22.1894C17.515 22.1295 17.4445 22.0733 17.3716 22.0195C17.3586 22.0097 17.3456 21.9991 17.3326 21.9898C17.3219 21.9819 17.3113 21.974 17.3006 21.9666C17.2486 21.9299 17.1943 21.8965 17.14 21.863C17.1103 21.8445 17.0805 21.8259 17.0499 21.8083C16.9993 21.7795 16.9473 21.7526 16.8949 21.7261C16.8577 21.7075 16.8211 21.6894 16.783 21.6723C16.776 21.669 16.7691 21.6653 16.7616 21.662C16.7612 21.662 16.7607 21.6616 16.7602 21.6616C16.718 21.643 16.6748 21.6258 16.6317 21.6087C16.588 21.5915 16.5444 21.5757 16.4998 21.5604C16.4516 21.5437 16.4033 21.5274 16.3541 21.5135C16.303 21.4986 16.251 21.4861 16.199 21.4736C16.1545 21.4629 16.1099 21.4518 16.0644 21.4429C16.0017 21.4309 15.9381 21.4225 15.8741 21.4137C15.8467 21.41 15.8198 21.4039 15.7924 21.4012C15.7915 21.4012 15.7905 21.4007 15.7896 21.4007C15.7808 21.3998 15.7715 21.3993 15.7627 21.3984C15.7204 21.3942 15.6777 21.3933 15.6355 21.3909C15.8249 20.9244 15.9307 20.4444 15.9307 19.9524C15.9307 18.9803 15.5626 18.0529 14.8649 17.2405C14.8997 17.2168 14.9304 17.1941 14.967 17.1695C15.0631 17.1054 15.1592 17.0418 15.2618 16.9819C15.2864 16.9676 15.3073 16.949 15.3286 16.9309C16.5774 16.2216 18.2573 15.7829 20.1085 15.7829C22.2081 15.7829 24.0896 16.346 25.367 17.2308C24.6596 18.0468 24.2864 18.9813 24.2864 19.9607C24.2864 20.9402 24.6596 21.8746 25.367 22.6907C24.9785 22.96 24.5366 23.1999 24.0464 23.4028C24.0236 23.4084 24.0004 23.4121 23.9781 23.4209C23.3069 23.6943 22.5646 23.893 21.7718 24.0118C21.769 24.0123 21.7667 24.0137 21.7639 24.0142C21.2319 24.0926 20.68 24.1386 20.1085 24.1386C19.6248 24.1386 19.13 24.1047 18.6319 24.0378ZM19.3593 14.8104C19.2837 14.802 19.2098 14.789 19.1351 14.7784C19.1346 14.7784 19.1346 14.7784 19.1342 14.7784C18.9624 14.7538 18.7916 14.7241 18.6231 14.6874C18.5484 14.6711 18.4746 14.653 18.4007 14.634C18.3854 14.6303 18.3701 14.6261 18.3548 14.6219C18.2021 14.582 18.0512 14.5356 17.9017 14.4855C17.8446 14.4664 17.7875 14.4483 17.7309 14.4274C17.6938 14.414 17.6562 14.401 17.6195 14.3866C17.4528 14.3225 17.2899 14.251 17.1293 14.1744C17.1228 14.1712 17.1158 14.1689 17.1093 14.1656C17.0624 14.1433 17.0156 14.1215 16.9691 14.0983C16.8912 14.0584 16.8164 14.0134 16.7403 13.9707C16.6326 13.9108 16.5249 13.8514 16.4205 13.7859C16.3035 13.7121 16.1902 13.6327 16.0779 13.5524C16.0036 13.4995 15.9307 13.4456 15.8583 13.3895C15.7399 13.2976 15.623 13.2038 15.5106 13.1045C15.46 13.0599 15.4117 13.0116 15.3625 12.9652C15.2493 12.8589 15.136 12.7526 15.0302 12.6393C15.0283 12.637 15.0265 12.6351 15.0241 12.6328C14.8863 12.4847 14.7549 12.3306 14.63 12.1714C14.6277 12.1686 14.6249 12.1658 14.6226 12.1631C14.5929 12.125 14.5674 12.0832 14.5381 12.0442C14.6147 11.8771 14.7001 11.7137 14.7939 11.5573C15.1225 11.0058 15.532 10.3202 16.2738 10.0393C17.2658 9.66239 18.3112 10.2529 19.5199 10.9371C20.0134 11.2165 20.524 11.5053 21.0629 11.7439C22.3154 12.2981 23.7205 12.5743 25.2621 12.5572C25.212 12.6124 25.1633 12.669 25.1113 12.7229C25.0532 12.7828 24.9943 12.8413 24.9349 12.8993C24.8286 13.0019 24.7199 13.1012 24.6071 13.1968C24.5435 13.2507 24.4781 13.3027 24.4126 13.3542C24.2994 13.4438 24.1842 13.5315 24.0654 13.6142C23.9902 13.6661 23.9132 13.714 23.8361 13.7627C23.7214 13.836 23.6063 13.9085 23.487 13.9753C23.3942 14.0268 23.2986 14.0728 23.2034 14.1201C23.0943 14.1744 22.9857 14.2306 22.8733 14.2794C22.7564 14.33 22.6361 14.3727 22.5164 14.4168C22.4193 14.453 22.3237 14.492 22.2244 14.524C22.0805 14.5699 21.9333 14.6057 21.7862 14.6419C21.7049 14.6623 21.6256 14.6874 21.5434 14.7046C21.3716 14.7408 21.1966 14.7649 21.0212 14.7881C20.959 14.7965 20.8982 14.8099 20.835 14.8164C20.5955 14.841 20.3532 14.8545 20.1085 14.8545C19.8565 14.8545 19.6067 14.8373 19.3593 14.8104ZM26.8933 19.0347C26.9184 19.0987 26.9384 19.1656 26.9588 19.2324C26.9788 19.3002 26.9964 19.3679 27.0108 19.4367C27.021 19.4845 27.0321 19.5318 27.0396 19.581C27.0586 19.7064 27.0716 19.8326 27.0716 19.9607C27.0716 20.0889 27.0586 20.2151 27.0396 20.3405C27.0321 20.3897 27.021 20.437 27.0108 20.4848C26.9964 20.5535 26.9788 20.6213 26.9588 20.6891C26.9384 20.7559 26.9184 20.8228 26.8933 20.8868C26.8873 20.9026 26.8794 20.9175 26.8734 20.9332C26.684 21.3928 26.3827 21.7818 26.0726 22.0905C25.51 21.4425 25.2148 20.7132 25.2148 19.9607C25.2148 19.2083 25.51 18.479 26.0726 17.8314C26.3827 18.1397 26.684 18.5287 26.8734 18.9887C26.8794 19.004 26.8873 19.0193 26.8933 19.0347ZM24.0891 24.3744L24.9465 24.9816C25.0249 25.0373 25.1187 25.067 25.2148 25.067H25.679C26.191 25.067 26.6074 25.4834 26.6074 25.9954C26.6074 26.5074 26.191 26.9238 25.679 26.9238C25.167 26.9238 24.7506 26.5074 24.7506 25.9954C24.7506 25.8352 24.6679 25.6862 24.5319 25.6013L23.0753 24.6933C23.0948 24.6882 23.1124 24.6808 23.1314 24.6756C23.409 24.6009 23.6773 24.5155 23.9378 24.4217C23.987 24.4046 24.0403 24.3925 24.0891 24.3744ZM25.9942 11.5953C24.2975 11.7142 22.7643 11.4816 21.439 10.8948C20.9413 10.6744 20.4516 10.3972 19.9772 10.1289C18.6839 9.39733 17.3465 8.63929 15.9446 9.17126C14.9002 9.56676 14.3566 10.478 13.9964 11.0815C13.9843 11.1014 13.9746 11.1232 13.9625 11.1437C13.5637 10.3926 13.2964 9.5598 13.197 8.67503C15.2214 7.6937 17.3716 7.06007 19.5924 6.78944C22.0884 6.48585 24.5914 6.64785 27.0377 7.26989C27.04 7.2931 27.041 7.31399 27.0428 7.33673C27.0581 7.52056 27.0716 7.70438 27.0716 7.89145C27.0716 9.25343 26.6728 10.5212 25.9942 11.5953ZM26.8757 6.27974C24.4419 5.70877 21.9584 5.56626 19.4814 5.86799C17.2904 6.13444 15.1671 6.74209 13.1571 7.67096C13.1826 6.85535 13.3479 6.07549 13.632 5.35319C14.0674 5.44882 14.4912 5.49802 14.9016 5.49802C15.3653 5.49802 15.8119 5.43675 16.238 5.3142C17.1367 5.0561 17.6993 4.59979 18.4119 4.02278C18.7939 3.71316 19.2275 3.36222 19.8017 2.9644C20.6735 2.36094 21.6126 1.835 22.592 1.394C24.7167 2.20914 26.34 4.033 26.8757 6.27974ZM14.2819 4.09056C14.3427 3.99725 14.4081 3.90766 14.4736 3.81807C14.5205 3.75355 14.5678 3.68949 14.6166 3.62682C14.6834 3.54094 14.7507 3.45553 14.8213 3.3729C14.8774 3.30745 14.9364 3.24524 14.9949 3.18165C15.117 3.04889 15.2437 2.92123 15.3755 2.79914C15.4303 2.74808 15.4851 2.69748 15.5417 2.64781C15.6281 2.57261 15.7153 2.49881 15.8054 2.42778C15.8551 2.38879 15.9066 2.35212 15.9572 2.31405C16.1248 2.18918 16.2974 2.07174 16.4752 1.96219C16.5281 1.92969 16.5801 1.89673 16.634 1.86563C16.737 1.80575 16.8419 1.74865 16.9478 1.69434C17.0072 1.66417 17.0676 1.63632 17.1279 1.60754C17.2978 1.52676 17.4709 1.45296 17.6469 1.38565C17.73 1.35408 17.8126 1.32205 17.8971 1.29373C17.9909 1.26217 18.086 1.23246 18.1816 1.20507C18.3042 1.16979 18.4277 1.13823 18.553 1.10945C18.638 1.08995 18.7234 1.07045 18.8092 1.05421C18.9726 1.0231 19.1374 0.997573 19.3045 0.97854C19.3654 0.971577 19.4266 0.965078 19.4879 0.959972C19.6931 0.941868 19.8992 0.928406 20.1085 0.928406C20.3202 0.928406 20.5287 0.941404 20.7352 0.959972C20.8378 0.96972 20.9399 0.984111 21.0421 0.998501C21.1015 1.00639 21.1604 1.01614 21.2194 1.02542C20.5444 1.37868 19.8932 1.77186 19.273 2.20125C18.67 2.61857 18.222 2.98158 17.827 3.30141C17.1474 3.85196 16.6985 4.21589 15.9809 4.422C15.3774 4.59515 14.7382 4.61882 14.0391 4.49024C14.1134 4.3584 14.1918 4.22936 14.2735 4.10356C14.2768 4.09938 14.2791 4.09474 14.2819 4.09056ZM1.20016 8.03768C1.43551 7.70809 1.78645 7.49595 2.18752 7.44118C2.25529 7.43143 2.32307 7.42725 2.39037 7.42725C2.71996 7.42725 3.03701 7.5382 3.29928 7.74894L14.2373 16.5423C14.1421 16.6101 14.0507 16.6797 13.962 16.7512C13.9588 16.7536 13.9555 16.7559 13.9523 16.7587L13.9509 16.7596L13.9008 16.8014C13.891 16.8083 13.8789 16.8111 13.8697 16.819C13.6408 17.0098 13.4398 17.2108 13.2574 17.4169C13.2486 17.4267 13.2383 17.4364 13.2295 17.4466C13.1302 17.5241 13.0527 17.6253 12.99 17.7474C12.9649 17.7808 12.938 17.8138 12.9143 17.8477L1.56224 10.0867C1.23683 9.86385 1.02005 9.52731 0.951345 9.13877C0.882179 8.74977 0.970842 8.35891 1.20016 8.03768Z" fill="black"/>
<path d="M21.5008 19.1236V19.961H22.4292V19.2916C22.6776 19.345 22.9426 19.4058 23.2435 19.4824L23.4718 18.5828C23.0842 18.4844 22.7412 18.4059 22.4288 18.3428V17.1758H21.5004V18.1877C21.1689 18.1455 20.8677 18.1237 20.572 18.113V17.1758H19.6436V18.1125C19.3019 18.1237 18.9955 18.1469 18.7151 18.1794V17.1758H17.7867V18.3321C17.4757 18.3976 17.1823 18.4709 16.8862 18.5466L16.7441 18.5828L16.9725 19.4824L17.1155 19.4462C17.343 19.3882 17.5625 19.3325 17.7867 19.2814V19.961H18.7151V19.1152C18.9941 19.0795 19.2973 19.053 19.6436 19.041V19.961H20.572V19.0419C20.8672 19.053 21.1661 19.0772 21.5008 19.1236Z" fill="black"/>
</svg>
