<svg width="13" height="16" viewBox="0 0 13 16" fill="none" xmlns="http://www.w3.org/2000/svg">
<path d="M2.29199 5.29314L1.96662 5.55342L1.75841 5.29314L1.96662 5.03287L2.29199 5.29314ZM4.75847 12.4931C4.52835 12.4931 4.3418 12.3066 4.3418 12.0765C4.3418 11.8464 4.52835 11.6598 4.75847 11.6598L4.75847 12.4931ZM4.4331 8.63675L1.96662 5.55342L2.61736 5.03287L5.08384 8.1162L4.4331 8.63675ZM1.96662 5.03287L4.4331 1.94953L5.08384 2.47009L2.61736 5.55342L1.96662 5.03287ZM2.29199 4.87648L6.79305 4.87648L6.79305 5.70981L2.29199 5.70981L2.29199 4.87648ZM6.79305 12.4931L4.75847 12.4931L4.75847 11.6598L6.79305 11.6598L6.79305 12.4931ZM10.6014 8.68481C10.6014 10.7881 8.89633 12.4931 6.79305 12.4931L6.79305 11.6598C8.43609 11.6598 9.76805 10.3279 9.76805 8.68481L10.6014 8.68481ZM6.79305 4.87648C8.89633 4.87648 10.6014 6.58153 10.6014 8.68481L9.76805 8.68481C9.76805 7.04176 8.43609 5.70981 6.79305 5.70981L6.79305 4.87648Z" fill="black"/>
</svg>
