<svg width="28" height="26" viewBox="0 0 28 26" fill="none" xmlns="http://www.w3.org/2000/svg">
<path d="M27.0526 24.4872L23.7293 21.164C23.6127 21.0474 23.4961 20.9891 23.3212 20.9891H19.4732L17.316 18.8319C17.1994 18.7153 17.0828 18.6569 16.9079 18.6569H11.3108L10.3196 17.6658L9.50338 18.482L12.5934 21.5721L9.67829 24.4872H8.74544V11.6606H10.4945V10.4945H8.74544V4.19781C10.3779 4.78084 11.6606 7.69599 11.6606 11.0776V11.6606H15.7418C16.0916 11.6606 16.3248 11.4274 16.3248 11.0776C16.3248 6.76314 13.0016 3.26497 8.74544 2.97345V1.74909H7.57939V2.97345C3.32327 3.26497 0 6.76314 0 11.0776C0 11.4274 0.233212 11.6606 0.58303 11.6606H7.57939V24.4872H0V25.6533H27.9854V24.4872H27.0526ZM15.1588 10.4945H12.8267C12.71 8.16242 12.127 6.12181 11.1359 4.78084C13.3514 5.77199 14.9256 7.9292 15.1588 10.4945ZM5.18896 4.78084C4.19781 6.12181 3.61478 8.16242 3.49818 10.4945H1.16606C1.39927 7.9292 2.97345 5.77199 5.18896 4.78084ZM4.66424 10.4945C4.78084 7.34617 6.00521 4.72254 7.57939 4.19781V10.4945H4.66424ZM16.6746 19.823L17.8407 20.9891H13.6429L12.4768 19.823H16.6746ZM13.6429 22.1551H23.088L25.4201 24.4872H11.3108L13.6429 22.1551ZM14.8673 3.20666L14.051 2.39042C15.5669 0.874545 17.6658 0 19.823 0C21.9802 0 24.0791 0.874545 25.595 2.39042C28.8017 5.59708 28.8017 10.7277 25.595 13.9344C24.0208 15.5086 21.9219 16.3248 19.823 16.3248C17.7241 16.3248 15.6252 15.5086 14.051 13.9344L14.8673 13.1182C17.6075 15.8584 22.0385 15.8584 24.7788 13.1182C27.519 10.3779 27.519 5.9469 24.7788 3.20666C23.4378 1.86569 21.6887 1.16606 19.823 1.16606C17.9573 1.16606 16.2082 1.86569 14.8673 3.20666ZM0 16.9079V15.7418C0.874544 15.7418 1.69079 16.1499 2.21551 16.7913C2.91515 15.4503 4.25612 14.5757 5.8303 14.5757V15.7418C4.19781 15.7418 2.91515 17.0245 2.91515 18.6569H1.74909C1.74909 17.6658 0.99115 16.9079 0 16.9079ZM19.823 8.74545C19.823 7.75429 19.0651 6.99636 18.0739 6.99636V5.8303C18.9485 5.8303 19.7647 6.23842 20.2894 6.87975C20.9891 5.53878 22.33 4.66424 23.9042 4.66424V5.8303C22.2717 5.8303 20.9891 7.11296 20.9891 8.74545H19.823Z" fill="black"/>
</svg>
