<svg width="18" height="18" viewBox="0 0 18 18" fill="none" xmlns="http://www.w3.org/2000/svg">
<path d="M15.6008 7.85878H8.75397V10.7935H12.6347C12.0142 12.75 10.4818 13.4018 8.72259 13.4018C8.04086 13.4027 7.36899 13.2391 6.76398 12.9249C6.15896 12.6108 5.63865 12.1553 5.2472 11.5972C4.85575 11.039 4.60471 10.3947 4.51537 9.71885C4.42603 9.04301 4.50103 8.35558 4.73401 7.7149C4.96699 7.07423 5.35107 6.4992 5.85367 6.03861C6.35627 5.57803 6.96256 5.24547 7.62109 5.06916C8.27962 4.89285 8.97096 4.87798 9.63646 5.02583C10.302 5.17368 10.922 5.47987 11.4439 5.91844L13.5761 3.88753C12.7175 3.09655 11.6787 2.5271 10.55 2.22862C9.42137 1.93015 8.2369 1.91167 7.09947 2.17479C5.96204 2.43791 4.90603 2.97467 4.0231 3.73849C3.14017 4.5023 2.45701 5.47008 2.03294 6.5578C1.60886 7.64552 1.45669 8.82031 1.58962 9.98019C1.72256 11.1401 2.13659 12.25 2.79576 13.2135C3.45494 14.1771 4.33934 14.9652 5.37219 15.5095C6.40504 16.0537 7.55512 16.3376 8.72259 16.3366C12.6777 16.3366 16.2544 13.7282 15.6008 7.85878Z" fill="#FCFCFD"/>
</svg>
