<svg width="141" height="211" viewBox="0 0 141 211" fill="none" xmlns="http://www.w3.org/2000/svg">
<rect x="0.133301" y="0.12793" width="140.052" height="210.391" rx="61.8981" fill="#636363"/>
<mask id="mask0_4028_692" style="mask-type:alpha" maskUnits="userSpaceOnUse" x="0" y="0" width="141" height="211">
<rect x="0.133301" y="0.12793" width="140.052" height="210.391" rx="61.8981" fill="#FDFEFF"/>
</mask>
<g mask="url(#mask0_4028_692)">
<path d="M118.22 101.949L120.577 102.471C122.827 102.968 124.285 105.15 123.886 107.42L110.533 183.225C110.468 183.591 110.357 183.946 110.202 184.282L85.9722 236.785C85.2687 238.309 83.7431 239.285 82.0643 239.285H44.6486C41.6347 239.285 39.5541 236.267 40.6262 233.451L88.5473 107.541C89.0438 106.237 90.1423 105.254 91.494 104.905L96.6026 103.586C97.1788 103.438 97.7795 103.41 98.3669 103.505L108.8 105.196C109.853 105.367 110.931 105.14 111.827 104.561L114.952 102.538C115.919 101.913 117.096 101.701 118.22 101.949Z" fill="#F4B400"/>
<path d="M109.613 109.056L77.7581 190.566" stroke="black" stroke-width="1.07597"/>
<path d="M118.378 186.156L102.076 226.258L99.3502 236.127C98.8349 237.993 97.1374 239.285 95.2016 239.285H85.5366C82.3659 239.285 80.2837 235.973 81.6581 233.116L106.942 180.549C107.095 180.231 107.208 179.894 107.279 179.548L122.06 107.392C122.588 104.814 125.331 103.327 127.802 104.231C129.732 104.937 130.928 106.921 130.609 108.952L118.642 185.203C118.591 185.53 118.502 185.85 118.378 186.156Z" fill="#1E2736"/>
</g>
</svg>
