<svg width="28" height="33" viewBox="0 0 28 33" fill="none" xmlns="http://www.w3.org/2000/svg">
<path d="M26.8 8H21.6V7.6C21.6 5.58435 20.7993 3.65126 19.374 2.22599C17.9487 0.800712 16.0156 0 14 0C11.9844 0 10.0513 0.800712 8.62599 2.22599C7.20071 3.65126 6.4 5.58435 6.4 7.6V8H1.2C0.88174 8 0.576516 8.12643 0.351472 8.35147C0.126429 8.57652 0 8.88174 0 9.2V28.4C0 29.5669 0.46357 30.6861 1.28873 31.5113C2.11389 32.3364 3.23305 32.8 4.4 32.8H23.6C24.767 32.8 25.8861 32.3364 26.7113 31.5113C27.5364 30.6861 28 29.5669 28 28.4V9.2C28 8.88174 27.8736 8.57652 27.6485 8.35147C27.4235 8.12643 27.1183 8 26.8 8ZM8.8 7.6C8.8 6.22087 9.34786 4.89823 10.323 3.92305C11.2982 2.94786 12.6209 2.4 14 2.4C15.3791 2.4 16.7018 2.94786 17.677 3.92305C18.6521 4.89823 19.2 6.22087 19.2 7.6V8H8.8V7.6ZM25.6 28.4C25.6 28.9304 25.3893 29.4391 25.0142 29.8142C24.6391 30.1893 24.1304 30.4 23.6 30.4H4.4C3.86957 30.4 3.36086 30.1893 2.98579 29.8142C2.61071 29.4391 2.4 28.9304 2.4 28.4V10.4H6.4V14C6.4 14.3183 6.52643 14.6235 6.75147 14.8485C6.97652 15.0736 7.28174 15.2 7.6 15.2C7.91826 15.2 8.22348 15.0736 8.44853 14.8485C8.67357 14.6235 8.8 14.3183 8.8 14V10.4H19.2V14C19.2 14.3183 19.3264 14.6235 19.5515 14.8485C19.7765 15.0736 20.0817 15.2 20.4 15.2C20.7183 15.2 21.0235 15.0736 21.2485 14.8485C21.4736 14.6235 21.6 14.3183 21.6 14V10.4H25.6V28.4Z" fill="black"/>
</svg>
