<svg width="28" height="29" viewBox="0 0 28 29" fill="none" xmlns="http://www.w3.org/2000/svg">
<path fill-rule="evenodd" clip-rule="evenodd" d="M27.8145 4.71665C27.4618 4.16139 26.7231 3.99643 26.1675 4.34921L21.8613 7.08463C21.9548 6.71827 21.9443 6.34894 21.8481 6.00811C23.1096 5.27346 24.1185 3.94666 24.3336 2.56793C24.3781 2.28281 24.1316 2.03607 23.8464 2.08071C23.2105 2.17991 22.572 2.44923 21.9875 2.85764C22.0489 2.14732 21.9629 1.4597 21.7309 0.859279C21.627 0.590453 21.2896 0.500047 21.0652 0.680966C20.5641 1.08492 20.1458 1.63741 19.8439 2.28322C19.5419 1.63735 19.1237 1.08488 18.6225 0.680921C18.3981 0.50003 18.0609 0.590549 17.9569 0.859291C17.7249 1.45967 17.6389 2.14722 17.7004 2.85761C17.1159 2.44926 16.4775 2.17989 15.8415 2.08068C15.5561 2.03601 15.3097 2.28284 15.3543 2.5679C15.5698 3.94691 16.5778 5.27312 17.8395 6.0079C17.5092 7.18036 18.2573 8.38643 19.4518 8.61533L15.3392 11.2278L11.1115 8.44697C10.5105 8.05165 9.90019 7.79364 9.24266 7.66003C9.91007 7.16997 10.2298 6.32296 10.0375 5.50814C11.0555 4.73113 11.8062 3.59952 11.9892 2.42683C12.0337 2.14174 11.7873 1.89491 11.502 1.93962C11.0471 2.01061 10.5829 2.17351 10.1384 2.41309C10.2249 1.6526 10.1438 0.913048 9.89627 0.272686C9.79242 0.00390989 9.4551 -0.0866263 9.23066 0.094247C8.72943 0.498159 8.31114 1.05063 8.00922 1.6965C7.70725 1.05063 7.28901 0.498159 6.78784 0.0942016C6.5635 -0.0866547 6.22617 0.00377913 6.12222 0.272572C5.89016 0.872999 5.80427 1.56062 5.8657 2.27094C5.28121 1.86255 4.64278 1.59322 4.00681 1.49401C3.72124 1.44929 3.47507 1.6964 3.51959 1.98125C3.73508 3.36029 4.7431 4.68631 6.00478 5.42125C5.75782 6.29814 6.11575 7.20493 6.825 7.69641C6.23016 7.83809 5.67164 8.08484 5.12104 8.44705L0.536672 11.4624C-0.0120908 11.8233 -0.165491 12.5663 0.195448 13.1151C0.556989 13.6648 1.29847 13.8177 1.84816 13.4562L5.63381 10.9662C5.82738 11.3118 5.94455 11.6649 5.98989 12.0365C6.05706 12.5868 5.96464 13.1746 5.70724 13.8324C5.12781 14.7485 4.9063 15.6108 5.04892 16.3957C5.17018 17.063 5.93626 18.0972 6.41956 18.859L6.01628 19.2445C5.01467 20.193 4.15926 21.3229 3.47386 22.6029C3.20178 23.111 3.57799 23.7174 4.13981 23.7174C4.25835 23.7174 4.37802 23.6893 4.48917 23.6317C5.63075 23.0397 6.69487 22.3628 7.65699 21.6199L9.23519 27.5922C9.42426 28.3077 10.427 28.3515 10.6782 27.6561C11.2611 26.0422 11.1811 24.5019 10.7512 22.6358C10.5145 21.6086 10.1824 20.5467 9.87639 19.6065C10.0878 19.3809 10.293 19.1506 10.4914 18.916C11.0331 18.2754 11.1234 17.4221 10.727 16.689C10.1243 15.5747 10.073 15.1868 10.0988 13.8685C10.1118 13.2003 10.863 13.034 10.9195 12.082C10.9363 11.7978 10.8601 11.4854 10.7093 11.0389L13.8211 13.0856C13.9779 13.9125 14.9237 14.3192 15.6324 13.869L18.6063 11.98C18.5082 13.4089 18.5567 14.8975 18.7509 16.4119L18.4491 16.6201C17.31 17.3981 16.2865 18.3784 15.4072 19.5338C14.957 20.1252 15.5453 20.9423 16.2469 20.7102C17.2023 20.3942 18.1196 20.0199 18.9849 19.5935L19.7668 27.4331C19.8406 28.1715 20.825 28.3684 21.1816 27.7243C22.4582 25.4185 21.8052 20.8559 21.423 18.1603C21.944 17.7988 22.4444 17.4126 22.92 17.0038C23.5523 16.4605 23.7767 15.633 23.5057 14.8446C23.4056 14.5533 23.1827 13.4518 23.0227 12.3368C22.7971 10.7643 22.8224 10.0979 22.8752 9.94115C23.9611 8.42728 24.9713 7.8355 26.2487 7.08724C26.6278 6.86524 27.0197 6.63567 27.4476 6.36378C28.0023 6.01138 28.1669 5.27117 27.8145 4.71665ZM22.3333 4.56181C22.0652 4.82988 21.7656 5.0639 21.4531 5.25069C21.4048 5.1916 21.3532 5.13505 21.2984 5.08141C21.4443 4.82653 21.5695 4.55619 21.6728 4.27195C21.7308 4.2071 21.7905 4.14288 21.8524 4.08099C22.2846 3.64887 22.7905 3.3134 23.3036 3.11068C23.1009 3.62386 22.7654 4.12971 22.3333 4.56181ZM21.1102 1.84438C21.2467 2.76348 21.0418 3.78961 20.5782 4.62178L20.359 4.55312C20.3578 4.25963 20.3311 3.96305 20.2785 3.66546C20.2963 3.58031 20.3159 3.49483 20.3386 3.41013C20.4968 2.82004 20.7671 2.27648 21.1102 1.84438ZM18.5776 1.84438C19.1555 2.57241 19.491 3.56343 19.5055 4.51626C19.4298 4.52884 19.355 4.54539 19.2816 4.56609C19.1338 4.31235 18.9623 4.06879 18.7678 3.83722C18.7407 3.75453 18.7149 3.67068 18.6922 3.5861C18.5342 2.99603 18.4966 2.39003 18.5776 1.84438ZM17.3545 4.56177C16.9223 4.12971 16.5869 3.62388 16.3842 3.1107C17.2489 3.45223 18.0352 4.14315 18.5241 4.96123C18.4187 5.04746 18.3215 5.14415 18.2341 5.25035C17.9219 5.06361 17.6224 4.82973 17.3545 4.56177ZM18.6565 6.2523C18.8344 5.58861 19.5164 5.21 20.162 5.383C20.8168 5.55843 21.2067 6.23381 21.0313 6.88857C20.8558 7.54326 20.1804 7.93323 19.5257 7.7578C18.871 7.58238 18.4811 6.907 18.6565 6.2523ZM9.98889 4.42065C9.88405 4.52542 9.77491 4.62457 9.66234 4.71775C9.60147 4.63789 9.53532 4.56309 9.46434 4.49358C9.62075 4.22022 9.75324 3.92898 9.86056 3.62212C10.2059 3.34044 10.5806 3.11794 10.9594 2.96879C10.7567 3.48218 10.4211 3.98842 9.98889 4.42065ZM9.27544 1.25766C9.4115 2.17389 9.20675 3.20775 8.74412 4.03506L8.52427 3.96647C8.52313 3.67298 8.49628 3.3764 8.44374 3.07886C8.4616 2.99364 8.48116 2.90815 8.50387 2.82346C8.66203 2.23321 8.93239 1.68976 9.27544 1.25766ZM6.74279 1.25766C7.31885 1.98335 7.65856 2.9814 7.67129 3.9295C7.59535 3.94212 7.5204 3.95869 7.44679 3.97944C7.29902 3.72564 7.12742 3.48214 6.93305 3.25064C6.90575 3.16747 6.87998 3.08352 6.85746 2.99945C6.6994 2.40925 6.6618 1.80336 6.74279 1.25766ZM5.51971 3.97505C5.08758 3.54299 4.75212 3.0371 4.54944 2.52392C5.41376 2.86532 6.20062 3.55655 6.68939 4.37445C6.58399 4.46068 6.48678 4.55737 6.39941 4.66357C6.08696 4.47685 5.78749 4.24296 5.51971 3.97505ZM6.82168 5.66552C7.10404 4.61199 8.52694 4.42207 9.07367 5.36901C9.61785 6.31152 8.74733 7.45397 7.6909 7.17095C7.03624 6.99566 6.64627 6.32028 6.82168 5.66552ZM10.234 25.5737C10.2041 26.0912 10.1177 26.5896 9.9766 27.0596L8.38316 21.0296C8.66307 20.7905 8.93622 20.5445 9.2003 20.2906C9.72286 21.9249 10.3258 23.9893 10.234 25.5737ZM10.1103 9.62369C9.76996 9.39948 9.33666 9.74061 9.47429 10.1242C9.69551 10.7407 10.086 11.718 10.0674 12.0313C10.0332 12.6092 9.26546 12.8271 9.24542 13.8517C9.21846 15.2315 9.2692 15.7874 9.97621 17.0947C10.2018 17.5119 10.1495 17.9986 9.8397 18.3649C8.32072 20.1612 6.48329 21.5935 4.38108 22.7237C4.99528 21.6403 5.74171 20.6794 6.60419 19.8626L8.21782 18.32C8.55972 17.9931 8.68611 17.5264 8.55609 17.0715L8.22812 15.9252C8.16327 15.6987 7.92704 15.5676 7.70067 15.6324C7.47417 15.6973 7.34307 15.9334 7.40785 16.1599L7.73582 17.3062C7.77842 17.4551 7.7402 17.5962 7.6282 17.7033L7.04762 18.2584C6.67446 17.6833 5.96572 16.6697 5.88818 16.243C5.78363 15.6673 5.97196 14.9992 6.44794 14.2575C6.46261 14.2346 6.47508 14.2104 6.48514 14.1851C7.0674 12.7245 7.00576 11.377 6.10676 10.1236C5.97326 9.93759 5.71685 9.89009 5.52567 10.0159L1.37918 12.7432C1.12821 12.9083 0.798662 12.6885 0.860144 12.3906C0.878618 12.3011 0.930169 12.2246 1.00542 12.1751L5.58984 9.15969C6.37389 8.64397 7.17629 8.40369 8.11755 8.40369C9.05606 8.40369 9.85842 8.64395 10.6426 9.15974L14.5495 11.7294C14.3255 11.8717 14.1665 11.956 14.0085 12.1876L10.1103 9.62369ZM21.0623 22.8835C21.1351 24.7088 20.9735 26.0939 20.5817 27.0092L19.7995 19.1674L20.634 18.6782C20.8038 19.8889 21.0037 21.4178 21.0623 22.8835ZM27.1384 5.43032C27.1184 5.51952 27.0657 5.59522 26.9897 5.64346C25.1318 6.82372 23.6917 7.32861 22.1678 9.46289C22.057 9.61811 21.8263 9.94097 22.1614 12.3426C22.319 13.4719 22.56 14.7186 22.6985 15.1217C22.8535 15.5727 22.7251 16.0459 22.3634 16.3566C20.5791 17.8899 18.5385 19.0133 16.2838 19.7966C17.0617 18.824 17.9508 17.9933 18.9317 17.3234L20.769 16.0556C21.1584 15.7869 21.3572 15.3461 21.3007 14.8765L21.1583 13.6926C21.1302 13.4587 20.9173 13.2914 20.6838 13.32C20.4499 13.3481 20.283 13.5606 20.3112 13.7945L20.4536 14.9784C20.4721 15.1322 20.412 15.2654 20.2844 15.3534L19.545 15.8636C19.3933 14.4762 19.3691 13.1161 19.4741 11.8113C19.5198 11.2425 18.8417 10.8194 18.3136 11.1548L15.1746 13.1488C14.9213 13.3097 14.5949 13.0849 14.6613 12.7879C14.6812 12.6987 14.734 12.623 14.81 12.5748L26.625 5.06956C26.8739 4.91144 27.2054 5.12923 27.1384 5.43032Z" fill="black"/>
</svg>
