<svg width="314" height="608" viewBox="0 0 314 608" fill="none" xmlns="http://www.w3.org/2000/svg">
<path d="M154.752 382.277C132.908 378.061 115.474 372.815 115.812 370.56C116.151 368.305 134.134 369.894 155.979 374.109C177.824 378.325 195.258 383.571 194.919 385.826C194.58 388.081 176.597 386.492 154.752 382.277Z" fill="#DD2C2C"/>
<path d="M115.492 253.902C115.382 252.819 115.355 251.728 115.412 250.64C118.151 239.993 141.175 214.872 154.477 200.237C158.676 196.239 164.328 194.146 170.109 194.449L173.736 194.639C184.938 195.226 193.721 204.502 193.729 215.753L193.841 374.822L193.811 374.809L185.426 388.099C183.633 390.941 182.401 394.101 181.799 397.407L152.527 558.06L62.9728 553.366L133.405 366.068C134.485 363.196 135.148 360.173 135.176 357.105C135.501 321.997 119.068 289.016 115.492 253.902Z" fill="#F39E7C"/>
<path d="M58.5159 536.087L140.275 549.775L194.903 549.775C194.818 505.224 194.89 390.039 194.903 385.825C193.595 386.429 190.64 386.594 186.594 386.426C177.418 386.04 162.658 383.896 148.94 381.104C148.839 381.08 148.736 381.062 148.632 381.04C141.221 379.524 134.125 377.82 128.403 376.101C128.322 376.08 128.24 376.056 128.161 376.03C127.164 375.728 126.21 375.427 125.305 375.127C120.488 373.538 117.041 371.97 115.799 370.554C115.801 370.558 115.796 370.564 115.794 370.57C115.625 371.279 64.0649 512.785 58.5159 536.087Z" fill="#FF4945"/>
<path d="M111.889 427.497L112.21 428.326C113.243 425.244 114.131 422.121 114.962 418.983C115.968 415.238 116.86 411.454 117.68 407.654C118.493 403.847 119.244 400.025 119.862 396.169C120.496 392.314 121.045 388.436 121.327 384.5C120.134 388.208 119.116 391.951 118.161 395.71C117.196 399.47 116.319 403.251 115.497 407.048C114.68 410.847 113.919 414.661 113.258 418.504C112.739 421.483 112.259 424.472 111.889 427.497Z" fill="#DD2C2C"/>
<path d="M138.249 387.545C138.144 391.492 137.767 395.398 137.308 399.282C136.863 403.17 136.285 407.032 135.643 410.878C134.994 414.724 134.272 418.549 133.434 422.354C132.608 426.157 131.702 429.944 130.565 433.677C130.784 429.737 131.21 425.847 131.713 421.97C132.2 418.092 132.79 414.241 133.437 410.397C134.089 406.559 134.794 402.729 135.592 398.922C136.377 395.109 137.226 391.316 138.252 387.543L138.249 387.545Z" fill="#DD2C2C"/>
<path d="M155.154 390.594C155.179 394.542 154.938 398.462 154.604 402.363C154.288 406.268 153.841 410.152 153.327 414.021C152.805 417.89 152.214 421.746 151.503 425.583C150.806 429.422 150.024 433.242 149.015 437.02C149.101 433.073 149.399 429.168 149.769 425.275C150.127 421.379 150.59 417.505 151.105 413.639C151.628 409.774 152.206 405.921 152.875 402.078C153.529 398.235 154.255 394.407 155.154 390.594Z" fill="#DD2C2C"/>
<path d="M172.068 393.641C172.315 397.578 172.291 401.507 172.183 405.426C172.086 409.344 171.859 413.252 171.563 417.152C171.263 421.049 170.885 424.942 170.394 428.821C169.914 432.7 169.351 436.572 168.553 440.418C168.417 436.472 168.494 432.552 168.644 428.642C168.782 424.73 169.023 420.828 169.323 416.931C169.628 413.035 169.986 409.148 170.437 405.267C170.877 401.382 171.383 397.513 172.065 393.642L172.068 393.641Z" fill="#DD2C2C"/>
<path d="M188.987 396.686C189.212 400.625 189.165 404.553 189.033 408.47C188.914 412.39 188.667 416.296 188.348 420.194C188.024 424.09 187.625 427.98 187.11 431.855C186.606 435.732 186.022 439.597 185.205 443.435C185.092 439.488 185.192 435.568 185.366 431.66C185.527 427.75 185.791 423.848 186.112 419.954C186.437 416.061 186.818 412.176 187.295 408.299C187.756 404.421 188.284 400.549 188.987 396.686Z" fill="#DD2C2C"/>
<path d="M216.355 213.374L185.854 187.031C182.842 184.43 178.181 186.698 178.369 190.673L181.638 259.714C181.773 262.556 184.463 264.572 187.229 263.901L205.005 259.594C206.648 259.196 207.932 257.917 208.336 256.275L217.792 217.885C218.2 216.23 217.644 214.487 216.355 213.374Z" fill="#EE875D"/>
<path d="M221.927 228.514L191.426 202.172C188.415 199.571 183.753 201.839 183.942 205.814L187.21 274.855C187.345 277.697 190.036 279.712 192.801 279.042L210.578 274.735C212.22 274.337 213.504 273.057 213.909 271.416L223.365 233.025C223.772 231.371 223.217 229.628 221.927 228.514Z" fill="#EE875D"/>
<path d="M227.384 245.768L196.883 219.426C193.872 216.825 189.21 219.093 189.399 223.068L192.667 292.108C192.802 294.95 195.493 296.966 198.258 296.296L216.035 291.989C217.677 291.591 218.962 290.311 219.366 288.67L228.822 250.279C229.229 248.625 228.674 246.882 227.384 245.768Z" fill="#EE875D"/>
<path d="M230.841 260.798L200.34 234.455C197.328 231.854 192.667 234.122 192.855 238.097L196.124 307.138C196.258 309.98 198.949 311.995 201.715 311.325L219.491 307.018C221.134 306.62 222.418 305.34 222.822 303.699L232.278 265.308C232.686 263.654 232.13 261.911 230.841 260.798Z" fill="#EE875D"/>
<rect x="89.644" y="70.1758" width="106.356" height="235.755" transform="rotate(-29.4024 89.644 70.1758)" fill="#F8F8F8"/>
<rect x="157.593" y="31.8848" width="28.3615" height="235.755" transform="rotate(-29.4024 157.593 31.8848)" fill="#032C9E"/>
<g clip-path="url(#clip0_3052_7075)">
<path d="M102.356 75.2196L101.81 75.5273L113.558 96.375L114.104 96.0673L102.356 75.2196Z" fill="black"/>
<path d="M103.326 74.6747L102.78 74.9824L114.528 95.8301L115.074 95.5224L103.326 74.6747Z" fill="black"/>
<path d="M129.019 60.1962L128.473 60.5039L140.221 81.3516L140.767 81.0439L129.019 60.1962Z" fill="black"/>
<path d="M129.982 59.6552L129.436 59.9629L141.184 80.8106L141.73 80.5029L129.982 59.6552Z" fill="black"/>
<path d="M155.675 45.1747L155.128 45.4824L166.877 66.3301L167.423 66.0224L155.675 45.1747Z" fill="black"/>
<path d="M156.63 44.6376L156.084 44.9453L167.832 65.793L168.378 65.4853L156.63 44.6376Z" fill="black"/>
<path d="M106.598 72.8311L105.314 73.5547L117.062 94.4024L118.346 93.6788L106.598 72.8311Z" fill="black"/>
<path d="M110.841 70.4444L109.557 71.168L121.305 92.0157L122.589 91.2921L110.841 70.4444Z" fill="black"/>
<path d="M114.053 68.6292L111.832 69.8809L123.58 90.7286L125.801 89.4769L114.053 68.6292Z" fill="black"/>
<path d="M122.597 63.8186L120.375 65.0703L132.124 85.918L134.345 84.6663L122.597 63.8186Z" fill="black"/>
<path d="M117.654 66.6046L116.37 67.3281L128.118 88.1758L129.402 87.4523L117.654 66.6046Z" fill="black"/>
<path d="M107.672 72.2282L107.03 72.5898L118.778 93.4375L119.42 93.0759L107.672 72.2282Z" fill="black"/>
<path d="M108.734 71.6266L108.092 71.9883L119.841 92.836L120.482 92.4743L108.734 71.6266Z" fill="black"/>
<path d="M115.526 67.7985L114.884 68.1602L126.632 89.0079L127.274 88.6462L115.526 67.7985Z" fill="black"/>
<path d="M119.33 65.6598L118.688 66.0215L130.436 86.8692L131.078 86.5075L119.33 65.6598Z" fill="black"/>
<path d="M124.284 62.8649L123.642 63.2266L135.39 84.0743L136.032 83.7126L124.284 62.8649Z" fill="black"/>
<path d="M125.892 61.9587L125.25 62.3203L136.998 83.168L137.64 82.8064L125.892 61.9587Z" fill="black"/>
<path d="M127.507 61.0524L126.865 61.4141L138.613 82.2618L139.255 81.9001L127.507 61.0524Z" fill="black"/>
<path d="M135.565 56.5069L134.281 57.2305L146.029 78.0782L147.313 77.3546L135.565 56.5069Z" fill="black"/>
<path d="M142.141 52.8019L140.857 53.5254L152.605 74.3731L153.889 73.6495L142.141 52.8019Z" fill="black"/>
<path d="M133.2 57.842L130.979 59.0938L142.727 79.9414L144.948 78.6897L133.2 57.842Z" fill="black"/>
<path d="M146.341 50.4366L145.057 51.1602L156.805 72.0079L158.089 71.2843L146.341 50.4366Z" fill="black"/>
<path d="M152.888 46.7452L151.604 47.4688L163.352 68.3164L164.636 67.5929L152.888 46.7452Z" fill="black"/>
<path d="M137.019 55.6872L136.377 56.0488L148.125 76.8965L148.767 76.5349L137.019 55.6872Z" fill="black"/>
<path d="M138.484 54.863L137.842 55.2246L149.59 76.0723L150.232 75.7107L138.484 54.863Z" fill="black"/>
<path d="M139.934 54.0466L139.292 54.4082L151.04 75.2559L151.682 74.8943L139.934 54.0466Z" fill="black"/>
<path d="M143.904 51.8083L143.262 52.1699L155.01 73.0176L155.652 72.656L143.904 51.8083Z" fill="black"/>
<path d="M148.132 49.4235L147.49 49.7852L159.238 70.6329L159.88 70.2712L148.132 49.4235Z" fill="black"/>
<path d="M149.396 48.7126L148.754 49.0742L160.502 69.9219L161.144 69.5603L149.396 48.7126Z" fill="black"/>
<path d="M150.667 47.9977L150.025 48.3594L161.773 69.2071L162.415 68.8454L150.667 47.9977Z" fill="black"/>
<path d="M154.256 45.9762L153.614 46.3379L165.362 67.1856L166.004 66.8239L154.256 45.9762Z" fill="black"/>
<path d="M104.886 73.7946L104.244 74.1562L115.992 95.0039L116.634 94.6423L104.886 73.7946Z" fill="black"/>
</g>
<path d="M204.4 98.4794L203.578 99.4451L204.599 101.258L205.851 101.055L206.379 101.992L200.682 102.831L200.203 101.981L203.872 97.5429L204.4 98.4794ZM203.668 101.404L202.967 100.16L201.632 101.732L203.668 101.404ZM203.62 97.0957L198.937 99.7345L198.425 98.8247L203.107 96.1859L203.62 97.0957ZM200.455 91.4791L201.051 92.5361L199.76 94.7352L200.175 95.4711L202.095 94.3891L202.608 95.2989L197.929 97.9445L196.911 96.1383C196.652 95.6789 196.573 95.2416 196.674 94.8263C196.768 94.409 197.024 94.0823 197.443 93.8461C197.707 93.6978 197.982 93.628 198.269 93.6367C198.551 93.6479 198.816 93.7368 199.062 93.9034L200.455 91.4791ZM198.195 96.5869L199.392 95.9122L198.97 95.1629C198.839 94.931 198.686 94.7793 198.511 94.7077C198.331 94.6387 198.147 94.657 197.96 94.7625C197.773 94.8681 197.662 95.0157 197.628 95.2054C197.594 95.395 197.642 95.6058 197.773 95.8377L198.195 96.5869ZM200.159 90.9547L195.477 93.5936L194.964 92.6838L198.857 90.4897L197.632 88.3156L198.422 87.8707L200.159 90.9547ZM198.127 87.3485L193.444 89.9874L192.932 89.0776L197.615 86.4387L198.127 87.3485ZM197.119 85.5585L192.436 88.1974L191.916 87.2742L194.036 83.4352L190.785 85.2673L190.306 84.4177L194.989 81.7788L195.509 82.702L193.392 86.5306L196.636 84.7022L197.119 85.5585ZM194.486 80.8875L189.803 83.5264L188.039 80.3956L188.822 79.9545L190.073 82.1755L191.104 81.5949L190.101 79.8155L190.89 79.3706L191.893 81.1501L193.184 80.4225L191.891 78.1279L192.681 77.6831L194.486 80.8875ZM213.39 96.1013L209.49 98.2991L210.286 99.7107L209.503 100.152L207.399 96.4189L208.182 95.9778L208.978 97.3893L212.878 95.1915L213.39 96.1013ZM211.822 93.3174L207.139 95.9563L206.626 95.0465L211.309 92.4076L211.822 93.3174ZM209.671 89.3766C210.041 90.0322 210.143 90.7033 209.977 91.39C209.809 92.0722 209.346 92.627 208.588 93.0542C207.835 93.479 207.121 93.5842 206.448 93.37C205.771 93.1583 205.248 92.7269 204.881 92.0758C204.567 91.5183 204.447 90.9718 204.522 90.4364C204.592 89.9034 204.84 89.4636 205.268 89.1169L205.964 89.9145C205.698 90.1408 205.54 90.4088 205.492 90.7184C205.436 91.026 205.493 91.3315 205.664 91.6347C205.895 92.045 206.228 92.3013 206.662 92.4036C207.091 92.5084 207.56 92.4175 208.068 92.131C208.576 91.8445 208.898 91.4928 209.033 91.0758C209.166 90.6543 209.116 90.2362 208.882 89.8214C208.711 89.5182 208.491 89.3102 208.222 89.1974C207.953 89.0847 207.662 89.075 207.35 89.1684L207.035 88.1388C207.559 87.9959 208.056 88.0332 208.526 88.2506C208.988 88.4661 209.37 88.8414 209.671 89.3766ZM206.493 83.862L205.161 86.5343L205.98 86.7516L207.605 85.8355L208.118 86.7453L203.435 89.3842L202.922 88.4744L204.776 87.4301L201.939 86.7284L201.264 85.5309L204.155 86.2816L205.852 82.7248L206.493 83.862ZM205.585 82.2506L200.902 84.8895L199.138 81.7587L199.921 81.3177L201.172 83.5387L202.203 82.9581L201.2 81.1786L201.989 80.7338L202.992 82.5133L204.283 81.7857L202.99 79.4911L203.779 79.0463L205.585 82.2506ZM202.791 77.293L198.891 79.4909L199.687 80.9024L198.904 81.3435L196.8 77.6106L197.583 77.1695L198.379 78.5811L202.279 76.3832L202.791 77.293Z" fill="white"/>
<path d="M219.985 234.214L217.211 237.473L220.659 243.591L224.883 242.906L226.665 246.067L207.438 248.9L205.822 246.033L218.204 231.053L219.985 234.214ZM217.515 244.084L215.148 239.884L210.642 245.19L217.515 244.084ZM217.353 229.544L201.549 238.45L199.818 235.379L215.623 226.473L217.353 229.544ZM206.671 210.588L208.681 214.155L204.326 221.577L205.726 224.061L212.206 220.409L213.936 223.48L198.144 232.408L194.709 226.312C193.835 224.762 193.569 223.286 193.909 221.884C194.226 220.476 195.092 219.373 196.507 218.576C197.395 218.076 198.323 217.84 199.292 217.87C200.245 217.907 201.138 218.207 201.971 218.77L206.671 210.588ZM199.043 227.827L203.084 225.549L201.659 223.02C201.218 222.238 200.701 221.726 200.109 221.484C199.502 221.251 198.882 221.313 198.25 221.669C197.618 222.026 197.244 222.524 197.129 223.164C197.014 223.804 197.177 224.515 197.618 225.298L199.043 227.827ZM205.674 208.818L189.869 217.724L188.139 214.653L201.279 207.249L197.144 199.911L199.808 198.409L205.674 208.818ZM198.815 196.647L183.011 205.553L181.28 202.483L197.085 193.576L198.815 196.647ZM195.411 190.606L179.606 199.512L177.85 196.396L185.006 183.439L174.033 189.623L172.418 186.755L188.222 177.849L189.978 180.965L182.832 193.886L193.782 187.716L195.411 190.606ZM186.527 174.841L170.722 183.747L164.768 173.181L167.409 171.692L171.634 179.188L175.111 177.229L171.726 171.223L174.39 169.722L177.775 175.727L182.132 173.272L177.768 165.527L180.432 164.026L186.527 174.841ZM250.872 225.881L237.71 233.298L240.394 238.062L237.753 239.551L230.653 226.953L233.295 225.464L235.979 230.228L249.142 222.81L250.872 225.881ZM245.578 216.485L229.773 225.391L228.043 222.321L243.847 213.415L245.578 216.485ZM238.321 203.185C239.568 205.398 239.912 207.663 239.354 209.98C238.787 212.283 237.224 214.155 234.665 215.597C232.122 217.03 229.714 217.386 227.442 216.663C225.156 215.948 223.393 214.492 222.155 212.295C221.095 210.413 220.69 208.569 220.941 206.762C221.177 204.963 222.016 203.479 223.459 202.308L225.808 205C224.91 205.764 224.379 206.669 224.214 207.713C224.026 208.752 224.22 209.783 224.797 210.806C225.577 212.191 226.699 213.056 228.163 213.401C229.611 213.755 231.194 213.448 232.91 212.481C234.626 211.514 235.712 210.327 236.168 208.92C236.616 207.497 236.445 206.086 235.656 204.686C235.08 203.663 234.337 202.961 233.429 202.58C232.52 202.2 231.54 202.167 230.488 202.482L229.422 199.007C231.193 198.525 232.87 198.651 234.454 199.385C236.014 200.112 237.303 201.379 238.321 203.185ZM227.595 184.573L223.098 193.592L225.861 194.325L231.348 191.234L233.078 194.304L217.274 203.21L215.543 200.14L221.797 196.616L212.223 194.247L209.945 190.206L219.702 192.739L225.432 180.735L227.595 184.573ZM224.53 179.135L208.725 188.041L202.771 177.475L205.413 175.986L209.637 183.482L213.114 181.522L209.729 175.517L212.393 174.015L215.778 180.021L220.135 177.566L215.771 169.821L218.435 168.32L224.53 179.135ZM215.101 162.403L201.938 169.821L204.623 174.584L201.981 176.073L194.882 163.475L197.523 161.986L200.208 166.75L213.371 159.332L215.101 162.403Z" fill="#EDEDED"/>
<path d="M179.644 49.9768L178.283 49.7486L174.665 41.4627L170.495 40.4614C169.645 40.2758 168.474 39.348 168.691 38.2359C169.081 37.1713 170.564 36.9844 171.387 37.266L175.472 38.5694L182.859 33.3554L184.142 33.8655L179.012 39.7292L182.805 40.9025L185.411 39.431L186.523 39.7635L183.829 42.4615L184.736 46.165L183.613 45.8735L182.145 43.2645L178.293 42.3038L179.644 49.9768Z" fill="white"/>
<path d="M91.0868 91.8597C89.458 87.1295 91.9723 81.9746 96.7025 80.3458L208.87 41.7235C218.33 38.466 228.64 43.4945 231.898 52.9549L285.669 209.117C288.926 218.578 283.898 228.888 274.437 232.145L162.27 270.767C157.54 272.396 152.385 269.882 150.756 265.152L91.0868 91.8597Z" fill="#0E4577"/>
<path d="M180.132 125.113C163.953 130.408 155.118 147.926 160.431 164.162C165.745 180.397 183.231 189.3 199.407 184.006C215.583 178.713 224.422 161.193 219.108 144.958C213.795 128.723 196.308 119.819 180.132 125.113ZM215.909 144.512L204.375 148.287C202.72 143.682 200.477 139.489 197.787 135.973C199.861 134.186 201.68 132.165 203.205 129.941C208.856 133.049 213.443 138.09 215.909 144.512ZM182.65 128.249C183.751 128.523 184.884 128.929 186.044 129.497C188.797 130.854 191.398 132.936 193.744 135.538C191.498 137.139 189.006 138.466 186.323 139.471L182.65 128.249ZM187.284 126.945C187.027 126.82 186.772 126.721 186.515 126.607C191.407 126.044 196.254 126.823 200.633 128.682C199.301 130.555 197.736 132.273 195.964 133.8C193.335 130.858 190.405 128.484 187.287 126.944L187.284 126.945ZM177.95 132.146C178.547 131.006 179.238 130.037 179.969 129.16L183.632 140.352C180.851 141.135 178.032 141.543 175.248 141.57C175.62 138.081 176.505 134.866 177.95 132.146ZM172.431 141.473C170.126 141.282 167.876 140.825 165.719 140.109C168.149 136.025 171.588 132.534 175.862 130.097C175.725 130.336 175.58 130.563 175.447 130.815C173.811 133.896 172.828 137.539 172.431 141.473ZM184.516 143.052L187.985 153.651L176.871 157.288C175.579 152.897 174.953 148.507 175.045 144.416C178.191 144.406 181.377 143.949 184.514 143.057L184.516 143.052ZM188.869 156.351L192.86 168.548C189.953 169.596 187.218 170.906 184.72 172.432C181.87 168.995 179.473 164.752 177.758 159.988L188.872 156.35L188.869 156.351ZM193.744 171.248L196.884 180.842C195.756 180.566 194.622 180.191 193.48 179.62C191.064 178.455 188.768 176.721 186.651 174.581C188.84 173.283 191.218 172.165 193.744 171.248ZM192.235 182.17C192.493 182.298 192.75 182.401 193.006 182.515C188.2 183.065 183.435 182.322 179.118 180.528C180.594 178.948 182.307 177.488 184.2 176.16C186.657 178.737 189.374 180.789 192.232 182.171L192.235 182.17ZM201.578 176.985C200.999 178.111 200.312 179.079 199.574 179.962L196.434 170.368C198.99 169.621 201.548 169.12 204.058 168.869C203.627 171.847 202.82 174.608 201.582 176.983L201.578 176.985ZM206.959 168.689C209.299 168.636 211.569 168.8 213.717 169.205C211.292 173.205 207.89 176.625 203.68 179.021C203.817 178.779 203.964 178.548 204.094 178.296C205.556 175.481 206.515 172.219 206.959 168.689ZM195.551 167.667L191.558 155.467L202.571 151.863C203.997 156.707 204.58 161.536 204.332 165.992C201.439 166.241 198.487 166.8 195.55 167.664L195.551 167.667ZM190.675 152.77L187.206 142.172C190.237 141.046 193.053 139.549 195.577 137.719C198.062 140.97 200.139 144.874 201.688 149.166L190.675 152.77ZM164.381 142.644C166.9 143.525 169.533 144.082 172.231 144.304C172.123 148.735 172.791 153.458 174.181 158.169L162.747 161.911C160.936 155.274 161.662 148.494 164.381 142.644ZM163.631 164.611L175.064 160.869C176.856 165.855 179.352 170.334 182.341 174.002C180.122 175.583 178.147 177.345 176.462 179.252C170.754 176.149 166.113 171.08 163.63 164.608L163.631 164.611ZM215.103 166.602C212.592 166.054 209.927 165.806 207.171 165.85C207.398 161.125 206.755 156.047 205.259 150.987L216.793 147.212C218.616 153.897 217.873 160.727 215.103 166.602Z" fill="#F9DCB2"/>
<g clip-path="url(#clip1_3052_7075)">
<path d="M270.777 206.485L214.368 258.233C214.317 258.276 214.269 258.325 214.218 258.368C214.212 258.371 214.207 258.374 214.204 258.383C214.159 258.423 214.119 258.46 214.07 258.494C214.059 258.501 214.056 258.509 214.045 258.516C214.005 258.553 213.962 258.584 213.919 258.615C213.888 258.639 213.856 258.664 213.819 258.692C213.777 258.723 213.734 258.754 213.691 258.785C213.648 258.816 213.605 258.847 213.568 258.875C213.514 258.912 213.465 258.947 213.411 258.984C213.362 259.018 213.313 259.052 213.262 259.081C213.239 259.094 213.219 259.112 213.19 259.128C213.144 259.153 213.101 259.184 213.061 259.206C213.009 259.235 212.966 259.266 212.915 259.294C212.874 259.316 212.828 259.342 212.788 259.364C212.753 259.383 212.713 259.405 212.673 259.427C212.5 259.522 212.316 259.608 212.139 259.683C212.09 259.702 212.044 259.728 212.001 259.744C211.995 259.747 211.989 259.75 211.984 259.753C211.929 259.776 211.868 259.802 211.813 259.825C211.752 259.851 211.689 259.871 211.628 259.896C211.564 259.917 211.509 259.939 211.445 259.959C211.376 259.983 211.312 260.003 211.239 260.02C211.187 260.034 211.138 260.054 211.085 260.067C211.065 260.071 211.048 260.081 211.033 260.081C210.981 260.095 210.928 260.109 210.876 260.123C210.751 260.154 210.626 260.185 210.497 260.211C210.492 260.214 210.492 260.214 210.483 260.211C210.421 260.222 210.36 260.234 210.305 260.242C210.243 260.253 210.173 260.262 210.112 260.273C210.051 260.284 209.995 260.292 209.931 260.297C209.861 260.306 209.791 260.315 209.72 260.323C209.656 260.329 209.592 260.334 209.527 260.34C209.463 260.345 209.398 260.35 209.331 260.35C209.266 260.356 209.204 260.352 209.14 260.358C209.008 260.363 208.882 260.365 208.752 260.361C208.694 260.363 208.638 260.356 208.579 260.359L208.547 260.354C208.485 260.351 208.423 260.347 208.361 260.344C208.229 260.334 208.096 260.325 207.96 260.309C207.904 260.303 207.848 260.296 207.792 260.29C207.783 260.287 207.768 260.288 207.76 260.285C207.712 260.281 207.662 260.271 207.615 260.267C207.573 260.26 207.526 260.256 207.482 260.243C207.44 260.236 207.399 260.228 207.358 260.221C207.13 260.174 206.907 260.124 206.679 260.063C206.652 260.055 206.616 260.044 206.59 260.037C206.31 259.951 206.033 259.856 205.761 259.743C205.723 259.727 205.675 259.708 205.636 259.692C205.627 259.689 205.618 259.687 205.609 259.684C205.567 259.662 205.52 259.644 205.481 259.627C205.221 259.508 204.975 259.374 204.728 259.225C204.686 259.203 204.647 259.172 204.605 259.15C204.592 259.142 204.58 259.134 204.568 259.125C204.523 259.098 204.487 259.073 204.442 259.045C204.394 259.012 204.345 258.978 204.297 258.945C204.131 258.834 203.973 258.711 203.813 258.582C203.77 258.545 203.728 258.509 203.688 258.478C203.622 258.425 203.564 258.374 203.503 258.318C203.46 258.281 203.424 258.242 203.381 258.205C203.332 258.157 203.283 258.109 203.238 258.067L203.234 258.061C203.189 258.019 203.149 257.973 203.103 257.931C203.051 257.877 202.999 257.823 202.944 257.764L112.785 159.457C112.649 159.306 112.52 159.153 112.397 158.996C112.353 158.945 112.316 158.89 112.273 158.839C112.239 158.791 112.205 158.742 112.168 158.702C112.127 158.642 112.081 158.585 112.04 158.525C112.003 158.471 111.966 158.416 111.934 158.359C111.9 158.31 111.868 158.253 111.834 158.204C111.818 158.175 111.8 158.156 111.784 158.127C111.765 158.092 111.74 158.061 111.727 158.023C111.664 157.923 111.608 157.819 111.556 157.713C111.534 157.672 111.518 157.629 111.493 157.583C111.457 157.505 111.413 157.425 111.378 157.347C111.361 157.303 111.339 157.263 111.32 157.214C111.313 157.202 111.31 157.196 111.304 157.185C111.284 157.136 111.262 157.081 111.242 157.032C111.21 156.959 111.183 156.884 111.16 156.815C111.141 156.765 111.121 156.716 111.11 156.67C111.09 156.606 111.068 156.551 111.047 156.487C111.004 156.354 110.964 156.226 110.932 156.086C110.918 156.034 110.908 155.987 110.894 155.935C110.846 155.752 110.809 155.562 110.775 155.378C110.75 155.25 110.733 155.124 110.716 154.999C110.705 154.923 110.702 154.85 110.69 154.774C110.681 154.703 110.676 154.639 110.671 154.575C110.665 154.496 110.661 154.408 110.655 154.328C110.656 154.276 110.651 154.226 110.649 154.167C110.651 154.144 110.647 154.123 110.649 154.1C110.647 154.056 110.646 154.012 110.65 153.964C110.651 153.912 110.651 153.859 110.652 153.806C110.654 153.767 110.655 153.729 110.657 153.691C110.659 153.532 110.671 153.376 110.688 153.217C110.689 153.164 110.699 153.114 110.706 153.057C110.715 152.993 110.718 152.931 110.731 152.871C110.731 152.871 110.727 152.866 110.733 152.863C110.74 152.806 110.752 152.747 110.759 152.691C110.767 152.612 110.785 152.534 110.803 152.457C110.812 152.407 110.825 152.348 110.835 152.298C110.835 152.298 110.84 152.294 110.837 152.289C110.85 152.229 110.865 152.161 110.883 152.099C110.895 152.04 110.913 151.977 110.931 151.915C110.944 151.87 110.951 151.829 110.968 151.79C110.981 151.745 110.993 151.701 111.006 151.656C111.048 151.514 111.095 151.368 111.145 151.228C111.156 151.192 111.172 151.153 111.185 151.124C111.252 150.945 111.322 150.772 111.406 150.598C111.422 150.559 111.444 150.517 111.46 150.478C111.465 150.461 111.476 150.44 111.49 150.424C111.515 150.373 111.537 150.331 111.561 150.281C111.567 150.277 111.564 150.272 111.569 150.268C111.594 150.218 111.621 150.172 111.646 150.122C111.657 150.101 111.668 150.08 111.679 150.059C111.701 150.017 111.722 149.975 111.747 149.938C111.75 149.93 111.756 149.926 111.758 149.917C111.786 149.872 111.814 149.827 111.841 149.782C111.866 149.746 111.886 149.713 111.911 149.677C111.919 149.664 111.927 149.652 111.936 149.64C111.957 149.598 111.988 149.559 112.013 149.523C112.03 149.499 112.047 149.474 112.058 149.453C112.083 149.417 112.105 149.39 112.13 149.354C112.158 149.309 112.188 149.269 112.219 149.23C112.25 149.19 112.278 149.145 112.308 149.106C112.317 149.094 112.325 149.082 112.333 149.07C112.37 149.027 112.403 148.979 112.44 148.936C112.583 148.76 112.729 148.59 112.887 148.428C112.963 148.349 113.045 148.266 113.127 148.184C113.181 148.132 113.229 148.083 113.286 148.037L169.685 96.2861C169.785 96.1941 169.887 96.1078 169.99 96.0216C170.118 95.9138 170.249 95.8118 170.383 95.7155C170.414 95.6908 170.446 95.666 170.486 95.6439C170.609 95.5539 170.735 95.4697 170.864 95.3913C170.907 95.3602 170.953 95.3349 170.999 95.3096C171.067 95.257 171.136 95.2191 171.211 95.178C171.246 95.159 171.286 95.1369 171.326 95.1148C171.372 95.0895 171.418 95.0642 171.458 95.0421C171.499 95.0199 171.539 94.9978 171.577 94.9846C171.617 94.9625 171.655 94.9492 171.695 94.9271C171.701 94.924 171.706 94.9208 171.718 94.9145C171.764 94.8892 171.813 94.8696 171.856 94.8533C171.874 94.8438 171.897 94.8311 171.917 94.8274C171.966 94.8079 172.012 94.7826 172.056 94.7662C172.061 94.763 172.067 94.7599 172.073 94.7567C172.134 94.7309 172.189 94.7082 172.249 94.6823C172.31 94.6564 172.374 94.6363 172.434 94.6105C172.559 94.5645 172.687 94.5243 172.809 94.4872C172.872 94.4671 172.931 94.4502 172.994 94.43C173.178 94.3818 173.355 94.3367 173.545 94.3C173.617 94.2824 173.687 94.2738 173.754 94.2595C173.816 94.2483 173.886 94.2397 173.947 94.2285C174.008 94.2173 174.079 94.2087 174.143 94.2032C174.339 94.178 174.532 94.1617 174.723 94.1542C174.84 94.1497 174.957 94.1451 175.078 94.1463C175.092 94.1457 175.107 94.1452 175.116 94.1477C175.175 94.1455 175.242 94.1458 175.304 94.1492C175.372 94.1495 175.448 94.1524 175.516 94.1528C175.578 94.1562 175.63 94.1571 175.692 94.1606C175.754 94.164 175.81 94.1707 175.872 94.1741C175.881 94.1767 175.896 94.1762 175.91 94.1756C175.966 94.1822 176.022 94.1889 176.084 94.1923C176.155 94.1984 176.229 94.2102 176.294 94.2194C176.344 94.2292 176.4 94.2358 176.447 94.2399C176.462 94.2393 176.48 94.2445 176.489 94.2471C176.539 94.2569 176.589 94.2667 176.646 94.2733C176.788 94.3001 176.924 94.33 177.06 94.36C177.105 94.3729 177.146 94.3801 177.191 94.3931C177.244 94.4086 177.298 94.4242 177.348 94.434C177.384 94.4443 177.419 94.4547 177.455 94.4651C177.508 94.4806 177.562 94.4961 177.615 94.5117C177.66 94.5246 177.708 94.5433 177.752 94.5563C177.901 94.6093 178.05 94.6622 178.193 94.7183C178.25 94.7396 178.31 94.7667 178.37 94.7937C178.429 94.8208 178.486 94.8421 178.54 94.8723C178.83 95.0049 179.106 95.1528 179.38 95.3243C179.437 95.3602 179.491 95.3905 179.543 95.4296C179.706 95.5349 179.863 95.6433 180.017 95.7607C180.068 95.7998 180.117 95.8332 180.168 95.8723L180.171 95.8781C180.211 95.9089 180.253 95.9454 180.293 95.9762C180.308 95.9903 180.323 96.0044 180.338 96.0185C180.378 96.0492 180.411 96.0832 180.448 96.1082C180.46 96.1165 180.463 96.1223 180.475 96.1306C180.521 96.1729 180.566 96.2152 180.612 96.2575C180.655 96.294 180.691 96.3337 180.734 96.3703C180.771 96.4099 180.81 96.4407 180.847 96.4804C180.884 96.5201 180.926 96.5566 180.966 96.6021C181.015 96.6501 181.058 96.7013 181.11 96.7551L271.272 195.053C271.321 195.101 271.367 195.158 271.41 195.209C271.453 195.261 271.5 195.318 271.543 195.369C271.58 195.409 271.607 195.446 271.638 195.488C271.663 195.52 271.685 195.545 271.709 195.577C271.818 195.719 271.923 195.856 272.02 196.005C272.045 196.037 272.06 196.065 272.079 196.1C272.11 196.143 272.136 196.189 272.167 196.232C272.198 196.275 272.223 196.321 272.245 196.361C272.248 196.367 272.255 196.378 272.258 196.384C272.283 196.43 272.311 196.467 272.336 196.513C272.418 196.648 272.485 196.783 272.555 196.925C272.583 196.976 272.606 197.031 272.631 197.077C272.657 197.123 272.679 197.178 272.699 197.227C272.719 197.277 272.744 197.323 272.763 197.372C272.78 197.415 272.796 197.459 272.818 197.499C272.837 197.533 272.847 197.565 272.861 197.603C272.981 197.918 273.085 198.243 273.165 198.566C273.182 198.624 273.193 198.686 273.205 198.747C273.222 198.805 273.23 198.861 273.241 198.922C273.248 198.948 273.251 198.968 273.253 198.998C273.26 199.039 273.271 199.085 273.278 199.126C273.279 199.141 273.282 199.146 273.282 199.161C273.29 199.217 273.299 199.272 273.307 199.328C273.311 199.377 273.322 199.424 273.327 199.474C273.335 199.529 273.343 199.585 273.348 199.634L273.351 199.64C273.356 199.69 273.364 199.745 273.369 199.795C273.373 199.816 273.373 199.83 273.377 199.851C273.382 199.9 273.384 199.959 273.389 200.009C273.389 200.009 273.389 200.009 273.392 200.015C273.397 200.079 273.4 200.138 273.402 200.196C273.407 200.261 273.404 200.323 273.406 200.381C273.409 200.44 273.408 200.507 273.405 200.569C273.401 200.631 273.407 200.695 273.403 200.757C273.405 200.801 273.404 200.84 273.396 200.881C273.389 201.005 273.382 201.128 273.37 201.255C273.37 201.255 273.37 201.255 273.373 201.261C273.36 201.388 273.348 201.514 273.329 201.644C273.311 201.789 273.284 201.931 273.258 202.073C273.248 202.138 273.23 202.2 273.221 202.265C273.209 202.325 273.194 202.393 273.181 202.452C273.182 202.467 273.174 202.479 273.171 202.488C273.159 202.547 273.14 202.609 273.125 202.663C273.11 202.731 273.086 202.797 273.068 202.859C273.05 202.921 273.029 202.993 273.005 203.058C272.981 203.124 272.963 203.186 272.939 203.252C272.915 203.317 272.892 203.383 272.87 203.439L272.868 203.448C272.844 203.514 272.817 203.574 272.79 203.634C272.763 203.693 272.739 203.759 272.706 203.822C272.69 203.861 272.676 203.891 272.66 203.929C272.641 203.977 272.62 204.019 272.592 204.064C272.565 204.124 272.535 204.178 272.502 204.241C272.467 204.313 272.428 204.379 272.389 204.445C272.365 204.496 272.337 204.541 272.304 204.589C272.276 204.635 272.249 204.68 272.221 204.725C272.183 204.791 272.138 204.86 272.094 204.93C272.052 204.99 272.014 205.056 271.972 205.116C271.93 205.177 271.889 205.237 271.844 205.292C271.821 205.319 271.805 205.343 271.782 205.371C271.757 205.407 271.726 205.446 271.698 205.477C271.673 205.513 271.651 205.54 271.622 205.571C271.547 205.665 271.468 205.753 271.392 205.847C271.37 205.874 271.344 205.896 271.322 205.923C271.285 205.966 271.249 206.008 271.209 206.045C271.169 206.082 271.139 206.121 271.099 206.158C271.085 206.173 271.071 206.189 271.057 206.204C271.014 206.249 270.969 206.289 270.927 206.335C270.882 206.39 270.825 206.436 270.777 206.485Z" fill="#B6C9FF"/>
<path d="M164.711 124.229L159.932 119.02L157.765 121.007L162.544 126.216L164.711 124.229Z" fill="white"/>
<path d="M161.936 126.772L157.158 121.562L154.991 123.55L159.77 128.759L161.936 126.772Z" fill="white"/>
<path d="M169.058 140.101L164.368 134.988L161.51 137.611L166.2 142.723L169.058 140.101Z" fill="white"/>
<path d="M177.465 132.384L172.775 127.271L170.521 129.339L175.211 134.452L177.465 132.384Z" fill="white"/>
<path d="M160.971 137.025L172.24 126.69L168.108 122.183L165.853 124.254L165.243 124.806L163.079 126.797L162.472 127.355L160.305 129.34L159.698 129.898L156.839 132.518L160.971 137.025Z" fill="white"/>
<path d="M171.833 137.556L167.143 132.443L164.976 134.431L169.666 139.544L171.833 137.556Z" fill="white"/>
<path d="M159.162 129.315L154.384 124.105L151.525 126.728L156.304 131.937L159.162 129.315Z" fill="white"/>
<path d="M167.574 121.604L162.795 116.395L160.541 118.462L165.32 123.671L167.574 121.604Z" fill="white"/>
<path d="M174.603 135.009L169.913 129.896L167.746 131.884L172.436 136.997L174.603 135.009Z" fill="white"/>
<path d="M127.93 155.237L130.677 154.551L129.238 152.983L127.905 153.528L128.563 152.245L127.124 150.677L126.206 153.353L123.417 153.988L124.856 155.556L126.337 154.967L125.622 156.393L127.061 157.961L127.93 155.237Z" fill="white"/>
<path d="M132.33 160.038L135.076 159.352L133.637 157.784L132.305 158.329L132.963 157.046L131.524 155.478L130.606 158.154L127.816 158.789L129.255 160.357L130.736 159.768L130.022 161.194L131.461 162.762L132.33 160.038Z" fill="white"/>
<path d="M136.732 164.833L139.478 164.147L138.039 162.579L136.706 163.124L137.364 161.841L135.926 160.273L135.008 162.949L132.218 163.583L133.657 165.152L135.138 164.563L134.424 165.989L135.862 167.557L136.732 164.833Z" fill="white"/>
<path d="M141.131 169.633L143.877 168.948L142.439 167.379L141.106 167.925L141.764 166.642L140.325 165.073L139.407 167.75L136.617 168.384L138.056 169.953L139.537 169.363L138.823 170.789L140.262 172.358L141.131 169.633Z" fill="white"/>
<path d="M149.067 178.28L151.813 177.594L150.374 176.026L149.041 176.571L149.699 175.288L148.261 173.72L147.342 176.396L144.553 177.031L145.992 178.599L147.473 178.01L146.759 179.436L148.197 181.004L149.067 178.28Z" fill="white"/>
<path d="M153.472 183.079L156.218 182.393L154.78 180.825L153.447 181.37L154.105 180.087L152.666 178.519L151.748 181.195L148.958 181.83L150.397 183.398L151.878 182.809L151.164 184.235L152.603 185.803L153.472 183.079Z" fill="white"/>
<path d="M157.868 187.876L160.614 187.19L159.176 185.621L157.843 186.167L158.501 184.884L157.062 183.315L156.144 185.992L153.354 186.626L154.793 188.195L156.274 187.606L155.56 189.032L156.999 190.6L157.868 187.876Z" fill="white"/>
<path d="M162.273 192.674L165.02 191.989L163.581 190.42L162.248 190.966L162.906 189.683L161.467 188.114L160.549 190.791L157.76 191.425L159.198 192.994L160.679 192.404L159.965 193.83L161.404 195.399L162.273 192.674Z" fill="white"/>
<path d="M146.148 173.962L143.814 171.418L143.089 172.084L145.423 174.628L146.148 173.962Z" fill="white"/>
<path d="M170.006 201.104L172.752 200.418L171.314 198.85L169.981 199.395L170.639 198.112L169.2 196.544L168.282 199.221L165.492 199.855L166.931 201.423L168.412 200.834L167.698 202.26L169.137 203.829L170.006 201.104Z" fill="white"/>
<path d="M174.406 205.907L177.152 205.221L175.713 203.653L174.38 204.198L175.038 202.915L173.599 201.347L172.681 204.023L169.892 204.658L171.331 206.226L172.812 205.637L172.098 207.063L173.536 208.631L174.406 205.907Z" fill="white"/>
<path d="M178.807 210.7L181.554 210.014L180.115 208.446L178.782 208.991L179.44 207.708L178.001 206.14L177.083 208.816L174.294 209.451L175.732 211.019L177.214 210.43L176.499 211.856L177.938 213.424L178.807 210.7Z" fill="white"/>
<path d="M183.213 215.499L185.959 214.813L184.52 213.245L183.187 213.79L183.845 212.507L182.407 210.939L181.488 213.615L178.699 214.249L180.138 215.818L181.619 215.229L180.905 216.655L182.343 218.223L183.213 215.499Z" fill="white"/>
<path d="M167.088 196.784L164.754 194.24L164.029 194.906L166.363 197.45L167.088 196.784Z" fill="white"/>
<path d="M233.05 215.844L222.258 204.085C220.209 201.855 220.362 198.386 222.591 196.337L226.505 192.748C228.734 190.699 232.204 190.852 234.253 193.081L245.044 204.84C247.093 207.069 246.94 210.539 244.711 212.588L240.797 216.177C238.568 218.226 235.102 218.079 233.05 215.844Z" fill="#F2F3F7"/>
<path d="M231.583 212.74C228.948 209.867 229.144 205.385 232.011 202.753C234.885 200.118 239.366 200.314 241.998 203.181C242.918 204.188 243.531 205.425 243.759 206.767C243.832 207.199 243.545 207.604 243.113 207.676C242.681 207.749 242.276 207.462 242.204 207.03C242.028 205.988 241.553 205.029 240.838 204.246C238.789 202.016 235.314 201.867 233.082 203.91C230.852 205.959 230.703 209.434 232.746 211.666C233.461 212.449 234.378 213.001 235.402 213.27C235.824 213.383 236.075 213.813 235.968 214.232C235.856 214.653 235.425 214.905 235.006 214.798C233.689 214.459 232.51 213.744 231.583 212.74Z" fill="#B6C9FF"/>
<path d="M225.371 205.961C224.436 204.94 223.822 203.674 223.605 202.311C223.532 201.879 223.828 201.477 224.26 201.404C224.692 201.331 225.094 201.627 225.167 202.059C225.337 203.119 225.816 204.099 226.543 204.89C228.592 207.119 232.067 207.269 234.299 205.226C236.528 203.177 236.678 199.702 234.635 197.469C233.89 196.658 232.936 196.096 231.869 195.844C231.445 195.74 231.182 195.315 231.286 194.891C231.39 194.467 231.814 194.204 232.238 194.308C233.608 194.634 234.847 195.361 235.801 196.402C238.436 199.275 238.24 203.757 235.373 206.389C232.488 209.03 228.006 208.834 225.371 205.961Z" fill="#B6C9FF"/>
<path d="M236.271 238.138L135.178 127.938L124.489 137.743L225.582 247.944L236.271 238.138Z" fill="black"/>
</g>
<path d="M209.47 324.957C210.007 366.22 194.122 375.013 194.122 375.013L141.137 263.532C141.137 263.532 137.393 264.159 149.711 248.795C162.028 233.431 151.671 174.978 172.588 164.297C193.505 153.616 186.871 238.923 186.097 253.698C185.323 268.474 208.932 283.694 209.47 324.957Z" fill="#F39E7C"/>
<defs>
<clipPath id="clip0_3052_7075">
<rect width="62.9272" height="23.93" fill="white" transform="translate(101.812 75.5273) rotate(-29.4024)"/>
</clipPath>
<clipPath id="clip1_3052_7075">
<rect width="163.912" height="122.214" fill="white" transform="translate(206.103 76.002) rotate(61.2068)"/>
</clipPath>
</defs>
</svg>
