<svg width="275" height="505" viewBox="0 0 275 505" fill="none" xmlns="http://www.w3.org/2000/svg">
<g filter="url(#filter0_d_1817_8785)">
<rect x="14" y="28.0869" width="207.519" height="460" transform="rotate(-5 14 28.0869)" fill="#F8F8F8"/>
<rect x="165.601" y="14.8232" width="55.3383" height="460" transform="rotate(-5 165.601 14.8232)" fill="#032C9E"/>
<g clip-path="url(#clip0_1817_8785)">
<path d="M32.5314 47.2967L31.313 47.4033L35.3824 93.9174L36.6008 93.8108L32.5314 47.2967Z" fill="#242935"/>
<path d="M34.685 47.1082L33.4666 47.2148L37.536 93.7289L38.7544 93.6223L34.685 47.1082Z" fill="#242935"/>
<path d="M92.0065 42.0936L90.7881 42.2002L94.8575 88.7142L96.0759 88.6077L92.0065 42.0936Z" fill="#242935"/>
<path d="M94.1598 41.9051L92.9414 42.0117L97.0109 88.5258L98.2293 88.4192L94.1598 41.9051Z" fill="#242935"/>
<path d="M151.481 36.8905L150.263 36.9971L154.332 83.5111L155.551 83.4045L151.481 36.8905Z" fill="#242935"/>
<path d="M153.621 36.703L152.403 36.8096L156.473 83.3236L157.691 83.217L153.621 36.703Z" fill="#242935"/>
<path d="M41.9838 46.4701L39.1191 46.7207L43.1886 93.2348L46.0533 92.9841L41.9838 46.4701Z" fill="#242935"/>
<path d="M51.4455 45.642L48.5808 45.8926L52.6503 92.4066L55.5149 92.156L51.4455 45.642Z" fill="#242935"/>
<path d="M58.6243 45.0137L53.6685 45.4473L57.7379 91.9613L62.6937 91.5277L58.6243 45.0137Z" fill="#242935"/>
<path d="M77.6684 43.3477L72.7126 43.7812L76.7821 90.2953L81.7379 89.8617L77.6684 43.3477Z" fill="#242935"/>
<path d="M66.6406 44.3129L63.7759 44.5635L67.8453 91.0775L70.71 90.8269L66.6406 44.3129Z" fill="#242935"/>
<path d="M44.3735 46.2605L42.9417 46.3857L47.0111 92.8998L48.443 92.7745L44.3735 46.2605Z" fill="#242935"/>
<path d="M46.7556 46.0525L45.3237 46.1777L49.3932 92.6918L50.825 92.5665L46.7556 46.0525Z" fill="#242935"/>
<path d="M61.9104 44.7263L60.4785 44.8516L64.548 91.3656L65.9798 91.2403L61.9104 44.7263Z" fill="#242935"/>
<path d="M70.3896 43.9851L68.9578 44.1104L73.0272 90.6244L74.4591 90.4991L70.3896 43.9851Z" fill="#242935"/>
<path d="M81.4394 43.0183L80.0076 43.1436L84.077 89.6576L85.5089 89.5323L81.4394 43.0183Z" fill="#242935"/>
<path d="M85.0329 42.7038L83.6011 42.8291L87.6705 89.3432L89.1024 89.2179L85.0329 42.7038Z" fill="#242935"/>
<path d="M88.6264 42.3894L87.1946 42.5146L91.264 89.0287L92.6959 88.9034L88.6264 42.3894Z" fill="#242935"/>
<path d="M106.614 40.8158L103.749 41.0664L107.818 87.5805L110.683 87.3298L106.614 40.8158Z" fill="#242935"/>
<path d="M121.284 39.5316L118.419 39.7822L122.489 86.2963L125.353 86.0457L121.284 39.5316Z" fill="#242935"/>
<path d="M101.329 41.2774L96.3735 41.7109L100.443 88.225L105.399 87.7914L101.329 41.2774Z" fill="#242935"/>
<path d="M130.651 38.7123L127.787 38.9629L131.856 85.4769L134.721 85.2263L130.651 38.7123Z" fill="#242935"/>
<path d="M145.268 37.4339L142.403 37.6846L146.473 84.1986L149.337 83.948L145.268 37.4339Z" fill="#242935"/>
<path d="M109.864 40.531L108.433 40.6562L112.502 87.1703L113.934 87.045L109.864 40.531Z" fill="#242935"/>
<path d="M113.122 40.2458L111.69 40.3711L115.759 86.8851L117.191 86.7599L113.122 40.2458Z" fill="#242935"/>
<path d="M116.365 39.9626L114.933 40.0879L119.003 86.6019L120.435 86.4767L116.365 39.9626Z" fill="#242935"/>
<path d="M125.221 39.1872L123.789 39.3125L127.859 85.8266L129.291 85.7013L125.221 39.1872Z" fill="#242935"/>
<path d="M134.656 38.362L133.224 38.4873L137.294 85.0014L138.725 84.8761L134.656 38.362Z" fill="#242935"/>
<path d="M137.482 38.115L136.051 38.2402L140.12 84.7543L141.552 84.629L137.482 38.115Z" fill="#242935"/>
<path d="M140.309 37.8679L138.877 37.9932L142.946 84.5072L144.378 84.3819L140.309 37.8679Z" fill="#242935"/>
<path d="M148.317 37.1667L146.885 37.292L150.954 83.806L152.386 83.6808L148.317 37.1667Z" fill="#242935"/>
<path d="M38.1689 46.8034L36.7371 46.9287L40.8065 93.4428L42.2384 93.3175L38.1689 46.8034Z" fill="#242935"/>
</g>
<path d="M210.948 168.893L211.315 173.092L210.952 173.124L210.84 171.845L203.491 172.488L203.525 172.878C203.541 173.058 203.578 173.217 203.635 173.357C203.82 173.82 204.272 174.128 204.991 174.283L206.139 174.535L206.174 174.939L203.355 175.117L202.755 168.253L205.563 167.953L205.597 168.344L204.511 168.791C204.397 168.837 204.288 168.888 204.185 168.942C203.545 169.278 203.254 169.774 203.311 170.429L203.347 170.833L210.695 170.19L210.615 169.274C210.619 169.111 210.73 168.984 210.948 168.893ZM210.436 163.038L210.769 166.847L210.405 166.879L210.311 165.802L202.963 166.445L203.057 167.522L202.693 167.553L202.314 163.22C202.252 162.511 202.366 161.895 202.654 161.373C203.006 160.745 203.519 160.402 204.192 160.343C204.416 160.323 204.644 160.34 204.874 160.392C205.623 160.579 206.159 161.12 206.481 162.014L209.782 159.596L209.757 159.314C209.752 159.26 209.752 159.206 209.756 159.151C209.773 159.032 209.88 158.964 210.078 158.947L210.289 161.206L206.767 163.576L206.842 164.437L210.166 164.147L210.072 163.07L210.436 163.038ZM202.737 163.861L202.818 164.789L206.438 164.473L206.35 163.463C206.322 163.149 206.213 162.879 206.021 162.651C205.649 162.223 205.104 162.04 204.386 162.103C204.108 162.127 203.852 162.195 203.618 162.305C202.967 162.616 202.673 163.134 202.737 163.861ZM209.329 150.387L209.624 153.765L209.261 153.797L209.18 152.868L206.684 154.103L206.922 156.822L209.592 157.579L209.529 156.865C209.525 156.811 209.525 156.762 209.53 156.716C209.546 156.588 209.657 156.515 209.863 156.497L210.078 158.947L209.714 158.978L209.639 158.117L201.668 155.831L201.595 154.996L209.031 151.172L208.995 150.755C208.989 150.692 208.989 150.642 208.995 150.606C209.011 150.478 209.122 150.405 209.329 150.387ZM206.294 154.3L203.251 155.787L206.505 156.709L206.294 154.3ZM209.007 145.939L209.029 146.182C209.046 146.379 209.023 146.53 208.96 146.635C208.881 146.769 208.577 146.967 208.049 147.23L201.563 150.442L201.626 151.169L201.263 151.201L200.961 147.755L201.325 147.724L201.418 148.787L207.123 145.941L201.029 144.345L201.123 145.422L200.76 145.454L200.561 143.179L200.924 143.148L200.983 143.82L209.007 145.939ZM202.481 135.986L202.512 136.336L201.7 136.665C201.612 136.7 201.53 136.739 201.452 136.781C200.76 137.131 200.444 137.652 200.504 138.343L200.655 140.065L204.006 139.772L203.774 137.121L204.178 137.085L204.41 139.737L208.003 139.423L207.853 137.7C207.837 137.52 207.8 137.356 207.742 137.208C207.557 136.754 207.105 136.441 206.385 136.269L205.527 136.072L205.496 135.722L208.031 135.555L208.606 142.123L208.242 142.155L208.148 141.078L200.8 141.721L200.894 142.798L200.53 142.829L199.956 136.261L202.481 135.986ZM207.382 128.139L207.94 134.519L207.577 134.55L207.483 133.474L200.134 134.117L200.228 135.193L199.865 135.225L199.526 131.349L199.889 131.317L199.989 132.461L207.338 131.818L207.204 130.284C207.182 130.033 207.118 129.817 207.011 129.636C206.81 129.292 206.386 129.053 205.742 128.92L204.555 128.685L204.524 128.335L207.382 128.139ZM199.076 122.017L199.163 123.013L202.918 122.684L202.84 121.796C202.835 121.742 202.831 121.688 202.826 121.635C202.67 120.681 201.996 120.256 200.802 120.361C200.677 120.372 200.556 120.387 200.44 120.406C199.454 120.601 198.999 121.138 199.076 122.017ZM206.757 120.992L207.114 125.07L206.75 125.102L206.656 124.025L199.308 124.668L199.402 125.745L199.038 125.777L198.659 121.443C198.607 120.842 198.665 120.322 198.835 119.882C199.137 119.096 199.714 118.666 200.566 118.591C200.934 118.559 201.277 118.601 201.594 118.718C202.547 119.069 203.09 120.002 203.223 121.519L203.322 122.649L206.511 122.37L206.425 121.388C206.427 121.198 206.537 121.066 206.757 120.992ZM205.734 109.297L206.029 112.675L205.666 112.707L205.585 111.778L203.089 113.013L203.327 115.732L205.997 116.488L205.934 115.775C205.93 115.721 205.93 115.672 205.935 115.626C205.951 115.498 206.062 115.425 206.268 115.407L206.483 117.856L206.119 117.888L206.044 117.027L198.073 114.741L198 113.906L205.436 110.082L205.4 109.665C205.394 109.602 205.395 109.552 205.4 109.516C205.416 109.388 205.527 109.315 205.734 109.297ZM202.699 113.21L199.656 114.697L202.91 115.619L202.699 113.21ZM202.93 102.666C203.513 102.615 204.024 102.778 204.464 103.156C205.09 103.698 205.452 104.52 205.548 105.624C205.631 106.566 205.474 107.407 205.077 108.147C205.248 108.132 205.374 108.13 205.456 108.141C205.595 108.174 205.674 108.303 205.694 108.527L202.867 108.774L202.825 108.29C203.172 108.232 203.49 108.146 203.779 108.03C204.799 107.597 205.262 106.847 205.168 105.779C205.143 105.492 205.071 105.236 204.952 105.012C204.668 104.449 204.212 104.195 203.583 104.25C203.377 104.268 203.184 104.334 203.004 104.45C202.644 104.671 202.305 105.193 201.989 106.017C201.641 106.906 201.438 107.421 201.378 107.562C200.94 108.45 200.345 108.927 199.591 108.993C199.088 109.037 198.637 108.896 198.238 108.569C197.634 108.07 197.286 107.301 197.195 106.26C197.124 105.443 197.232 104.665 197.52 103.926C197.439 103.933 197.367 103.935 197.304 103.931C197.13 103.91 197.032 103.774 197.01 103.523L199.419 103.312L199.462 103.797C198.968 103.84 198.553 104.003 198.216 104.285C197.72 104.709 197.504 105.288 197.568 106.024C197.588 106.257 197.648 106.473 197.747 106.673C197.99 107.176 198.38 107.404 198.919 107.357C199.125 107.339 199.323 107.272 199.511 107.156C199.863 106.935 200.198 106.422 200.516 105.617C200.855 104.737 201.055 104.231 201.116 104.1C201.562 103.211 202.167 102.733 202.93 102.666ZM202.281 95.2501C202.864 95.1991 203.375 95.3623 203.815 95.7397C204.441 96.2817 204.803 97.1045 204.899 98.2081C204.982 99.1502 204.825 99.9912 204.428 100.731C204.599 100.716 204.725 100.714 204.808 100.725C204.946 100.758 205.025 100.887 205.045 101.111L202.218 101.358L202.176 100.874C202.524 100.816 202.842 100.73 203.13 100.614C204.15 100.181 204.613 99.4311 204.52 98.3634C204.494 98.0762 204.422 97.8203 204.303 97.5957C204.019 97.0329 203.563 96.779 202.935 96.8339C202.728 96.852 202.535 96.9186 202.355 97.0338C201.995 97.2552 201.656 97.7775 201.34 98.6009C200.993 99.4902 200.789 100.005 200.729 100.146C200.291 101.034 199.696 101.511 198.942 101.577C198.44 101.621 197.989 101.48 197.589 101.153C196.985 100.654 196.638 99.8847 196.547 98.8439C196.475 98.0274 196.583 97.2494 196.871 96.51C196.79 96.517 196.718 96.5188 196.655 96.5154C196.481 96.4944 196.383 96.3583 196.361 96.1071L198.77 95.8963L198.813 96.3808C198.319 96.424 197.904 96.5869 197.567 96.8695C197.071 97.2927 196.855 97.8721 196.919 98.6079C196.94 98.8412 196.999 99.0575 197.098 99.2568C197.341 99.7599 197.732 99.9879 198.27 99.9408C198.476 99.9228 198.674 99.8558 198.863 99.7398C199.214 99.5192 199.549 99.0062 199.867 98.2008C200.206 97.3213 200.406 96.8155 200.467 96.6836C200.913 95.7947 201.518 95.3168 202.281 95.2501Z" fill="white"/>
<path d="M135.986 378.529L137.226 392.702L136 392.809L135.622 388.494L110.821 390.663L110.936 391.981C110.989 392.586 111.112 393.125 111.306 393.596C111.931 395.159 113.456 396.2 115.882 396.72L119.755 397.571L119.875 398.934L110.361 399.538L108.334 376.371L117.812 375.359L117.927 376.676L114.261 378.187C113.877 378.343 113.511 378.512 113.161 378.695C111.002 379.83 110.019 381.503 110.213 383.714L110.332 385.076L135.133 382.906L134.863 379.818C134.876 379.267 135.25 378.838 135.986 378.529ZM134.257 358.77L135.382 371.625L134.156 371.732L133.838 368.098L109.036 370.268L109.354 373.902L108.128 374.009L106.848 359.383C106.639 356.99 107.022 354.913 107.996 353.149C109.184 351.031 110.914 349.873 113.185 349.674C113.942 349.608 114.71 349.663 115.488 349.839C118.015 350.472 119.822 352.297 120.91 355.315L132.051 347.154L131.968 346.2C131.952 346.018 131.951 345.835 131.965 345.651C132.022 345.249 132.383 345.019 133.049 344.961L133.762 352.588L121.875 360.586L122.129 363.493L133.349 362.511L133.031 358.877L134.257 358.77ZM108.273 361.547L108.548 364.681L120.767 363.612L120.468 360.205C120.376 359.145 120.006 358.232 119.359 357.464C118.103 356.018 116.264 355.401 113.842 355.613C112.903 355.695 112.038 355.923 111.247 356.297C109.05 357.344 108.059 359.094 108.273 361.547ZM130.522 316.071L131.519 327.473L130.293 327.58L130.019 324.446L121.595 328.616L122.398 337.791L131.41 340.344L131.199 337.937C131.183 337.755 131.184 337.587 131.201 337.433C131.254 337.001 131.63 336.755 132.326 336.694L133.049 344.961L131.823 345.068L131.569 342.161L104.666 334.445L104.42 331.629L129.518 318.722L129.395 317.314C129.376 317.102 129.377 316.934 129.396 316.811C129.45 316.379 129.825 316.132 130.522 316.071ZM120.28 329.28L110.009 334.298L120.992 337.411L120.28 329.28ZM129.438 301.062L129.509 301.879C129.567 302.546 129.49 303.056 129.277 303.41C129.011 303.861 127.986 304.53 126.203 305.418L104.311 316.259L104.526 318.712L103.299 318.819L102.282 307.191L103.508 307.083L103.822 310.672L123.076 301.069L102.511 295.682L102.829 299.316L101.602 299.423L100.931 291.747L102.157 291.639L102.356 293.911L129.438 301.062ZM107.412 267.47L107.515 268.651L104.774 269.76C104.48 269.878 104.201 270.009 103.939 270.154C101.601 271.335 100.534 273.091 100.738 275.423L101.247 281.237L112.558 280.248L111.775 271.299L113.137 271.18L113.92 280.129L126.049 279.067L125.54 273.253C125.487 272.648 125.362 272.094 125.166 271.592C124.543 270.06 123.017 269.004 120.586 268.423L117.69 267.761L117.587 266.58L126.142 266.014L128.082 288.181L126.855 288.288L126.537 284.655L101.736 286.824L102.054 290.458L100.827 290.566L98.8881 268.399L107.412 267.47ZM123.953 240.986L125.836 262.517L124.61 262.624L124.292 258.99L99.4906 261.16L99.8085 264.794L98.5821 264.901L97.4375 251.819L98.664 251.712L99.0018 255.573L123.803 253.403L123.35 248.225C123.276 247.377 123.06 246.648 122.701 246.039C122.02 244.878 120.591 244.072 118.416 243.621L114.41 242.828L114.307 241.647L123.953 240.986ZM95.9179 220.324L96.212 223.685L108.885 222.576L108.623 219.578C108.607 219.397 108.591 219.215 108.575 219.033C108.05 215.814 105.773 214.381 101.745 214.733C101.321 214.77 100.914 214.821 100.523 214.886C97.1932 215.544 95.6583 217.356 95.9179 220.324ZM121.842 216.866L123.047 230.629L121.82 230.736L121.502 227.103L96.7008 229.272L97.0187 232.906L95.7923 233.014L94.5126 218.387C94.3351 216.358 94.5323 214.602 95.1043 213.117C96.1234 210.465 98.0713 209.013 100.948 208.761C102.19 208.653 103.347 208.796 104.419 209.19C107.635 210.373 109.466 213.524 109.914 218.642L110.248 222.457L121.013 221.515L120.723 218.199C120.728 217.558 121.101 217.114 121.842 216.866ZM118.389 177.392L119.386 188.794L118.16 188.901L117.886 185.767L109.462 189.937L110.265 199.112L119.277 201.665L119.066 199.258C119.05 199.076 119.051 198.908 119.068 198.754C119.122 198.322 119.497 198.076 120.193 198.015L120.916 206.282L119.69 206.389L119.436 203.482L92.5335 195.766L92.2871 192.95L117.385 180.043L117.262 178.635C117.243 178.423 117.244 178.255 117.264 178.132C117.317 177.7 117.692 177.453 118.389 177.392ZM108.147 190.601L97.8759 195.619L108.859 198.732L108.147 190.601ZM108.925 155.014C110.893 154.842 112.619 155.393 114.104 156.667C116.217 158.496 117.436 161.273 117.762 164.997C118.04 168.177 117.511 171.015 116.173 173.513C116.748 173.462 117.175 173.455 117.453 173.492C117.92 173.604 118.187 174.038 118.253 174.795L108.714 175.63L108.571 173.995C109.744 173.8 110.817 173.508 111.79 173.118C115.232 171.657 116.796 169.125 116.481 165.521C116.396 164.552 116.153 163.689 115.751 162.931C114.791 161.031 113.251 160.174 111.132 160.359C110.435 160.42 109.783 160.645 109.177 161.034C107.96 161.781 106.818 163.544 105.749 166.323C104.577 169.324 103.89 171.063 103.688 171.538C102.211 174.536 100.2 176.146 97.6564 176.368C95.9606 176.517 94.4389 176.04 93.0913 174.937C91.0522 173.254 89.879 170.656 89.5716 167.143C89.3305 164.388 89.6959 161.762 90.6676 159.266C90.395 159.29 90.1515 159.296 89.9368 159.284C89.3509 159.214 89.0208 158.754 88.9466 157.906L97.0775 157.195L97.2205 158.83C95.555 158.976 94.1537 159.526 93.0165 160.48C91.3411 161.908 90.6121 163.863 90.8293 166.347C90.8982 167.134 91.0994 167.864 91.4329 168.537C92.2527 170.235 93.5712 171.004 95.3881 170.845C96.0846 170.784 96.7514 170.558 97.3885 170.167C98.5744 169.422 99.7046 167.691 100.779 164.973C101.923 162.004 102.597 160.297 102.803 159.852C104.31 156.852 106.351 155.239 108.925 155.014ZM106.735 129.986C108.703 129.813 110.43 130.364 111.914 131.638C114.027 133.467 115.247 136.244 115.573 139.969C115.851 143.148 115.321 145.987 113.983 148.484C114.559 148.434 114.985 148.427 115.263 148.464C115.73 148.575 115.997 149.01 116.064 149.767L106.525 150.601L106.382 148.966C107.555 148.772 108.628 148.48 109.6 148.089C113.043 146.629 114.606 144.096 114.291 140.493C114.206 139.524 113.963 138.66 113.561 137.902C112.601 136.002 111.062 135.145 108.942 135.331C108.245 135.392 107.594 135.617 106.987 136.005C105.771 136.753 104.628 138.516 103.559 141.294C102.387 144.296 101.7 146.034 101.498 146.51C100.021 149.507 98.0104 151.117 95.4667 151.34C93.7709 151.488 92.2492 151.011 90.9016 149.908C88.8625 148.225 87.6893 145.627 87.3819 142.115C87.1408 139.359 87.5061 136.733 88.4779 134.238C88.2053 134.262 87.9617 134.268 87.7471 134.256C87.1611 134.185 86.8311 133.726 86.7569 132.878L94.8878 132.166L95.0308 133.802C93.3653 133.947 91.964 134.497 90.8268 135.451C89.1514 136.879 88.4224 138.835 88.6396 141.318C88.7085 142.105 88.9097 142.835 89.2432 143.508C90.063 145.206 91.3815 145.976 93.1984 145.817C93.8949 145.756 94.5617 145.53 95.1988 145.138C96.3847 144.394 97.5148 142.662 98.5891 139.944C99.7331 136.976 100.408 135.269 100.613 134.824C102.12 131.824 104.161 130.211 106.735 129.986Z" fill="#EDEDED"/>
<path d="M208.661 43.3402C208.047 43.1071 207.322 43.0024 206.751 42.9779C206.21 42.9526 205.721 43.2578 205.484 43.7603L203.821 40.7672C203.276 39.7693 202.309 39.1624 201.225 39.0811C200.081 39.0037 198.163 38.9768 195.33 39.1618C192.497 39.3467 190.571 39.6554 189.475 39.8481C188.409 40.0389 187.531 40.7959 187.12 41.8574L185.888 45.01C185.589 44.5425 185.063 44.3036 184.531 44.3989C183.971 44.527 183.263 44.6944 182.684 45.0066C182.394 45.1467 182.266 45.49 182.318 45.8216L182.415 46.3926C182.465 46.6935 182.692 46.9519 182.996 47.0235L184.453 47.324C184.083 47.6214 183.779 48.0071 183.568 48.4462L183.465 48.6964C183.043 49.5757 182.838 50.562 182.904 51.5616C182.935 52.0466 183.024 52.4969 183.146 52.9749C183.265 53.4233 183.444 53.8678 183.68 54.2776L184.191 55.2172C184.359 55.5103 184.559 55.8014 184.81 55.9976L184.939 57.966C184.998 58.8745 185.76 59.5541 186.655 59.4957L189.16 59.3322C190.054 59.2737 190.722 58.5008 190.663 57.5923L190.598 56.5927L202.347 55.8257L202.412 56.8253C202.472 57.7337 203.234 58.4133 204.129 58.3549L206.634 58.1914C207.528 58.133 208.196 57.36 208.137 56.4516L208.008 54.4832C208.201 54.2271 208.392 53.9414 208.521 53.6289L208.905 52.6309C209.086 52.1938 209.205 51.7298 209.266 51.2697C209.326 50.8096 209.353 50.3208 209.322 49.837C209.256 48.8374 208.925 47.8861 208.392 47.0691L208.258 46.8344C207.991 46.4265 207.64 46.0835 207.234 45.8368L208.64 45.3494C208.933 45.2389 209.125 44.9827 209.134 44.6484L209.156 44.0696C209.136 43.7347 208.937 43.4434 208.661 43.3402ZM189.506 52.7102L187.329 52.8524C186.792 52.8874 186.235 52.6197 185.934 52.1226C185.867 52.0058 185.799 51.8879 185.759 51.7384C185.721 51.6197 185.682 51.4702 185.672 51.3188L185.668 51.2585C185.619 50.5014 186.237 49.8838 186.965 50.0179L188.572 50.3087C189.391 50.4679 189.977 51.1898 190.032 52.038C190.055 52.4 189.834 52.6889 189.506 52.7102ZM203.483 49.3649L205.039 48.8678C205.713 48.6408 206.437 49.1721 206.486 49.9292L206.49 49.9895C206.5 50.1409 206.477 50.2635 206.458 50.4168C206.436 50.5395 206.386 50.6948 206.335 50.8205C206.1 51.3525 205.583 51.6904 205.046 51.7255L202.869 51.8676C202.571 51.8871 202.285 51.6325 202.263 51.2989C202.172 50.3925 202.69 49.5984 203.483 49.3649ZM188.106 42.2787C188.389 41.5605 188.956 41.0674 189.665 40.9296C190.758 40.7061 192.627 40.4321 195.401 40.251C198.175 40.0699 200.064 40.0987 201.177 40.1781C201.898 40.2224 202.524 40.6377 202.898 41.313L205.171 45.3913L205.111 45.3951C203.406 45.415 200.538 45.5416 195.797 45.8511C191.056 46.1606 188.199 46.4387 186.503 46.6099L186.444 46.6138L188.106 42.2787ZM199.326 54.5021C199.185 54.6325 199.012 54.7353 198.774 54.7508L193.913 55.0681C193.465 55.0974 193.086 54.7871 193.06 54.3944C193.035 54.0005 193.19 53.6256 193.471 53.3341C193.751 53.0426 194.158 52.8639 194.606 52.8347L197.796 52.6264C198.691 52.568 199.48 53.1853 199.532 53.9732C199.545 54.1837 199.468 54.3705 199.326 54.5021Z" fill="white"/>
</g>
<defs>
<filter id="filter0_d_1817_8785" x="0" y="0" width="274.821" height="504.337" filterUnits="userSpaceOnUse" color-interpolation-filters="sRGB">
<feFlood flood-opacity="0" result="BackgroundImageFix"/>
<feColorMatrix in="SourceAlpha" type="matrix" values="0 0 0 0 0 0 0 0 0 0 0 0 0 0 0 0 0 0 127 0" result="hardAlpha"/>
<feOffset dy="4"/>
<feGaussianBlur stdDeviation="7"/>
<feComposite in2="hardAlpha" operator="out"/>
<feColorMatrix type="matrix" values="0 0 0 0 0 0 0 0 0 0 0 0 0 0 0 0 0 0 0.1 0"/>
<feBlend mode="normal" in2="BackgroundImageFix" result="effect1_dropShadow_1817_8785"/>
<feBlend mode="normal" in="SourceGraphic" in2="effect1_dropShadow_1817_8785" result="shape"/>
</filter>
<clipPath id="clip0_1817_8785">
<rect width="122.782" height="46.6917" fill="white" transform="translate(31.3132 47.4033) rotate(-5)"/>
</clipPath>
</defs>
</svg>
