<svg width="48" height="50" viewBox="0 0 48 50" fill="none" xmlns="http://www.w3.org/2000/svg">
<rect width="48" height="50" rx="4" fill="black"/>
<path d="M36.2267 35.3923H10.9547C10.4563 35.3923 10.0522 34.9901 10.0522 34.494C10.0522 33.9979 10.4563 33.5957 10.9547 33.5957H36.2267C36.7251 33.5957 37.1291 33.9979 37.1291 34.494C37.1291 34.9901 36.7251 35.3923 36.2267 35.3923Z" fill="white"/>
<path d="M32.6746 17.2775L27.659 19.0945L21.3155 15.8435C20.8274 15.5933 20.2562 15.5572 19.7401 15.7441L18.0524 16.3555C17.7078 16.4805 17.6163 16.9232 17.8836 17.1733L22.0921 21.1112L15.6427 23.448C15.1546 23.6247 14.6154 23.5953 14.1498 23.3663L13.2377 22.9177C12.7557 22.6807 12.197 22.65 11.6916 22.8331L10.2799 23.3445C9.94772 23.465 9.84727 23.8838 10.0889 24.1403L11.0838 25.1967C12.465 26.6633 14.3757 27.5233 16.3943 27.5862L17.0724 27.6073C18.0431 27.6377 19.011 27.4827 19.923 27.1508L36.2181 21.2224C36.9392 20.9611 37.3811 20.1826 37.1456 19.4558C36.5407 17.5902 34.5083 16.6124 32.674 17.2768L32.6746 17.2775Z" fill="white"/>
<path d="M28.0329 26.1201L26.4508 29.858C26.2419 30.3641 25.8273 30.7532 25.31 30.9407L23.6223 31.5521C23.2744 31.678 22.9214 31.3949 22.9628 31.0356L23.3428 27.8193L28.0329 26.1201Z" fill="white"/>
</svg>
