<svg width="214" height="203" viewBox="0 0 214 203" fill="none" xmlns="http://www.w3.org/2000/svg">
<path d="M89.4229 90.4476L14.4964 128.63C18.0257 132.496 34.2771 162.34 41.9616 176.779L116.843 137.664L123.499 124.625L112.824 97.4095L89.4229 90.4476Z" fill="#185AA6"/>
<rect x="96.1064" y="92.5439" width="4.17611" height="88.5499" transform="rotate(63.2056 96.1064 92.5439)" fill="white"/>
<rect x="116.179" y="127.788" width="4.17611" height="88.5499" transform="rotate(63.2056 116.179 127.788)" fill="white"/>
<g style="mix-blend-mode:multiply">
<path fill-rule="evenodd" clip-rule="evenodd" d="M100.36 19.2647C99.1496 29.4048 92.8391 55.9678 77.2821 81.0987C79.105 83.2975 81.3615 86.1406 83.8486 89.459C98.174 108.786 107.948 129.286 111.371 139.708C111.633 140.667 111.87 141.617 112.078 142.558L112.227 142.603L112.233 142.626L112.243 142.608C123.235 145.94 147.83 154.331 162.518 161.521L188.815 101.825L188.815 101.831L201.563 72.8937L201.561 72.8919L211.906 49.4076L122.821 10.1642L115.968 12.9411L100.323 18.9873C100.478 19.0194 100.637 19.0527 100.798 19.0872L100.36 19.2647Z" fill="#762D26" fill-opacity="0.6"/>
</g>
<path d="M89.2668 85.4447C102.869 63.4724 108.386 40.2479 109.444 31.3823L129.083 23.4256L206.971 57.7367L163.79 155.759C150.883 149.441 129.227 142.063 119.689 139.179C115.369 119.688 97.392 95.2453 89.2668 85.4447Z" fill="white"/>
<path d="M180.753 66.2755C151.359 58.8944 107.467 75.8537 89.2695 85.4468C106.341 105.937 117.551 130.277 119.825 139.24C127.589 126.21 163.679 85.1681 180.753 66.2755Z" fill="#E93234"/>
<path d="M180.969 66.7556C151.92 44.0773 121.161 33.563 109.412 31.1407L129.217 23.4867L178.361 45.1354C181.565 51.9847 181.584 62.6795 180.969 66.7556Z" fill="#E93234"/>
<path d="M186.782 103.571C186.692 86.829 182.643 70.958 180.63 65.1152C186.883 67.8695 194.767 75.0333 197.928 78.2709L186.782 103.571Z" fill="#E93234"/>
<circle cx="181.457" cy="66.11" r="3.18442" transform="rotate(23.7743 181.457 66.11)" fill="black"/>
<circle cx="182.13" cy="65.3005" r="3.18442" transform="rotate(23.7743 182.13 65.3005)" fill="#FEC92D"/>
</svg>
