<svg width="118" height="73" viewBox="0 0 118 73" fill="none" xmlns="http://www.w3.org/2000/svg">
<path d="M31 17.2102V24.9902L89.2318 57.7603L117.994 41.0216V33.7132L59.998 0L31 17.2102Z" fill="#84B48A"/>
<path d="M31 17.2102L89.2318 49.9804L117.994 33.7132L60.2338 0L31 17.2102Z" fill="#A2D5AA"/>
<path d="M36.4224 18.091L87.5528 47.1513L112.807 32.7257L62.0911 2.8291L36.4224 18.091Z" fill="#A2D5AA" stroke="#61996C"/>
<path d="M107.149 31.3559L90.8822 22.1614C92.2024 33.6663 77.7584 35.2852 70.3714 34.6565L85.224 43.6152C87.4873 42.1064 90.5678 42.9865 91.8252 43.6152L107.149 34.6565C103.189 32.959 105.499 31.7488 107.149 31.3559Z" fill="#7FB488"/>
<path d="M66.1277 35.5992V44.7937L56.226 39.1355V30.884L86.167 13.6738L95.3615 19.0962L66.1277 35.5992Z" fill="#495768"/>
<path d="M66.1277 35.5989V44.7934L56.226 39.1353V30.8838L66.1277 35.5989Z" fill="#293036"/>
<path d="M43.0236 18.8609L59.2908 28.0554C57.9706 16.5505 72.4146 14.9316 79.8016 15.5603L64.949 6.60156C62.6857 8.1104 59.6052 7.23025 58.3478 6.60156L43.0236 15.5603C46.9843 17.2578 44.6739 18.468 43.0236 18.8609Z" fill="#7FB488"/>
<mask id="mask0_1804_7312" style="mask-type:alpha" maskUnits="userSpaceOnUse" x="56" y="13" width="40" height="32">
<path d="M66.1277 35.5992V44.7937L56.226 39.1355V30.884L86.167 13.6738L95.3615 19.0962L66.1277 35.5992Z" fill="#495768"/>
</mask>
<g mask="url(#mask0_1804_7312)">
<path d="M57.1689 39.8428V31.3556L87.5815 13.6738" stroke="white"/>
<path d="M64.7131 44.3227V35.3639L95.3614 17.918" stroke="white"/>
</g>
<path d="M89.2318 54.4601L79.3301 48.0947L89.2318 53.5171L94.1827 50.688L89.2318 54.4601Z" fill="#6A9770"/>
<path d="M0 32.2415V40.0214L58.2318 72.7916L86.9941 56.0529V48.7444L28.998 15.0312L0 32.2415Z" fill="#84B48A"/>
<path d="M0 32.2415L58.2318 65.0116L86.9941 48.7444L29.2338 15.0312L0 32.2415Z" fill="#A2D5AA"/>
<path d="M5.42242 33.1222L56.5528 62.1826L81.8075 47.7569L31.0911 17.8604L5.42242 33.1222Z" fill="#A2D5AA" stroke="#61996C"/>
<path d="M76.1493 46.3872L59.8821 37.1927C61.2023 48.6976 46.7583 50.3164 39.3713 49.6877L54.2239 58.6465C56.4872 57.1376 59.5678 58.0178 60.8251 58.6465L76.1493 49.6877C72.1886 47.9903 74.499 46.7801 76.1493 46.3872Z" fill="#7FB488"/>
<path d="M35.1277 50.6304V59.8249L25.226 54.1668V45.9153L55.167 28.7051L64.3615 34.1275L35.1277 50.6304Z" fill="#495768"/>
<path d="M35.1277 50.6302V59.8247L25.226 54.1665V45.915L35.1277 50.6302Z" fill="#293036"/>
<path d="M12.0236 33.8921L28.2908 43.0866C26.9705 31.5817 41.4145 29.9629 48.8016 30.5916L33.9489 21.6328C31.6856 23.1417 28.6051 22.2615 27.3477 21.6328L12.0236 30.5916C15.9843 32.289 13.6739 33.4992 12.0236 33.8921Z" fill="#7FB488"/>
<mask id="mask1_1804_7312" style="mask-type:alpha" maskUnits="userSpaceOnUse" x="25" y="28" width="40" height="32">
<path d="M35.1277 50.6304V59.8249L25.226 54.1668V45.9153L55.167 28.7051L64.3615 34.1275L35.1277 50.6304Z" fill="#495768"/>
</mask>
<g mask="url(#mask1_1804_7312)">
<path d="M26.1691 54.874V46.3868L56.5816 28.7051" stroke="white"/>
<path d="M33.7133 59.3539V50.3952L64.3616 32.9492" stroke="white"/>
</g>
<path d="M58.2318 69.4914L48.3301 63.126L58.2318 68.5484L63.1827 65.7193L58.2318 69.4914Z" fill="#6A9770"/>
<path d="M9.43024 19.0393V26.8193L67.6621 59.5894L96.4243 42.8507V35.5423L38.4283 1.8291L9.43024 19.0393Z" fill="#84B48A"/>
<path d="M9.43024 19.0393L67.6621 51.8095L96.4243 35.5423L38.664 1.8291L9.43024 19.0393Z" fill="#A2D5AA"/>
<path d="M14.8527 19.9201L65.9831 48.9804L91.2378 34.5548L40.5214 4.6582L14.8527 19.9201Z" fill="#A2D5AA" stroke="#61996C"/>
<path d="M85.5797 33.185L69.3125 23.9905C70.6327 35.4954 56.1887 37.1143 48.8017 36.4856L63.6543 45.4443C65.9176 43.9355 68.9981 44.8157 70.2555 45.4443L85.5797 36.4856C81.6189 34.7881 83.9294 33.5779 85.5797 33.185Z" fill="#7FB488"/>
<path d="M44.558 37.4283V46.6228L34.6562 40.9646V32.7131L64.5973 15.5029L73.7918 20.9253L44.558 37.4283Z" fill="#495768"/>
<path d="M44.558 37.428V46.6225L34.6562 40.9644V32.7129L44.558 37.428Z" fill="#293036"/>
<path d="M21.4539 20.69L37.7211 29.8845C36.4009 18.3796 50.8449 16.7607 58.2319 17.3894L43.3793 8.43066C41.116 9.9395 38.0354 9.05935 36.7781 8.43066L21.4539 17.3894C25.4146 19.0869 23.1042 20.2971 21.4539 20.69Z" fill="#7FB488"/>
<mask id="mask2_1804_7312" style="mask-type:alpha" maskUnits="userSpaceOnUse" x="34" y="15" width="40" height="32">
<path d="M44.558 37.4283V46.6228L34.6562 40.9646V32.7131L64.5973 15.5029L73.7918 20.9253L44.558 37.4283Z" fill="#495768"/>
</mask>
<g mask="url(#mask2_1804_7312)">
<path d="M35.5992 41.6719V33.1847L66.0118 15.5029" stroke="white"/>
<path d="M43.1434 46.1508V37.1921L73.7918 19.7461" stroke="white"/>
</g>
<path d="M67.6621 56.2893L57.7604 49.9238L67.6621 55.3462L72.613 52.5171L67.6621 56.2893Z" fill="#6A9770"/>
</svg>
