<svg width="128" height="126" viewBox="0 0 128 126" fill="none" xmlns="http://www.w3.org/2000/svg">
<path d="M127.115 77.7057L68.5419 48.8311L0 89.8148L51.292 125.397L127.115 77.7057Z" fill="#121235" fill-opacity="0.4"/>
<path d="M24.813 37.0164C24.5988 23.0618 21.9307 0.616126 34.6581 2.067C34.6581 2.067 49.3794 -1.50801 45.844 50.4817" stroke="#3A3DB3" stroke-width="2.63286" stroke-linecap="round"/>
<path d="M3.17722 23.0967L0 94.811L51.138 125.827L51.4406 50.33L3.17722 23.0967Z" fill="#6E6CE9"/>
<path d="M9.68249 22.3402L3.17676 23.0966L51.5915 50.4812L52.8019 46.3962L58.8537 45.4884L10.7416 18.8604L9.68249 22.3402Z" fill="#5756D8"/>
<path d="M55.0689 117.959L51.1353 125.826L51.4378 50.6323L52.7995 46.3961L59.0026 45.4883L64.298 117.959H55.0689Z" fill="#8F8FF1"/>
<path d="M17.3983 42.7658C17.1966 28.7962 19.7888 1.21994 31.7714 2.67238C33.1319 2.67238 42.8149 1.7646 39.4864 53.8104" stroke="#3A3DB3" stroke-width="2.63286" stroke-linecap="round"/>
</svg>
