<svg width="27" height="30" viewBox="0 0 27 30" fill="none" xmlns="http://www.w3.org/2000/svg">
<ellipse cx="11.6871" cy="19.6642" rx="7.79524" ry="5.81182" transform="rotate(31.7501 11.6871 19.6642)" fill="#032C9E"/>
<ellipse cx="12.154" cy="18.9097" rx="7.79524" ry="4.92457" transform="rotate(31.7501 12.154 18.9097)" fill="#396DFF"/>
<path d="M13.9581 10.1272C15.1536 8.93165 17.0468 8.7985 18.3979 9.81491C19.7291 10.8164 20.1366 12.636 19.3596 14.1096L17.3983 17.8291C16.2522 20.0029 13.4439 20.6532 11.4588 19.2046C9.46086 17.7467 9.23587 14.8495 10.9848 13.1005L13.9581 10.1272Z" fill="#B6C9FF"/>
<ellipse cx="18.5399" cy="9.23538" rx="5.98147" ry="4.44434" transform="rotate(31.7501 18.5399 9.23538)" fill="#396DFF"/>
<ellipse cx="19.3719" cy="7.84702" rx="4.53996" ry="2.64944" transform="rotate(31.7501 19.3719 7.84702)" fill="#032C9E"/>
</svg>
