<svg width="171" height="96" viewBox="0 0 171 96" fill="none" xmlns="http://www.w3.org/2000/svg">
<path d="M170.45 39.8821L99.9806 2.44434L12.1235 48.691L86.2617 95.1579L170.45 39.8821Z" fill="#13141E" fill-opacity="0.3"/>
<path d="M89.5049 38.4533C89.5049 40.0828 88.3262 41.7991 86.0123 43.168C85.9978 43.1825 85.9688 43.1969 85.9399 43.2114C83.5826 44.5638 80.5718 45.2627 77.7058 45.2627C75.334 45.2627 73.0656 44.783 71.3761 43.8069L15.6253 11.6108L14.6513 11.0587C12.964 10.0847 12.1348 8.7737 12.1348 7.40686C12.1348 5.76293 13.3424 4.01768 15.6997 2.64877C18.057 1.29641 21.0678 0.583008 23.9338 0.583008C26.3056 0.583008 28.574 1.06275 30.2635 2.05324L86.9904 34.8036C88.6777 35.7775 89.5069 37.0886 89.5069 38.4554L89.5049 38.4533Z" fill="#D7DAFF"/>
<path d="M89.5015 38.4527V47.3713C89.5015 49.0297 88.2939 50.7605 85.9366 52.1294C83.5793 53.4817 80.5685 54.1807 77.7025 54.1807C76.3935 54.1807 75.1135 54.0359 73.9494 53.7299C73.0044 53.4962 72.1317 53.1633 71.3749 52.7249L14.6459 19.9766C12.9586 19.0027 12.1294 17.6917 12.1294 16.3248V7.40625C12.1294 8.77309 12.9586 10.0841 14.6459 11.058L15.6199 11.6102L71.3728 43.8063C72.1297 44.2426 73.0023 44.5776 73.9473 44.8113C75.1115 45.1173 76.3915 45.2621 77.7004 45.2621C80.5664 45.2621 83.5772 44.5632 85.9345 43.2108C85.9635 43.1963 85.9924 43.1819 86.0069 43.1674C88.3208 41.8005 89.4995 40.0822 89.4995 38.4527H89.5015Z" fill="#AEB2F4"/>
<path d="M89.4999 38.4531V47.3717C89.4999 49.0301 88.2923 50.7609 85.935 52.1298C83.5777 53.4821 80.5669 54.1811 77.7009 54.1811C76.3919 54.1811 75.1119 54.0363 73.9478 53.7303V44.8117C75.1119 45.1178 76.3919 45.2625 77.7009 45.2625C80.5669 45.2625 83.5777 44.5636 85.935 43.2112C85.9639 43.1967 85.9929 43.1823 86.0074 43.1678C88.3213 41.8009 89.4999 40.0826 89.4999 38.4531Z" fill="#888ABF"/>
<path d="M89.5015 46.4938V86.2438C89.5015 87.9022 88.2939 89.633 85.9366 91.0019C83.5793 92.3543 80.5685 93.0532 77.7025 93.0532C76.3935 93.0532 75.1135 92.9084 73.9494 92.6024C73.0044 92.3687 72.1317 92.0358 71.3749 91.5974L14.6459 58.8471C12.9586 57.8731 12.1294 56.5621 12.1294 55.1953V15.4453C12.1294 16.8122 12.9586 18.1232 14.6459 19.0971L15.6199 19.6492L71.3728 51.8475C72.1297 52.2838 73.0023 52.6188 73.9473 52.8504C75.1115 53.1564 76.3915 53.3011 77.7004 53.3011C80.5664 53.3011 83.5772 52.6022 85.9345 51.2499C85.9635 51.2354 85.9924 51.2209 86.0069 51.2064C88.3208 49.8396 89.4995 48.1212 89.4995 46.4918L89.5015 46.4938Z" fill="#3B4951"/>
<path d="M89.5053 46.4941V86.2441C89.5053 87.9025 88.2977 89.6333 85.9404 91.0022C83.583 92.3546 80.5723 93.0535 77.7062 93.0535C76.3973 93.0535 75.1173 92.9087 73.9531 92.6027V52.8527C75.1173 53.1588 76.3973 53.3035 77.7062 53.3035C80.5723 53.3035 83.583 52.6046 85.9404 51.2522C85.9693 51.2377 85.9983 51.2233 86.0127 51.2088C88.3266 49.842 89.5053 48.1236 89.5053 46.4941Z" fill="#2C353B"/>
<path d="M28.4479 2.46777V7.50088C28.4479 8.14191 28.026 8.7664 27.1968 9.24613C25.5384 10.2056 22.8316 10.2056 21.1588 9.24613C20.3296 8.7664 19.9077 8.13984 19.9077 7.50088V2.46777H28.4479Z" fill="#AEB2F4"/>
<path d="M27.2012 4.20753C25.5345 5.16907 22.8318 5.16907 21.1631 4.20753C19.4964 3.24598 19.4964 1.68477 21.1631 0.721157C22.8298 -0.240386 25.5324 -0.240386 27.2012 0.721157C28.8678 1.6827 28.8678 3.24391 27.2012 4.20753Z" fill="#D7DAFF"/>
<path d="M80.4674 33.8887V36.5417C80.4674 36.9946 80.1696 37.4371 79.5824 37.7762C78.4099 38.4545 76.4951 38.4545 75.3123 37.7762C74.725 37.4371 74.4272 36.9946 74.4272 36.5417V33.8887H80.4674Z" fill="#AEB2F4"/>
<path d="M79.5867 35.1167C78.408 35.797 76.4953 35.797 75.3166 35.1167C74.138 34.4364 74.138 33.3322 75.3166 32.6518C76.4953 31.9715 78.408 31.9715 79.5867 32.6518C80.7654 33.3322 80.7654 34.4364 79.5867 35.1167Z" fill="#D7DAFF"/>
<path d="M43.9215 11.2051V13.7506C43.9215 15.0202 43.084 16.2609 41.4401 17.2121C38.1502 19.1166 32.7842 19.1166 29.4653 17.2121C27.8214 16.2609 26.9839 15.0202 26.9839 13.7506V11.2051H43.9215Z" fill="#AEB2F4"/>
<path d="M41.4552 14.6518C38.1487 16.5605 32.7868 16.5605 29.4803 14.6518C26.1739 12.7432 26.1739 9.64769 29.4803 7.73908C32.7868 5.83046 38.1466 5.83046 41.4552 7.73908C44.7616 9.64769 44.7616 12.7432 41.4552 14.6518Z" fill="#D7DAFF"/>
<path d="M41.0517 9.37109V11.0564C41.0517 11.8959 40.4975 12.7168 39.4098 13.3475C37.2344 14.6069 33.684 14.6069 31.49 13.3475C30.4023 12.7168 29.8481 11.898 29.8481 11.0564V9.37109H41.0517Z" fill="#AEB2F4"/>
<path d="M39.4146 11.6514C37.2269 12.9148 33.6805 12.9148 31.4948 11.6514C29.3071 10.388 29.3071 8.3408 31.4948 7.07942C33.6826 5.81597 37.2269 5.81597 39.4146 7.07942C41.6024 8.34287 41.6024 10.39 39.4146 11.6514Z" fill="#D7DAFF"/>
<path d="M57.1301 32.9397L53.2715 30.7127V24.749L57.1301 26.9781V32.9397Z" fill="#AEB2F4"/>
<path d="M56.1552 30.8723L54.2466 29.7681V26.8193L56.1552 27.9215V30.8723Z" fill="#888ABF"/>
<path d="M67.7263 26.8219L57.1328 32.9386V26.977L67.7263 20.8604V26.8219Z" fill="#888ABF"/>
<path d="M67.7236 20.8687L57.1301 26.9853L53.2715 24.7562L63.865 18.6416L67.7236 20.8687Z" fill="#D7DAFF"/>
<path d="M44.0486 31.9996C44.0486 33.3313 43.1139 33.871 41.9601 33.2052C40.8062 32.5393 39.8716 30.9181 39.8716 29.5865C39.8716 28.2548 40.8062 27.7151 41.9601 28.3809C43.1139 29.0468 44.0486 30.6679 44.0486 31.9996Z" fill="#3B4951"/>
<path d="M59.5994 40.9801C59.5994 42.3118 58.6647 42.8515 57.5109 42.1856C56.357 41.5198 55.4224 39.8986 55.4224 38.5669C55.4224 37.2352 56.357 36.6955 57.5109 37.3614C58.6647 38.0272 59.5994 39.6484 59.5994 40.9801Z" fill="#3B4951"/>
<path d="M51.5986 60.0405C51.5841 63.6199 50.3186 66.122 48.2963 67.3007L40.9431 71.5769C41.1622 71.4467 41.3794 71.2999 41.5841 71.1406C41.7433 71.0104 41.9046 70.878 42.0493 70.7188C42.2086 70.574 42.3554 70.3983 42.4857 70.2246C42.6304 70.0653 42.7627 69.8896 42.8785 69.7014V69.6869C43.0088 69.4988 43.1267 69.2941 43.228 69.0914C43.3149 68.9322 43.4017 68.7564 43.4617 68.5827C43.5196 68.4524 43.5775 68.3056 43.6209 68.1609C43.6933 68.0306 43.7367 67.8838 43.7656 67.739C43.867 67.404 43.9538 67.0546 44.0283 66.6906C44.0862 66.3846 44.1296 66.0806 44.1585 65.7601C44.173 65.6733 44.1875 65.5864 44.1875 65.483C44.2309 65.1046 44.2454 64.7262 44.2454 64.3188C44.2599 57.131 39.2123 48.3882 32.9695 44.7799C30.7424 43.4999 28.6477 43.0346 26.9025 43.2952C26.7432 43.3241 26.5819 43.3531 26.4372 43.382C26.3214 43.411 26.218 43.4399 26.1022 43.4833C25.9719 43.5123 25.8396 43.5557 25.7093 43.6136C25.6514 43.6281 25.5935 43.657 25.5356 43.686C25.3619 43.7439 25.2006 43.8307 25.0414 43.9341C24.998 43.9341 24.9546 43.9631 24.9111 43.992L32.2644 39.7158C34.3156 38.5226 37.1672 38.6984 40.3103 40.516C46.5655 44.1244 51.6151 52.8527 51.6007 60.0405H51.5986Z" fill="#D7DAFF"/>
<path d="M44.2489 64.3167C44.2489 64.7241 44.2344 65.1025 44.191 65.4809C44.191 65.5822 44.1765 65.6712 44.1621 65.758C44.1331 66.0785 44.0897 66.399 44.0318 66.6885C43.9594 67.0525 43.8726 67.4019 43.7692 67.7369C43.7258 67.8817 43.6823 68.0285 43.6244 68.1588C43.5955 68.3035 43.5376 68.4503 43.4652 68.5806C43.3928 68.7543 43.3205 68.9301 43.2315 69.0893C43.1302 69.294 43.0124 69.4966 42.8821 69.6848V69.6993C42.7518 69.8875 42.6339 70.0632 42.4892 70.2225C42.3589 70.3962 42.2121 70.5574 42.0529 70.7167C41.9081 70.8614 41.7468 71.0082 41.5876 71.1385C39.4929 72.7824 36.3787 72.7824 32.9027 70.7746C26.6475 67.1662 21.5979 58.4379 21.6123 51.2501C21.6268 47.6851 22.8779 45.1686 24.9147 43.9899C24.9581 43.961 25.0015 43.932 25.0449 43.932C25.2042 43.8307 25.3655 43.7583 25.5392 43.6839C25.5971 43.6549 25.655 43.626 25.7129 43.6115C25.8431 43.5536 25.9755 43.5102 26.1057 43.4812C26.2071 43.4378 26.3249 43.4088 26.4407 43.3799C26.5999 43.3509 26.7468 43.322 26.906 43.293C28.6512 43.0304 30.746 43.4978 32.973 44.7777C39.2137 48.3861 44.2634 57.1289 44.2489 64.3167Z" fill="#AEB2F4"/>
<path d="M41.0111 63.9149C40.9987 66.8595 39.9586 68.919 38.2939 69.8888L28.1657 75.7801C28.3456 75.6726 28.5255 75.5526 28.693 75.4203C28.8253 75.3128 28.9556 75.2052 29.0755 75.0729C29.2079 74.953 29.3278 74.8103 29.4353 74.6655C29.5553 74.5332 29.6628 74.3905 29.7579 74.2354V74.223C29.8655 74.0679 29.9606 73.9004 30.0454 73.7329C30.1177 73.6006 30.188 73.4579 30.2377 73.3132C30.2852 73.2056 30.3328 73.0857 30.37 72.9658C30.43 72.8582 30.4651 72.7383 30.4899 72.6184C30.5727 72.3433 30.645 72.0559 30.705 71.7561C30.7526 71.5038 30.7877 71.2536 30.8125 70.9889C30.8249 70.9165 30.8373 70.8462 30.8373 70.7615C30.8725 70.4492 30.8849 70.139 30.8849 69.804C30.8973 63.89 26.743 56.694 21.6065 53.7266C19.7744 52.672 18.0499 52.2895 16.6148 52.5045C16.4824 52.5294 16.3522 52.5521 16.2322 52.5769C16.1371 52.6017 16.0523 52.6245 15.9572 52.6596C15.8497 52.6845 15.7421 52.7196 15.6346 52.7672C15.5871 52.7796 15.5395 52.8023 15.4919 52.8271C15.3493 52.8747 15.2169 52.9471 15.0846 53.0298C15.0494 53.0298 15.0122 53.0546 14.9771 53.0773L25.1053 47.1881C26.7927 46.2059 29.1396 46.3507 31.7265 47.8457C36.8754 50.8151 41.0276 57.9988 41.0173 63.9128L41.0111 63.9149Z" fill="#D7DAFF"/>
<path d="M34.9408 69.6264C34.9264 73.2059 33.6608 75.7079 31.6385 76.8866L19.3307 84.0454C19.5499 83.9152 19.7671 83.7684 19.9718 83.6091C20.131 83.4789 20.2923 83.3465 20.437 83.1873C20.5963 83.0425 20.7431 82.8668 20.8734 82.6931C21.0181 82.5339 21.1504 82.3581 21.2662 82.1699V82.1554C21.3965 81.9673 21.5144 81.7626 21.6157 81.5599C21.7026 81.4007 21.7894 81.2249 21.8494 81.0512C21.9073 80.9209 21.9652 80.7741 22.0086 80.6294C22.081 80.4991 22.1244 80.3523 22.1533 80.2075C22.2547 79.8726 22.3415 79.5231 22.416 79.1592C22.4739 78.8531 22.5173 78.5491 22.5462 78.2286C22.5607 78.1418 22.5752 78.0549 22.5752 77.9515C22.6186 77.5731 22.6331 77.1947 22.6331 76.7873C22.6476 69.5996 17.6 60.8567 11.3572 57.2484C9.13012 55.9684 7.0354 55.5031 5.29015 55.7637C5.13093 55.7926 4.96964 55.8216 4.82489 55.8505C4.70909 55.8795 4.6057 55.9084 4.4899 55.9518C4.35963 55.9808 4.22728 56.0242 4.09701 56.0821C4.03911 56.0966 3.98121 56.1255 3.92331 56.1545C3.74962 56.2124 3.58832 56.2992 3.4291 56.4026C3.38568 56.4026 3.34225 56.4316 3.29883 56.4605L15.6066 49.3017C17.6579 48.1085 20.5094 48.2843 23.6525 50.1019C29.9077 53.7103 34.9574 62.4386 34.9429 69.6264H34.9408Z" fill="#D7DAFF"/>
<path d="M22.6366 76.7855C22.6366 77.1928 22.6221 77.5712 22.5787 77.9497C22.5787 78.051 22.5642 78.1378 22.5498 78.2267C22.5208 78.5473 22.4774 78.8678 22.4195 79.1573C22.3471 79.5212 22.2603 79.8707 22.1569 80.2057C22.1134 80.3504 22.07 80.4972 22.0121 80.6275C21.9832 80.7722 21.9253 80.9191 21.8529 81.0493C21.7805 81.223 21.7082 81.3988 21.6192 81.558C21.5179 81.7627 21.4 81.9654 21.2698 82.1536V82.168C21.1395 82.3562 21.0216 82.532 20.8769 82.6912C20.7466 82.8649 20.5998 83.0262 20.4406 83.1854C20.2958 83.3302 20.1345 83.477 19.9753 83.6072C17.8806 85.2512 14.7664 85.2512 11.2904 83.2433C5.03521 79.6349 -0.0144438 70.9066 3.10414e-05 63.7188C0.0145059 60.1539 1.26555 57.6373 3.30236 56.4587C3.34579 56.4297 3.38921 56.4008 3.43264 56.4008C3.59186 56.2994 3.75315 56.2271 3.92685 56.1526C3.98475 56.1237 4.04265 56.0947 4.10055 56.0802C4.23082 56.0223 4.36316 55.9789 4.49343 55.95C4.59476 55.9065 4.71262 55.8776 4.82842 55.8486C4.98765 55.8197 5.13446 55.7907 5.29369 55.7618C7.03894 55.4992 9.13365 55.9665 11.3607 57.2465C17.6014 60.8549 22.6511 69.5977 22.6366 76.7855Z" fill="#AEB2F4"/>
<path d="M20.5061 75.5525C20.5061 81.4127 16.3911 83.7887 11.3146 80.8586C6.23804 77.9284 2.12305 70.8006 2.12305 64.9383C2.12305 59.076 6.23804 56.7021 11.3146 59.6322C16.3911 62.5624 20.5061 69.6902 20.5061 75.5525Z" fill="#3B4951"/>
<path d="M18.6901 74.5019C18.6901 79.2062 15.3878 81.1128 11.3121 78.7617C10.1562 78.0937 9.05611 77.1508 8.07595 76.0218C6.60159 74.3468 5.40224 72.2707 4.68884 70.1553C4.2029 68.7409 3.93408 67.3183 3.93408 65.9824C3.93408 61.2781 7.23641 59.3716 11.3121 61.7227C12.4701 62.3906 13.5681 63.3335 14.5483 64.4626C16.0226 66.1375 17.222 68.2136 17.9354 70.329C18.4213 71.7434 18.6901 73.1661 18.6901 74.5019Z" fill="#2C353B"/>
<path d="M17.1986 73.6418C17.1986 77.3949 14.5642 78.9147 11.3156 77.0392C8.06704 75.1637 5.43262 70.6 5.43262 66.8489C5.43262 63.0979 8.06704 61.5759 11.3156 63.4515C14.5642 65.327 17.1986 69.8907 17.1986 73.6418Z" fill="#3B4951"/>
<path d="M13.5128 71.5155C13.5128 72.9196 12.5264 73.4883 11.3105 72.7873C10.0946 72.0863 9.11035 70.3782 9.11035 68.9742C9.11035 67.5701 10.0967 67.0015 11.3105 67.7025C12.5264 68.4035 13.5128 70.1115 13.5128 71.5155Z" fill="#5D7280"/>
<path d="M87.2769 83.9743L83.5259 86.1414V56.8691L87.2769 54.7041V83.9743Z" fill="#888ABF"/>
<path d="M31.8652 26.3873L20.428 19.7847C19.8428 19.4456 19.3672 18.5399 19.3672 17.7582C19.3672 16.9766 19.8428 16.6188 20.428 16.9559L31.8652 23.5585C32.4504 23.8976 32.926 24.8033 32.926 25.585C32.926 26.3645 32.4504 26.7244 31.8652 26.3873Z" fill="#3B4951"/>
</svg>
