<svg width="303" height="14" viewBox="0 0 303 14" fill="none" xmlns="http://www.w3.org/2000/svg">
<path d="M293.026 5.6311L292.705 5.95205L292.384 5.6311L292.705 5.31014L293.026 5.6311ZM295.296 11.0779C295.045 11.0779 294.842 10.8747 294.842 10.624C294.842 10.3733 295.045 10.1701 295.296 10.1701L295.296 11.0779ZM294.975 8.22157L292.705 5.95205L293.347 5.31014L295.617 7.57965L294.975 8.22157ZM292.705 5.31014L294.975 3.04063L295.617 3.68254L293.347 5.95205L292.705 5.31014ZM293.026 5.17719L297.792 5.17719L297.792 6.085L293.026 6.085L293.026 5.17719ZM297.792 11.0779L295.296 11.0779L295.296 10.1701L297.792 10.1701L297.792 11.0779ZM300.743 8.12756C300.743 9.757 299.422 11.0779 297.792 11.0779L297.792 10.1701C298.92 10.1701 299.835 9.25563 299.835 8.12756L300.743 8.12756ZM297.792 5.17719C299.422 5.17719 300.743 6.49812 300.743 8.12756L299.835 8.12756C299.835 6.99948 298.92 6.085 297.792 6.085L297.792 5.17719Z" fill="white" fill-opacity="0.4"/>
<rect x="243.815" y="4.26953" width="7.26244" height="2.26951" rx="0.453902" stroke="white" stroke-opacity="0.4" stroke-width="0.907805" stroke-linejoin="round"/>
<rect x="243.815" y="8.35449" width="7.26244" height="2.26951" rx="0.453902" stroke="white" stroke-opacity="0.4" stroke-width="0.907805" stroke-linejoin="round"/>
<path d="M268.88 7.79131C268.88 7.17502 268.88 6.86688 269.004 6.59602C269.129 6.32515 269.363 6.12462 269.831 5.72354L270.285 5.33448C271.131 4.60954 271.553 4.24707 272.057 4.24707C272.561 4.24707 272.984 4.60954 273.83 5.33448L274.283 5.72354C274.751 6.12462 274.985 6.32515 275.11 6.59602C275.235 6.86688 275.235 7.17502 275.235 7.79131V9.71603C275.235 10.5719 275.235 10.9999 274.969 11.2658C274.703 11.5316 274.275 11.5316 273.419 11.5316H270.695C269.84 11.5316 269.412 11.5316 269.146 11.2658C268.88 10.9999 268.88 10.5719 268.88 9.71603V7.79131Z" stroke="white" stroke-opacity="0.4" stroke-width="0.907805"/>
<path d="M273.192 11.532V9.2625C273.192 9.01181 272.989 8.80859 272.738 8.80859H271.377C271.126 8.80859 270.923 9.01181 270.923 9.2625V11.532" stroke="white" stroke-opacity="0.4" stroke-width="0.907805" stroke-linecap="round" stroke-linejoin="round"/>
<circle cx="6.5" cy="7.5" r="6.5" fill="white"/>
<g filter="url(#filter0_i_4100_2519)">
<circle cx="6.5" cy="7.5" r="4.5" fill="#434343"/>
</g>
<path d="M24.2109 4.73047C23.8516 4.94531 23.4746 5.05469 23.0801 5.05859C22.541 5.05859 22.1035 4.87891 21.7676 4.51953C21.4512 4.17188 21.293 3.74219 21.293 3.23047C21.293 2.80859 21.4062 2.43555 21.6328 2.11133C21.9609 1.6543 22.4336 1.42578 23.0508 1.42578C23.2383 1.42578 23.4219 1.44727 23.6016 1.49023C23.875 1.56055 24.0684 1.65234 24.1816 1.76562C24.1816 1.66016 24.1875 1.58398 24.1992 1.53711C24.2188 1.48242 24.2715 1.45508 24.3574 1.45508L24.375 2.5332H24.2344C24.207 2.44727 24.1738 2.36328 24.1348 2.28125C23.916 1.82031 23.5625 1.58984 23.0742 1.58984C22.8594 1.58984 22.6641 1.64453 22.4883 1.75391C22.0859 2.01562 21.8848 2.51172 21.8848 3.24219C21.8848 3.58203 21.9297 3.87695 22.0195 4.12695C22.2031 4.63867 22.5488 4.89453 23.0566 4.89453C23.6543 4.89062 24.0527 4.56641 24.252 3.92188H24.3926V5.0293C24.3457 5.0293 24.3086 5.02344 24.2812 5.01172C24.2344 4.98828 24.2109 4.89453 24.2109 4.73047ZM25.3887 3.75195C25.3887 3.91992 25.4023 4.07227 25.4297 4.20898C25.5312 4.67773 25.7793 4.91211 26.1738 4.91211C26.248 4.91211 26.3203 4.90234 26.3906 4.88281C26.75 4.76953 26.9297 4.38477 26.9297 3.72852C26.9297 3.61523 26.9238 3.51172 26.9121 3.41797C26.8418 2.87109 26.5898 2.59766 26.1562 2.59766C26.0625 2.59766 25.9727 2.61328 25.8867 2.64453C25.5547 2.77734 25.3887 3.14648 25.3887 3.75195ZM26.1738 2.45117C26.4316 2.45117 26.668 2.51953 26.8828 2.65625C27.2461 2.89453 27.4277 3.25977 27.4277 3.75195C27.4277 4.11523 27.3145 4.41797 27.0879 4.66016C26.8418 4.92578 26.5312 5.05859 26.1562 5.05859C25.8906 5.05859 25.6484 4.98438 25.4297 4.83594C25.0703 4.58984 24.8906 4.2207 24.8906 3.72852C24.8906 3.37305 25.0059 3.07617 25.2363 2.83789C25.4863 2.58008 25.7988 2.45117 26.1738 2.45117ZM28.9805 4.85352C29.0039 4.85352 29.0234 4.85547 29.0391 4.85938C29.0977 4.86719 29.127 4.91406 29.127 5H27.8379V4.85352C27.9707 4.85352 28.0664 4.84375 28.125 4.82422C28.2266 4.78906 28.2773 4.68164 28.2773 4.50195V2.65625H27.8379V2.50977H28.6875L28.7109 3.0957C28.7539 2.98633 28.8105 2.88672 28.8809 2.79688C29.0684 2.56641 29.3066 2.45117 29.5957 2.45117C29.7402 2.45117 29.875 2.48828 30 2.5625C30.2695 2.73047 30.4043 3.00977 30.4043 3.40039V4.85352H30.6973C30.7207 4.85352 30.7402 4.85547 30.7559 4.85938C30.8145 4.86719 30.8438 4.91406 30.8438 5H29.5254V4.85352C29.6582 4.85352 29.7539 4.84375 29.8125 4.82422C29.9141 4.78906 29.9648 4.68164 29.9648 4.50195V3.3418C29.9648 3.22852 29.9473 3.12695 29.9121 3.03711C29.8262 2.81445 29.6641 2.70312 29.4258 2.70312C29.3164 2.70312 29.209 2.73633 29.1035 2.80273C28.8574 2.96289 28.7285 3.22461 28.7168 3.58789V4.85352H28.9805ZM32.3086 4.85352C32.332 4.85352 32.3516 4.85547 32.3672 4.85938C32.4258 4.86719 32.4551 4.91406 32.4551 5H31.166V4.85352C31.2988 4.85352 31.3945 4.84375 31.4531 4.82422C31.5547 4.78906 31.6055 4.68164 31.6055 4.50195V2.65625H31.166V2.50977H32.0156L32.0391 3.0957C32.082 2.98633 32.1387 2.88672 32.209 2.79688C32.3965 2.56641 32.6348 2.45117 32.9238 2.45117C33.0684 2.45117 33.2031 2.48828 33.3281 2.5625C33.5977 2.73047 33.7324 3.00977 33.7324 3.40039V4.85352H34.0254C34.0488 4.85352 34.0684 4.85547 34.084 4.85938C34.1426 4.86719 34.1719 4.91406 34.1719 5H32.8535V4.85352C32.9863 4.85352 33.082 4.84375 33.1406 4.82422C33.2422 4.78906 33.293 4.68164 33.293 4.50195V3.3418C33.293 3.22852 33.2754 3.12695 33.2402 3.03711C33.1543 2.81445 32.9922 2.70312 32.7539 2.70312C32.6445 2.70312 32.5371 2.73633 32.4316 2.80273C32.1855 2.96289 32.0566 3.22461 32.0449 3.58789V4.85352H32.3086ZM35.7773 2.59766C35.6758 2.59766 35.5801 2.62109 35.4902 2.66797C35.2168 2.80469 35.0703 3.09766 35.0508 3.54688L35.6719 3.56445C35.8516 3.56836 35.9902 3.56055 36.0879 3.54102C36.2754 3.49805 36.3691 3.37891 36.3691 3.18359C36.3691 3.09766 36.3535 3.01758 36.3223 2.94336C36.2324 2.71289 36.0508 2.59766 35.7773 2.59766ZM36.7969 4.4375C36.7734 4.49219 36.7461 4.54688 36.7148 4.60156C36.5156 4.90625 36.2051 5.05859 35.7832 5.05859C35.5176 5.05859 35.2812 4.99023 35.0742 4.85352C34.7266 4.61914 34.5527 4.25977 34.5527 3.77539C34.5527 3.50977 34.6074 3.27148 34.7168 3.06055C34.9277 2.6543 35.2773 2.45117 35.7656 2.45117C36.0156 2.45117 36.2363 2.50781 36.4277 2.62109C36.6973 2.77734 36.832 2.98828 36.832 3.25391C36.832 3.39844 36.7793 3.50977 36.6738 3.58789C36.5371 3.68555 36.2305 3.73047 35.7539 3.72266L35.0508 3.71094C35.0547 3.875 35.0723 4.02539 35.1035 4.16211C35.209 4.65039 35.4668 4.89453 35.877 4.89453C35.9121 4.89453 35.9492 4.89258 35.9883 4.88867C36.293 4.84961 36.5137 4.68164 36.6504 4.38477L36.7969 4.4375ZM37.2715 3.78125C37.2715 3.52344 37.3203 3.29297 37.418 3.08984C37.625 2.66406 37.9902 2.45117 38.5137 2.45117C38.7246 2.45117 38.9199 2.49609 39.0996 2.58594C39.3535 2.71484 39.4805 2.87891 39.4805 3.07812C39.4805 3.10156 39.4766 3.12695 39.4688 3.1543C39.4336 3.27148 39.3496 3.32617 39.2168 3.31836C39.1699 3.31445 39.127 3.30273 39.0879 3.2832C39.0254 3.24414 38.9824 3.14648 38.959 2.99023C38.9473 2.92383 38.9375 2.875 38.9297 2.84375C38.8867 2.67969 38.7598 2.59766 38.5488 2.59766C38.4121 2.59766 38.2871 2.63281 38.1738 2.70312C37.9043 2.875 37.7695 3.2168 37.7695 3.72852C37.7695 4.01758 37.8281 4.26758 37.9453 4.47852C38.1016 4.75586 38.3184 4.89453 38.5957 4.89453C38.627 4.89453 38.6582 4.89258 38.6895 4.88867C39.0215 4.85742 39.2598 4.6875 39.4043 4.37891L39.5566 4.43164C39.5293 4.49805 39.4922 4.56445 39.4453 4.63086C39.2383 4.91602 38.9316 5.05859 38.5254 5.05859C38.252 5.05859 38.0078 4.98633 37.793 4.8418C37.4453 4.60742 37.2715 4.25391 37.2715 3.78125ZM39.7031 2.65625V2.50977H40.1133V1.95312L40.5527 1.83008V2.50977H41.4609V2.65625H40.5527V4.4375C40.5566 4.73047 40.6641 4.88086 40.875 4.88867C41.0625 4.86133 41.2051 4.68555 41.3027 4.36133L41.4609 4.39062C41.4609 4.39453 41.4609 4.39844 41.4609 4.40234C41.3711 4.84375 41.1465 5.06445 40.7871 5.06445C40.3652 5.04883 40.1406 4.79688 40.1133 4.30859V2.65625H39.7031ZM43.3652 3.75195C43.3652 3.91992 43.3789 4.07227 43.4062 4.20898C43.5078 4.67773 43.7559 4.91211 44.1504 4.91211C44.2246 4.91211 44.2969 4.90234 44.3672 4.88281C44.7266 4.76953 44.9062 4.38477 44.9062 3.72852C44.9062 3.61523 44.9004 3.51172 44.8887 3.41797C44.8184 2.87109 44.5664 2.59766 44.1328 2.59766C44.0391 2.59766 43.9492 2.61328 43.8633 2.64453C43.5312 2.77734 43.3652 3.14648 43.3652 3.75195ZM44.1504 2.45117C44.4082 2.45117 44.6445 2.51953 44.8594 2.65625C45.2227 2.89453 45.4043 3.25977 45.4043 3.75195C45.4043 4.11523 45.291 4.41797 45.0645 4.66016C44.8184 4.92578 44.5078 5.05859 44.1328 5.05859C43.8672 5.05859 43.625 4.98438 43.4062 4.83594C43.0469 4.58984 42.8672 4.2207 42.8672 3.72852C42.8672 3.37305 42.9824 3.07617 43.2129 2.83789C43.4629 2.58008 43.7754 2.45117 44.1504 2.45117ZM46.957 4.85352C46.9805 4.85352 47 4.85547 47.0156 4.85938C47.0742 4.86719 47.1035 4.91406 47.1035 5H45.8145V4.85352C45.9473 4.85352 46.043 4.84375 46.1016 4.82422C46.2031 4.78906 46.2539 4.68164 46.2539 4.50195V2.65625H45.8145V2.50977H46.6641L46.6875 3.0957C46.7305 2.98633 46.7871 2.88672 46.8574 2.79688C47.0449 2.56641 47.2832 2.45117 47.5723 2.45117C47.7168 2.45117 47.8516 2.48828 47.9766 2.5625C48.2461 2.73047 48.3809 3.00977 48.3809 3.40039V4.85352H48.6738C48.6973 4.85352 48.7168 4.85547 48.7324 4.85938C48.791 4.86719 48.8203 4.91406 48.8203 5H47.502V4.85352C47.6348 4.85352 47.7305 4.84375 47.7891 4.82422C47.8906 4.78906 47.9414 4.68164 47.9414 4.50195V3.3418C47.9414 3.22852 47.9238 3.12695 47.8887 3.03711C47.8027 2.81445 47.6406 2.70312 47.4023 2.70312C47.293 2.70312 47.1855 2.73633 47.0801 2.80273C46.834 2.96289 46.7051 3.22461 46.6934 3.58789V4.85352H46.957ZM50.3555 4.85352C50.3789 4.85352 50.3984 4.85547 50.4141 4.85938C50.4727 4.86719 50.502 4.91406 50.502 5H49.1602V4.85352C49.293 4.85352 49.3887 4.84375 49.4473 4.82422C49.5488 4.78906 49.5996 4.68164 49.5996 4.50195V1.33789H49.1602V1.19141H50.0391V4.85352H50.3555ZM51.2637 5.93164C51.3184 5.93164 51.373 5.91992 51.4277 5.89648C51.6191 5.81445 51.8242 5.51562 52.043 5L50.9883 2.66211H50.7012V2.50977H51.8438V2.66211H51.4512L52.2539 4.53711L53.0039 2.66211H52.5762V2.50977H53.4668C53.4668 2.54492 53.4629 2.57422 53.4551 2.59766C53.4434 2.64062 53.3984 2.66211 53.3203 2.66211C53.2852 2.66211 53.2539 2.66602 53.2266 2.67383C53.1797 2.68945 53.1367 2.75195 53.0977 2.86133L52.2305 5C52.1445 5.21094 52.0547 5.39258 51.9609 5.54492C51.7344 5.92383 51.4668 6.11328 51.1582 6.11328C51.0723 6.11328 50.9902 6.09766 50.9121 6.06641C50.7402 6 50.6543 5.89258 50.6543 5.74414C50.6543 5.73242 50.6562 5.71875 50.6602 5.70312C50.6797 5.59375 50.752 5.53906 50.877 5.53906C50.9238 5.53906 50.9648 5.55078 51 5.57422C51.0391 5.60156 51.0801 5.67383 51.123 5.79102C51.1543 5.88477 51.2012 5.93164 51.2637 5.93164ZM56.9297 5.05859C56.6562 5.05469 56.4961 4.87891 56.4492 4.53125C56.4141 4.61328 56.3613 4.69141 56.291 4.76562C56.0957 4.96094 55.8555 5.05859 55.5703 5.05859C55.4531 5.05859 55.3418 5.03711 55.2363 4.99414C54.9746 4.88477 54.8438 4.68164 54.8438 4.38477C54.8438 4.29883 54.8555 4.21875 54.8789 4.14453C55.0117 3.76172 55.5371 3.57031 56.4551 3.57031V3.20117C56.4434 2.82227 56.2539 2.62109 55.8867 2.59766C55.7305 2.59766 55.6152 2.64648 55.541 2.74414C55.5215 2.77148 55.4844 2.85742 55.4297 3.00195C55.3867 3.11523 55.3203 3.17188 55.2305 3.17188C55.2109 3.17188 55.1914 3.16992 55.1719 3.16602C55.0586 3.14648 55.002 3.07617 55.002 2.95508C55.002 2.88867 55.0254 2.82227 55.0723 2.75586C55.2207 2.55273 55.5137 2.45117 55.9512 2.45117C55.9863 2.45117 56.0215 2.45117 56.0566 2.45117C56.6152 2.48242 56.8945 2.77734 56.8945 3.33594V4.57227C56.8984 4.76758 56.9512 4.86914 57.0527 4.87695C57.1777 4.87305 57.2539 4.72852 57.2812 4.44336L57.4336 4.44922C57.4336 4.46875 57.4316 4.49023 57.4277 4.51367C57.3965 4.87695 57.2305 5.05859 56.9297 5.05859ZM55.7637 4.82422C55.8496 4.82422 55.9375 4.80469 56.0273 4.76562C56.2539 4.65625 56.3965 4.4668 56.4551 4.19727V3.72852C56.1504 3.73242 55.918 3.75195 55.7578 3.78711C55.457 3.85742 55.3066 4.02344 55.3066 4.28516C55.3066 4.35156 55.3125 4.41211 55.3242 4.4668C55.3789 4.70508 55.5254 4.82422 55.7637 4.82422ZM58.8398 4.85352C58.8594 4.85352 58.8789 4.85547 58.8984 4.85938C58.957 4.86719 58.9863 4.91406 58.9863 5H57.6387V4.85352C57.7715 4.85352 57.8672 4.8457 57.9258 4.83008C58.0469 4.79102 58.1074 4.68164 58.1074 4.50195V2.65625H57.6387V2.50977H58.5469V4.85352H58.8398ZM58.6172 1.6543C58.6172 1.70117 58.6074 1.74609 58.5879 1.78906C58.5332 1.91406 58.4375 1.97656 58.3008 1.97656C58.2578 1.97656 58.2148 1.96875 58.1719 1.95312C58.043 1.89844 57.9785 1.79883 57.9785 1.6543C57.9785 1.60742 57.9883 1.5625 58.0078 1.51953C58.0664 1.39453 58.1641 1.33203 58.3008 1.33203C58.3438 1.33203 58.3887 1.3418 58.4355 1.36133C58.5566 1.41992 58.6172 1.51758 58.6172 1.6543ZM60.6504 4.85352C60.6738 4.85352 60.6934 4.85547 60.709 4.85938C60.7676 4.86719 60.7969 4.91406 60.7969 5H59.3496V4.85352C59.4824 4.85352 59.5781 4.84375 59.6367 4.82422C59.7383 4.78906 59.7891 4.68164 59.7891 4.50195V2.65625H59.3496V2.50977H60.1992L60.2227 3.08984C60.2734 2.97266 60.3418 2.86719 60.4277 2.77344C60.6113 2.57422 60.8203 2.47461 61.0547 2.47461C61.0898 2.47461 61.127 2.47852 61.166 2.48633C61.3457 2.52539 61.4355 2.63281 61.4355 2.80859C61.4355 2.83203 61.4316 2.85547 61.4238 2.87891C61.3926 2.99219 61.3184 3.04883 61.2012 3.04883C61.1777 3.04883 61.1543 3.04492 61.1309 3.03711C61.0762 3.02148 61.0176 2.95898 60.9551 2.84961C60.9004 2.75195 60.8398 2.70312 60.7734 2.70312C60.7148 2.70703 60.6426 2.75 60.5566 2.83203C60.3379 3.04688 60.2285 3.33203 60.2285 3.6875V4.85352H60.6504ZM62.8535 4.85352C62.877 4.85352 62.8965 4.85547 62.9121 4.85938C62.9707 4.86719 63 4.91406 63 5H61.6582V4.85352C61.791 4.85352 61.8867 4.84375 61.9453 4.82422C62.0469 4.78906 62.0977 4.68164 62.0977 4.50195V1.33789H61.6582V1.19141H62.5371V4.85352H62.8535ZM64.5352 4.85352C64.5547 4.85352 64.5742 4.85547 64.5938 4.85938C64.6523 4.86719 64.6816 4.91406 64.6816 5H63.334V4.85352C63.4668 4.85352 63.5625 4.8457 63.6211 4.83008C63.7422 4.79102 63.8027 4.68164 63.8027 4.50195V2.65625H63.334V2.50977H64.2422V4.85352H64.5352ZM64.3125 1.6543C64.3125 1.70117 64.3027 1.74609 64.2832 1.78906C64.2285 1.91406 64.1328 1.97656 63.9961 1.97656C63.9531 1.97656 63.9102 1.96875 63.8672 1.95312C63.7383 1.89844 63.6738 1.79883 63.6738 1.6543C63.6738 1.60742 63.6836 1.5625 63.7031 1.51953C63.7617 1.39453 63.8594 1.33203 63.9961 1.33203C64.0391 1.33203 64.084 1.3418 64.1309 1.36133C64.252 1.41992 64.3125 1.51758 64.3125 1.6543ZM66.1758 4.85352C66.1992 4.85352 66.2188 4.85547 66.2344 4.85938C66.293 4.86719 66.3223 4.91406 66.3223 5H65.0332V4.85352C65.166 4.85352 65.2617 4.84375 65.3203 4.82422C65.4219 4.78906 65.4727 4.68164 65.4727 4.50195V2.65625H65.0332V2.50977H65.8828L65.9062 3.0957C65.9492 2.98633 66.0059 2.88672 66.0762 2.79688C66.2637 2.56641 66.502 2.45117 66.791 2.45117C66.9355 2.45117 67.0703 2.48828 67.1953 2.5625C67.4648 2.73047 67.5996 3.00977 67.5996 3.40039V4.85352H67.8926C67.916 4.85352 67.9355 4.85547 67.9512 4.85938C68.0098 4.86719 68.0391 4.91406 68.0391 5H66.7207V4.85352C66.8535 4.85352 66.9492 4.84375 67.0078 4.82422C67.1094 4.78906 67.1602 4.68164 67.1602 4.50195V3.3418C67.1602 3.22852 67.1426 3.12695 67.1074 3.03711C67.0215 2.81445 66.8594 2.70312 66.6211 2.70312C66.5117 2.70312 66.4043 2.73633 66.2988 2.80273C66.0527 2.96289 65.9238 3.22461 65.9121 3.58789V4.85352H66.1758ZM69.6445 2.59766C69.543 2.59766 69.4473 2.62109 69.3574 2.66797C69.084 2.80469 68.9375 3.09766 68.918 3.54688L69.5391 3.56445C69.7188 3.56836 69.8574 3.56055 69.9551 3.54102C70.1426 3.49805 70.2363 3.37891 70.2363 3.18359C70.2363 3.09766 70.2207 3.01758 70.1895 2.94336C70.0996 2.71289 69.918 2.59766 69.6445 2.59766ZM70.6641 4.4375C70.6406 4.49219 70.6133 4.54688 70.582 4.60156C70.3828 4.90625 70.0723 5.05859 69.6504 5.05859C69.3848 5.05859 69.1484 4.99023 68.9414 4.85352C68.5938 4.61914 68.4199 4.25977 68.4199 3.77539C68.4199 3.50977 68.4746 3.27148 68.584 3.06055C68.7949 2.6543 69.1445 2.45117 69.6328 2.45117C69.8828 2.45117 70.1035 2.50781 70.2949 2.62109C70.5645 2.77734 70.6992 2.98828 70.6992 3.25391C70.6992 3.39844 70.6465 3.50977 70.541 3.58789C70.4043 3.68555 70.0977 3.73047 69.6211 3.72266L68.918 3.71094C68.9219 3.875 68.9395 4.02539 68.9707 4.16211C69.0762 4.65039 69.334 4.89453 69.7441 4.89453C69.7793 4.89453 69.8164 4.89258 69.8555 4.88867C70.1602 4.84961 70.3809 4.68164 70.5176 4.38477L70.6641 4.4375ZM22.377 11.8535C22.3965 11.8535 22.416 11.8555 22.4355 11.8594C22.4941 11.8672 22.5234 11.9141 22.5234 12H21.1758V11.8535C21.3086 11.8535 21.4043 11.8457 21.4629 11.8301C21.584 11.791 21.6445 11.6816 21.6445 11.502V9.65625H21.1758V9.50977H22.084V11.8535H22.377ZM22.1543 8.6543C22.1543 8.70117 22.1445 8.74609 22.125 8.78906C22.0703 8.91406 21.9746 8.97656 21.8379 8.97656C21.7949 8.97656 21.752 8.96875 21.709 8.95312C21.5801 8.89844 21.5156 8.79883 21.5156 8.6543C21.5156 8.60742 21.5254 8.5625 21.5449 8.51953C21.6035 8.39453 21.7012 8.33203 21.8379 8.33203C21.8809 8.33203 21.9258 8.3418 21.9727 8.36133C22.0938 8.41992 22.1543 8.51758 22.1543 8.6543ZM23.8125 11.9004C24.082 11.9004 24.2637 11.8184 24.3574 11.6543C24.3926 11.5957 24.4102 11.5312 24.4102 11.4609C24.4102 11.2969 24.291 11.1562 24.0527 11.0391C24.002 11.0117 23.918 10.9727 23.8008 10.9219C23.4805 10.7891 23.2676 10.6641 23.1621 10.5469C23.0488 10.418 22.9922 10.2676 22.9922 10.0957C22.9922 9.82617 23.1406 9.63672 23.4375 9.52734C23.5742 9.47656 23.7227 9.45117 23.8828 9.45117C24.1406 9.45117 24.3633 9.50586 24.5508 9.61523C24.5508 9.50195 24.5781 9.4375 24.6328 9.42188C24.6562 9.41797 24.6816 9.41602 24.709 9.41602V10.1484H24.5566C24.5488 9.78906 24.3496 9.60742 23.959 9.60352C23.666 9.60352 23.4844 9.68945 23.4141 9.86133C23.3945 9.9082 23.3848 9.95703 23.3848 10.0078C23.3848 10.1758 23.5059 10.3184 23.748 10.4355C23.8027 10.4629 23.8887 10.5 24.0059 10.5469C24.3223 10.6758 24.5332 10.7988 24.6387 10.916C24.752 11.041 24.8086 11.1895 24.8086 11.3613C24.8086 11.6777 24.6406 11.8887 24.3047 11.9941C24.1758 12.0371 24.0352 12.0586 23.8828 12.0586C23.6016 12.0547 23.3574 11.9844 23.1504 11.8477C23.1504 11.9492 23.125 12.0078 23.0742 12.0234C23.0508 12.0273 23.0234 12.0293 22.9922 12.0293V11.1387H23.1562C23.1641 11.6426 23.3828 11.8965 23.8125 11.9004ZM26.1562 11.9004C26.4258 11.9004 26.6074 11.8184 26.7012 11.6543C26.7363 11.5957 26.7539 11.5312 26.7539 11.4609C26.7539 11.2969 26.6348 11.1562 26.3965 11.0391C26.3457 11.0117 26.2617 10.9727 26.1445 10.9219C25.8242 10.7891 25.6113 10.6641 25.5059 10.5469C25.3926 10.418 25.3359 10.2676 25.3359 10.0957C25.3359 9.82617 25.4844 9.63672 25.7812 9.52734C25.918 9.47656 26.0664 9.45117 26.2266 9.45117C26.4844 9.45117 26.707 9.50586 26.8945 9.61523C26.8945 9.50195 26.9219 9.4375 26.9766 9.42188C27 9.41797 27.0254 9.41602 27.0527 9.41602V10.1484H26.9004C26.8926 9.78906 26.6934 9.60742 26.3027 9.60352C26.0098 9.60352 25.8281 9.68945 25.7578 9.86133C25.7383 9.9082 25.7285 9.95703 25.7285 10.0078C25.7285 10.1758 25.8496 10.3184 26.0918 10.4355C26.1465 10.4629 26.2324 10.5 26.3496 10.5469C26.666 10.6758 26.877 10.7988 26.9824 10.916C27.0957 11.041 27.1523 11.1895 27.1523 11.3613C27.1523 11.6777 26.9844 11.8887 26.6484 11.9941C26.5195 12.0371 26.3789 12.0586 26.2266 12.0586C25.9453 12.0547 25.7012 11.9844 25.4941 11.8477C25.4941 11.9492 25.4688 12.0078 25.418 12.0234C25.3945 12.0273 25.3672 12.0293 25.3359 12.0293V11.1387H25.5C25.5078 11.6426 25.7266 11.8965 26.1562 11.9004ZM30.4043 11.8535C30.4277 11.8535 30.4473 11.8555 30.4629 11.8594C30.5215 11.8672 30.5508 11.9141 30.5508 12H29.7246L29.6836 11.4023C29.6406 11.5117 29.584 11.6113 29.5137 11.7012C29.3262 11.9395 29.0859 12.0586 28.793 12.0586C28.2383 12.0547 27.959 11.7188 27.9551 11.0508V9.65625H27.5039V9.50977H28.3945V11.1387C28.3945 11.2012 28.3984 11.2598 28.4062 11.3145C28.457 11.6426 28.6426 11.8066 28.9629 11.8066C29.0801 11.8066 29.1934 11.7695 29.3027 11.6953C29.5488 11.5312 29.6719 11.2734 29.6719 10.9219V9.65625H29.1914V9.50977H30.1113V11.8535H30.4043ZM32.168 9.59766C32.0664 9.59766 31.9707 9.62109 31.8809 9.66797C31.6074 9.80469 31.4609 10.0977 31.4414 10.5469L32.0625 10.5645C32.2422 10.5684 32.3809 10.5605 32.4785 10.541C32.666 10.498 32.7598 10.3789 32.7598 10.1836C32.7598 10.0977 32.7441 10.0176 32.7129 9.94336C32.623 9.71289 32.4414 9.59766 32.168 9.59766ZM33.1875 11.4375C33.1641 11.4922 33.1367 11.5469 33.1055 11.6016C32.9062 11.9062 32.5957 12.0586 32.1738 12.0586C31.9082 12.0586 31.6719 11.9902 31.4648 11.8535C31.1172 11.6191 30.9434 11.2598 30.9434 10.7754C30.9434 10.5098 30.998 10.2715 31.1074 10.0605C31.3184 9.6543 31.668 9.45117 32.1562 9.45117C32.4062 9.45117 32.627 9.50781 32.8184 9.62109C33.0879 9.77734 33.2227 9.98828 33.2227 10.2539C33.2227 10.3984 33.1699 10.5098 33.0645 10.5879C32.9277 10.6855 32.6211 10.7305 32.1445 10.7227L31.4414 10.7109C31.4453 10.875 31.4629 11.0254 31.4941 11.1621C31.5996 11.6504 31.8574 11.8945 32.2676 11.8945C32.3027 11.8945 32.3398 11.8926 32.3789 11.8887C32.6836 11.8496 32.9043 11.6816 33.041 11.3848L33.1875 11.4375ZM35.6602 12L35.6133 11.3789C35.4219 11.8242 35.1133 12.0508 34.6875 12.0586C34.4805 12.0586 34.291 11.998 34.1191 11.877C33.8145 11.6543 33.6621 11.3008 33.6621 10.8164C33.6621 10.5234 33.7285 10.2598 33.8613 10.0254C34.0801 9.64258 34.4043 9.45117 34.834 9.45117C35.1582 9.45117 35.416 9.55664 35.6074 9.76758V8.33789H35.0508V8.19141H36.0469L36.0586 11.8535H36.3516C36.375 11.8535 36.3945 11.8555 36.4102 11.8594C36.4688 11.8672 36.498 11.9141 36.498 12H35.6602ZM34.1602 10.7461C34.1602 10.9297 34.1797 11.0938 34.2188 11.2383C34.3164 11.6289 34.5254 11.8242 34.8457 11.8242C35.0059 11.8242 35.1484 11.7676 35.2734 11.6543C35.5078 11.4434 35.625 11.1035 35.625 10.6348C35.625 10.4121 35.5918 10.2188 35.5254 10.0547C35.4043 9.75 35.2012 9.59766 34.916 9.59766C34.8027 9.59766 34.6992 9.62305 34.6055 9.67383C34.3086 9.83789 34.1602 10.1953 34.1602 10.7461ZM39.2402 9.59766C39.1387 9.59766 39.043 9.62109 38.9531 9.66797C38.6797 9.80469 38.5332 10.0977 38.5137 10.5469L39.1348 10.5645C39.3145 10.5684 39.4531 10.5605 39.5508 10.541C39.7383 10.498 39.832 10.3789 39.832 10.1836C39.832 10.0977 39.8164 10.0176 39.7852 9.94336C39.6953 9.71289 39.5137 9.59766 39.2402 9.59766ZM40.2598 11.4375C40.2363 11.4922 40.209 11.5469 40.1777 11.6016C39.9785 11.9062 39.668 12.0586 39.2461 12.0586C38.9805 12.0586 38.7441 11.9902 38.5371 11.8535C38.1895 11.6191 38.0156 11.2598 38.0156 10.7754C38.0156 10.5098 38.0703 10.2715 38.1797 10.0605C38.3906 9.6543 38.7402 9.45117 39.2285 9.45117C39.4785 9.45117 39.6992 9.50781 39.8906 9.62109C40.1602 9.77734 40.2949 9.98828 40.2949 10.2539C40.2949 10.3984 40.2422 10.5098 40.1367 10.5879C40 10.6855 39.6934 10.7305 39.2168 10.7227L38.5137 10.7109C38.5176 10.875 38.5352 11.0254 38.5664 11.1621C38.6719 11.6504 38.9297 11.8945 39.3398 11.8945C39.375 11.8945 39.4121 11.8926 39.4512 11.8887C39.7559 11.8496 39.9766 11.6816 40.1133 11.3848L40.2598 11.4375ZM42.791 12.0586C42.5176 12.0547 42.3574 11.8789 42.3105 11.5312C42.2754 11.6133 42.2227 11.6914 42.1523 11.7656C41.957 11.9609 41.7168 12.0586 41.4316 12.0586C41.3145 12.0586 41.2031 12.0371 41.0977 11.9941C40.8359 11.8848 40.7051 11.6816 40.7051 11.3848C40.7051 11.2988 40.7168 11.2188 40.7402 11.1445C40.873 10.7617 41.3984 10.5703 42.3164 10.5703V10.2012C42.3047 9.82227 42.1152 9.62109 41.748 9.59766C41.5918 9.59766 41.4766 9.64648 41.4023 9.74414C41.3828 9.77148 41.3457 9.85742 41.291 10.002C41.248 10.1152 41.1816 10.1719 41.0918 10.1719C41.0723 10.1719 41.0527 10.1699 41.0332 10.166C40.9199 10.1465 40.8633 10.0762 40.8633 9.95508C40.8633 9.88867 40.8867 9.82227 40.9336 9.75586C41.082 9.55273 41.375 9.45117 41.8125 9.45117C41.8477 9.45117 41.8828 9.45117 41.918 9.45117C42.4766 9.48242 42.7559 9.77734 42.7559 10.3359V11.5723C42.7598 11.7676 42.8125 11.8691 42.9141 11.877C43.0391 11.873 43.1152 11.7285 43.1426 11.4434L43.2949 11.4492C43.2949 11.4688 43.293 11.4902 43.2891 11.5137C43.2578 11.877 43.0918 12.0586 42.791 12.0586ZM41.625 11.8242C41.7109 11.8242 41.7988 11.8047 41.8887 11.7656C42.1152 11.6562 42.2578 11.4668 42.3164 11.1973V10.7285C42.0117 10.7324 41.7793 10.752 41.6191 10.7871C41.3184 10.8574 41.168 11.0234 41.168 11.2852C41.168 11.3516 41.1738 11.4121 41.1855 11.4668C41.2402 11.7051 41.3867 11.8242 41.625 11.8242ZM44.8125 11.8535C44.8359 11.8535 44.8555 11.8555 44.8711 11.8594C44.9297 11.8672 44.959 11.9141 44.959 12H43.5117V11.8535C43.6445 11.8535 43.7402 11.8438 43.7988 11.8242C43.9004 11.7891 43.9512 11.6816 43.9512 11.502V9.65625H43.5117V9.50977H44.3613L44.3848 10.0898C44.4355 9.97266 44.5039 9.86719 44.5898 9.77344C44.7734 9.57422 44.9824 9.47461 45.2168 9.47461C45.252 9.47461 45.2891 9.47852 45.3281 9.48633C45.5078 9.52539 45.5977 9.63281 45.5977 9.80859C45.5977 9.83203 45.5938 9.85547 45.5859 9.87891C45.5547 9.99219 45.4805 10.0488 45.3633 10.0488C45.3398 10.0488 45.3164 10.0449 45.293 10.0371C45.2383 10.0215 45.1797 9.95898 45.1172 9.84961C45.0625 9.75195 45.002 9.70312 44.9355 9.70312C44.877 9.70703 44.8047 9.75 44.7188 9.83203C44.5 10.0469 44.3906 10.332 44.3906 10.6875V11.8535H44.8125ZM46.6582 12.9668H47.0684C47.0918 12.9668 47.1113 12.9688 47.127 12.9727C47.1855 12.9805 47.2148 13.0273 47.2148 13.1133H45.7793V12.9668C45.9121 12.9668 46.0078 12.957 46.0664 12.9375C46.168 12.9023 46.2188 12.7949 46.2188 12.6152V9.65625H45.7793V9.50977H46.623L46.6523 10.1484C46.6836 10.0625 46.7227 9.98047 46.7695 9.90234C46.957 9.60156 47.2402 9.45117 47.6191 9.45117C47.8652 9.45117 48.0742 9.5293 48.2461 9.68555C48.4922 9.91602 48.6152 10.2539 48.6152 10.6992C48.6152 11.0898 48.502 11.4121 48.2754 11.666C48.041 11.9277 47.75 12.0586 47.4023 12.0586C47.1211 12.043 46.873 11.9414 46.6582 11.7539V12.9668ZM47.4316 9.68555C47.291 9.68555 47.1621 9.72852 47.0449 9.81445C46.7832 10.0098 46.6523 10.3613 46.6523 10.8691C46.6523 11.0879 46.6816 11.2773 46.7402 11.4375C46.8535 11.7539 47.0605 11.9121 47.3613 11.9121C47.4668 11.9121 47.5645 11.8906 47.6543 11.8477C47.9629 11.6953 48.1172 11.332 48.1172 10.7578C48.1172 10.5977 48.1035 10.4531 48.0762 10.3242C47.9863 9.89844 47.7715 9.68555 47.4316 9.68555ZM50.2383 11.8535C50.2617 11.8535 50.2812 11.8555 50.2969 11.8594C50.3555 11.8672 50.3848 11.9141 50.3848 12H49.043V11.8535C49.1758 11.8535 49.2715 11.8438 49.3301 11.8242C49.4316 11.7891 49.4824 11.6816 49.4824 11.502V8.33789H49.043V8.19141H49.9219V11.8535H50.2383ZM53.5605 11.8535C53.584 11.8535 53.6035 11.8555 53.6191 11.8594C53.6777 11.8672 53.707 11.9141 53.707 12H52.8809L52.8398 11.4023C52.7969 11.5117 52.7402 11.6113 52.6699 11.7012C52.4824 11.9395 52.2422 12.0586 51.9492 12.0586C51.3945 12.0547 51.1152 11.7188 51.1113 11.0508V9.65625H50.6602V9.50977H51.5508V11.1387C51.5508 11.2012 51.5547 11.2598 51.5625 11.3145C51.6133 11.6426 51.7988 11.8066 52.1191 11.8066C52.2363 11.8066 52.3496 11.7695 52.459 11.6953C52.7051 11.5312 52.8281 11.2734 52.8281 10.9219V9.65625H52.3477V9.50977H53.2676V11.8535H53.5605ZM54.627 10.377C54.6309 10.9043 54.8262 11.1719 55.2129 11.1797C55.5918 11.1758 55.7852 10.9082 55.793 10.377C55.7891 9.86523 55.5957 9.60547 55.2129 9.59766C54.8301 9.60156 54.6348 9.86133 54.627 10.377ZM55.2188 9.45117C55.4219 9.45117 55.6113 9.49609 55.7871 9.58594C55.8105 9.51172 55.8438 9.44336 55.8867 9.38086C56 9.2168 56.1484 9.13477 56.332 9.13477C56.375 9.13477 56.418 9.14258 56.4609 9.1582C56.5742 9.20117 56.6309 9.2832 56.6309 9.4043C56.6152 9.50586 56.5586 9.56836 56.4609 9.5918C56.4258 9.5918 56.3867 9.57227 56.3438 9.5332C56.2812 9.47461 56.2227 9.44531 56.168 9.44531C56.1523 9.44531 56.1367 9.44727 56.1211 9.45117C56.0234 9.47461 55.957 9.54883 55.9219 9.67383C56.1445 9.84961 56.2578 10.084 56.2617 10.377C56.2617 10.6074 56.1875 10.8066 56.0391 10.9746C55.832 11.209 55.5547 11.3262 55.207 11.3262L54.6914 11.3203C54.6602 11.3203 54.6309 11.3223 54.6035 11.3262C54.4746 11.3535 54.4102 11.418 54.4102 11.5195C54.4141 11.6641 54.5059 11.7422 54.6855 11.7539L55.752 11.7773C55.8066 11.7773 55.8594 11.7812 55.9102 11.7891C56.2969 11.8398 56.4902 12.0332 56.4902 12.3691C56.4902 12.4785 56.459 12.582 56.3965 12.6797C56.2051 12.9688 55.8125 13.1133 55.2188 13.1133C54.9844 13.1133 54.7871 13.0781 54.627 13.0078C54.373 12.9023 54.2461 12.7422 54.2461 12.5273C54.2461 12.3867 54.3105 12.248 54.4395 12.1113C54.2754 12.0098 54.1914 11.8555 54.1875 11.6484C54.1875 11.5977 54.1934 11.5469 54.2051 11.4961C54.2676 11.2812 54.4238 11.1738 54.6738 11.1738C54.6465 11.1582 54.6191 11.1406 54.5918 11.1211C54.3027 10.9258 54.1582 10.6797 54.1582 10.3828C54.1582 10.1562 54.2324 9.95898 54.3809 9.79102C54.5879 9.56445 54.8672 9.45117 55.2188 9.45117ZM55.2188 12.9609C55.4023 12.9609 55.5723 12.9414 55.7285 12.9023C56.0488 12.8242 56.209 12.6992 56.209 12.5273C56.209 12.4805 56.2031 12.4414 56.1914 12.4102C56.1445 12.2812 55.9746 12.2148 55.6816 12.2109L54.7793 12.1992C54.7285 12.1992 54.6641 12.1914 54.5859 12.1758C54.4961 12.2812 54.4492 12.3867 54.4453 12.4922C54.4453 12.5469 54.459 12.6016 54.4863 12.6562C54.5879 12.8594 54.832 12.9609 55.2188 12.9609ZM57.7969 11.9004C58.0664 11.9004 58.248 11.8184 58.3418 11.6543C58.377 11.5957 58.3945 11.5312 58.3945 11.4609C58.3945 11.2969 58.2754 11.1562 58.0371 11.0391C57.9863 11.0117 57.9023 10.9727 57.7852 10.9219C57.4648 10.7891 57.252 10.6641 57.1465 10.5469C57.0332 10.418 56.9766 10.2676 56.9766 10.0957C56.9766 9.82617 57.125 9.63672 57.4219 9.52734C57.5586 9.47656 57.707 9.45117 57.8672 9.45117C58.125 9.45117 58.3477 9.50586 58.5352 9.61523C58.5352 9.50195 58.5625 9.4375 58.6172 9.42188C58.6406 9.41797 58.666 9.41602 58.6934 9.41602V10.1484H58.541C58.5332 9.78906 58.334 9.60742 57.9434 9.60352C57.6504 9.60352 57.4688 9.68945 57.3984 9.86133C57.3789 9.9082 57.3691 9.95703 57.3691 10.0078C57.3691 10.1758 57.4902 10.3184 57.7324 10.4355C57.7871 10.4629 57.873 10.5 57.9902 10.5469C58.3066 10.6758 58.5176 10.7988 58.623 10.916C58.7363 11.041 58.793 11.1895 58.793 11.3613C58.793 11.6777 58.625 11.8887 58.2891 11.9941C58.1602 12.0371 58.0195 12.0586 57.8672 12.0586C57.5859 12.0547 57.3418 11.9844 57.1348 11.8477C57.1348 11.9492 57.1094 12.0078 57.0586 12.0234C57.0352 12.0273 57.0078 12.0293 56.9766 12.0293V11.1387H57.1406C57.1484 11.6426 57.3672 11.8965 57.7969 11.9004Z" fill="#565656"/>
<defs>
<filter id="filter0_i_4100_2519" x="2" y="3" width="9" height="12" filterUnits="userSpaceOnUse" color-interpolation-filters="sRGB">
<feFlood flood-opacity="0" result="BackgroundImageFix"/>
<feBlend mode="normal" in="SourceGraphic" in2="BackgroundImageFix" result="shape"/>
<feColorMatrix in="SourceAlpha" type="matrix" values="0 0 0 0 0 0 0 0 0 0 0 0 0 0 0 0 0 0 127 0" result="hardAlpha"/>
<feOffset dy="3"/>
<feGaussianBlur stdDeviation="2"/>
<feComposite in2="hardAlpha" operator="arithmetic" k2="-1" k3="1"/>
<feColorMatrix type="matrix" values="0 0 0 0 0 0 0 0 0 0 0 0 0 0 0 0 0 0 0.8 0"/>
<feBlend mode="normal" in2="shape" result="effect1_innerShadow_4100_2519"/>
</filter>
</defs>
</svg>
