<svg width="28" height="24" viewBox="0 0 28 24" fill="none" xmlns="http://www.w3.org/2000/svg">
<path d="M27.0343 15.2857C27.5007 15.349 27.9291 15.0208 27.9924 14.5544C28.0545 14.088 27.7276 13.6584 27.2599 13.5963C25.2638 13.3276 23.2362 13.4024 21.2652 13.8156V7.79684H26.5273C26.7504 7.79684 26.9658 7.70813 27.1242 7.54971C27.2826 7.39129 27.3714 7.17586 27.3714 6.9515C27.3714 4.46878 26.047 2.17346 23.8963 0.931495C21.7443 -0.310499 19.0955 -0.310499 16.9435 0.931495C14.7928 2.17349 13.4684 4.46855 13.4684 6.9515C13.4684 7.17583 13.5571 7.39128 13.7155 7.54971C13.874 7.70813 14.0894 7.79684 14.3124 7.79684H19.5746V14.2656C17.4226 14.9182 15.4026 15.9486 13.6104 17.3072C6.71857 13.3127 0.405915 17.8078 0.338756 17.8585C-0.0350978 18.1386 -0.111147 18.6671 0.16893 19.0409C0.449008 19.4148 0.978768 19.4895 1.35262 19.2095C1.59215 19.0333 7.31812 14.9917 13.5192 19.2095C18.8725 22.8834 23.9214 23.3396 26.1114 23.3396C26.4891 23.3421 26.8667 23.3257 27.2431 23.2889C27.7095 23.2357 28.0454 22.8149 27.9921 22.3473C27.9389 21.8809 27.5169 21.5463 27.0505 21.5995C26.9935 21.5995 21.3283 22.1736 15.1412 18.2701C16.7191 17.1853 21.255 14.5086 27.034 15.2855L27.0343 15.2857ZM25.6149 6.10625L23.0662 6.10752C23.0434 4.74765 22.8331 3.39791 22.4414 2.09515C24.1194 2.79728 25.3183 4.313 25.6149 6.10752L25.6149 6.10625ZM18.4087 2.09518C18.0133 3.39674 17.7979 4.74648 17.77 6.10755H15.2251C15.5217 4.30917 16.7257 2.79208 18.4087 2.09518ZM20.4137 1.78088C20.7521 2.21051 21.2691 3.67685 21.3705 6.10633L19.4606 6.1076C19.5646 3.67682 20.0956 2.20687 20.4137 1.78088ZM8.31818 10.4798C8.31818 10.0134 8.69586 9.63573 9.16225 9.63573C10.3675 9.63573 11.5043 10.1883 12.2482 11.1363C12.996 10.1896 14.1378 9.63826 15.3444 9.64206C15.8108 9.64206 16.1884 10.0197 16.1884 10.4874C16.1884 10.9538 15.8108 11.3315 15.3444 11.3315C14.1049 11.334 13.1012 12.3377 13.0999 13.5759C13.0999 14.0423 12.7222 14.4213 12.2546 14.4213C11.7882 14.4213 11.4105 14.0423 11.4105 13.5759C11.4105 12.9803 11.1735 12.4087 10.7515 11.988C10.3295 11.5672 9.75789 11.3315 9.16225 11.3315C8.93793 11.3315 8.7212 11.2415 8.56278 11.0818C8.40435 10.9221 8.31565 10.7054 8.31818 10.4798ZM9.16225 4.39653C7.92531 4.39906 6.92286 5.40028 6.91903 6.63718C6.91903 7.10483 6.54008 7.48251 6.0737 7.48251C5.60731 7.48251 5.22836 7.10483 5.22836 6.63718C5.2271 5.40152 4.22461 4.39906 2.98771 4.39653C2.52132 4.39653 2.14364 4.01884 2.14364 3.55246C2.14364 3.08481 2.52132 2.70713 2.98771 2.70713C4.19294 2.70713 5.32978 3.26095 6.0737 4.20767C6.8189 3.26095 7.95825 2.70839 9.16221 2.70713C9.62986 2.70713 10.0075 3.08481 10.0075 3.55246C10.0075 4.01884 9.6299 4.39653 9.16225 4.39653Z" fill="black"/>
</svg>
