<svg width="205" height="126" viewBox="0 0 205 126" fill="none" xmlns="http://www.w3.org/2000/svg">
<ellipse cx="116.311" cy="53.127" rx="70.3989" ry="40.8838" fill="#1D213F" fill-opacity="0.4"/>
<ellipse cx="101.444" cy="60.7792" rx="64.7145" ry="37.6044" fill="#D5F1F6"/>
<ellipse cx="102.322" cy="59.4677" rx="64.7145" ry="37.6044" fill="white"/>
<ellipse cx="101.882" cy="57.7178" rx="45.0378" ry="26.6729" fill="#EDF6FE"/>
<path d="M54.8218 70.5488C54.1222 71.7732 55.8421 72.0792 56.7895 72.0792C57.0084 72.0792 57.3149 72.2541 56.7895 72.9538C56.1327 73.8283 56.3531 74.4842 56.7895 74.2655C57.2258 74.0469 58.9766 74.7028 60.7257 74.9214C62.1249 75.0963 61.3087 73.6825 60.7257 72.9538C60.2155 72.8809 59.1515 72.3853 58.9766 70.9861C58.758 69.237 55.6963 69.0184 54.8218 70.5488Z" fill="#CB5758"/>
<path d="M59.9498 55.9581C60.8038 57.7093 61.732 59.1633 63.116 60.836C63.4437 61.2321 64.0939 61.6017 64.5954 61.7152C66.2048 62.0792 67.7431 62.7736 68.4396 64.2694C69.3048 66.1274 70.1347 66.9915 71.3032 67.9014C71.5732 68.1117 71.8337 68.3354 72.0765 68.5766C75.9174 72.3921 78.4392 74.1688 83.0814 76.3024C91.63 79.1025 95.3209 79.0594 101.884 78.9259C112.343 77.79 117.764 76.182 126.152 70.1807C131.302 66.5628 133.104 63.4635 135.278 57.5955C135.462 57.0981 135.587 56.5772 135.644 56.0497C136.156 51.2391 135.75 48.3104 134.459 43.2892C133.645 39.1516 132.646 37.0336 128.775 34.1068C122.799 30.7233 118.95 29.652 110.643 30.9386C110.198 31.0075 109.758 31.1256 109.337 31.2826C100.953 34.4038 95.5988 36.5085 86.6931 40.2308C85.3404 40.7962 83.8387 40.7555 82.3786 40.8874C82.0083 40.9208 81.6032 40.9912 81.1138 41.1029C79.8051 41.5781 78.8101 42.0035 77.8773 42.5273C76.0786 43.5374 74.0252 44.0169 71.9761 44.2554C71.6932 44.2883 71.3903 44.3309 71.0568 44.3824C67.5687 45.3145 65.0963 46.2734 62.1691 48.1305C59.5591 49.7865 58.5949 53.1798 59.9498 55.9581Z" fill="#8A3926"/>
<path d="M61.921 54.3614C62.1222 54.4922 62.3305 54.6353 62.5471 54.8016C63.4736 55.513 64.4355 56.2039 65.6008 56.2855C65.7837 56.2983 65.9743 56.3094 66.1707 56.3188C69.6032 56.4842 73.0553 59.265 75.7803 61.3588C76.012 61.5368 76.1801 61.686 76.388 61.8911C79.3235 64.7863 81.3263 66.2471 84.6584 67.8387C85.1846 68.09 85.7468 68.2643 86.3212 68.3644C93.0251 69.5328 96.9062 69.6292 102.1 69.5243C110.728 68.5935 118.471 68.316 125.391 63.3987C129.598 60.463 131.096 57.944 132.867 53.2259C133.054 52.7263 133.179 52.2037 133.243 51.674C133.743 47.5907 134.199 43.4394 133.146 39.3687C131.834 35.8552 128.773 34.1062 125.391 32.5758C120.33 29.73 113.469 29.7672 107.638 31.9199C99.8851 34.782 96.7144 36.1999 88.1078 39.7905C87.2333 40.1553 86.0496 40.3882 84.8284 40.665C83.9154 40.9943 83.0322 41.0323 82.1889 41.0814C80.1405 41.2006 78.0011 42.2192 76.321 43.397C76.0864 43.5615 75.8527 43.7155 75.6224 43.8426C75.0911 44.1359 74.4658 44.1202 73.8593 44.0968C69.9293 43.9449 66.1665 45.5058 62.8826 47.5096C60.2317 49.1271 59.3171 52.6693 61.921 54.3614Z" fill="#F4A462"/>
<path d="M86.7793 59.6872C75.7603 57.2385 74.6089 48.3184 75.4105 44.1644C80.0028 40.2291 83.9361 41.1036 86.7793 40.6664C89.0538 40.3166 100.407 35.1277 105.799 32.577C104.706 34.5447 106.236 35.4192 109.297 37.1683C112.358 38.9173 109.516 42.1968 107.767 45.9135C106.368 48.8869 113.451 50.359 117.168 50.7233C116.439 50.0675 114.938 48.3621 114.763 46.788C114.544 44.8203 117.387 41.9781 119.354 38.6987C121.322 35.4192 116.512 31.0466 116.512 30.6094C125.694 31.2653 132.253 34.7633 134.002 43.5086C128.755 61.4362 114.982 62.5294 112.358 62.5294C113.407 60.9552 112.795 57.7924 112.358 56.4077C104.706 61.2176 100.333 63.6225 86.7793 59.6872Z" fill="#E66546"/>
<path d="M89.131 57.8895C79.6249 55.7762 78.6316 48.0781 79.3232 44.4931C83.2849 41.0969 86.6782 41.8516 89.131 41.4742C91.0933 41.1723 100.888 36.6943 105.54 34.493C104.596 36.1912 105.917 36.9459 108.557 38.4553C111.198 39.9648 108.746 42.795 107.237 46.0026C106.03 48.5686 112.141 49.8391 115.347 50.1536C114.719 49.5875 113.424 48.1158 113.273 46.7573C113.084 45.0592 115.536 42.6063 117.234 39.7761C118.931 36.9459 114.782 33.1723 114.782 32.7949C122.703 33.361 128.362 36.3799 129.871 43.9271C125.344 59.3989 113.461 60.3423 111.198 60.3423C112.103 58.9838 111.575 56.2542 111.198 55.0592C104.596 59.2102 100.824 61.2857 89.131 57.8895Z" fill="#E37248"/>
<ellipse cx="67.1185" cy="78.4879" rx="1.09315" ry="0.65589" fill="#B36578"/>
<circle cx="72.8055" cy="80.6747" r="0.21863" fill="#B36578"/>
<ellipse cx="80.023" cy="29.5153" rx="0.87452" ry="0.65589" fill="#26958E"/>
<path d="M153.259 24.0495L156.757 22.3005C168.636 29.2967 193.662 43.9449 198.734 46.5684C203.981 47.2681 204.564 44.6736 204.2 43.289C179.859 29.0052 130.915 0.4375 129.866 0.4375C133.014 10.407 146.773 20.3328 153.259 24.0495Z" fill="#3A4177"/>
<path d="M153.259 23.612L156.757 21.863C168.636 28.8592 193.662 43.5074 198.734 46.1309C203.981 46.8306 204.564 44.2361 204.2 42.8515C179.859 28.5677 130.915 0 129.866 0C133.014 9.96953 146.773 19.8953 153.259 23.612Z" fill="#F3F3F3"/>
<mask id="mask0_2007_4544" style="mask-type:alpha" maskUnits="userSpaceOnUse" x="129" y="0" width="76" height="47">
<path d="M153.267 23.612L156.766 21.863C168.644 28.8592 193.67 43.5074 198.742 46.1309C203.99 46.8306 204.573 44.2361 204.208 42.8515C179.867 28.5677 130.923 0 129.874 0C133.022 9.96953 146.781 19.8953 153.267 23.612Z" fill="#F3F3F3"/>
</mask>
<g mask="url(#mask0_2007_4544)">
<path d="M140.324 4.37305L138.185 13.3546L142.938 19.0272L145.79 7.68204L140.324 4.37305Z" fill="#F3FFF6"/>
<path d="M147.691 7.68204L145.79 19.0272L147.691 21.8635L149.117 8.86383L147.691 7.68204Z" fill="#F3FFF6"/>
</g>
<path d="M38.2612 93.4456C46.6566 96.244 67.4119 112.977 76.7401 120.993C80.3111 123.544 88.1089 127.727 90.7325 124.054C94.0119 119.462 88.9834 118.588 80.6755 113.122C72.3675 107.656 41.3221 91.4778 38.2612 90.6033C35.2004 89.7288 35.6377 83.8258 26.6738 80.9836C19.5028 78.7098 13.4832 73.3316 11.3697 70.9267C10.9325 70.1979 10.058 69.1776 10.058 70.9267C11.2823 74.7746 20.4793 80.2549 24.9248 82.5141C25.2892 83.0971 25.6244 84.1756 24.0503 83.8258C17.229 81.2023 10.2766 75.0078 7.65303 72.2384C7.28865 71.8741 6.55988 71.4514 6.55988 72.6757C7.65303 76.611 19.4591 83.1699 21.2081 84.2631C22.9571 85.3562 22.9571 85.7935 21.2081 85.7935C12.9002 83.8258 5.46673 75.0807 4.81084 74.2062C4.15495 73.3316 3.0618 72.8944 3.0618 74.2062C5.46673 79.016 15.7423 84.919 18.1473 86.2308C20.5522 87.5426 18.5845 87.7612 17.0541 87.7612C11.1074 86.0122 3.93632 78.8702 1.09413 75.5179C0.729743 75.2993 0.000976562 75.1244 0.000976562 76.1738C2.62454 81.6395 15.0865 89.2916 19.4591 91.0406C23.8317 92.7897 29.516 91.4779 38.2612 93.4456Z" fill="#00435C"/>
<path d="M38.2612 93.01C46.6566 95.8085 67.4119 112.541 76.7401 120.557C80.3111 123.108 88.1089 127.291 90.7325 123.618C94.0119 119.027 88.9834 118.152 80.6755 112.687C72.3675 107.221 41.3221 91.0423 38.2612 90.1678C35.2004 89.2933 35.6377 83.3903 26.6738 80.5481C19.5028 78.2743 13.4832 72.896 11.3697 70.4911C10.9325 69.7624 10.058 68.7421 10.058 70.4911C11.2823 74.339 20.4793 79.8193 24.9248 82.0785C25.2892 82.6615 25.6244 83.7401 24.0503 83.3903C17.229 80.7667 10.2766 74.5722 7.65303 71.8029C7.28865 71.4385 6.55988 71.0158 6.55988 72.2402C7.65303 76.1755 19.4591 82.7344 21.2081 83.8276C22.9571 84.9207 22.9571 85.358 21.2081 85.358C12.9002 83.3903 5.46673 74.6451 4.81084 73.7706C4.15495 72.8961 3.0618 72.4588 3.0618 73.7706C5.46673 78.5805 15.7423 84.4835 18.1473 85.7953C20.5522 87.107 18.5845 87.3257 17.0541 87.3257C11.1074 85.5766 3.93632 78.4347 1.09413 75.0823C0.729743 74.8637 0.000976562 74.6888 0.000976562 75.7382C2.62454 81.204 15.0865 88.856 19.4591 90.6051C23.8317 92.3541 29.516 91.0423 38.2612 93.01Z" fill="#F3F3F3"/>
<mask id="mask1_2007_4544" style="mask-type:alpha" maskUnits="userSpaceOnUse" x="0" y="69" width="92" height="57">
<path d="M38.2603 93.01C46.6557 95.8085 67.4109 112.541 76.7392 120.557C80.3101 123.108 88.1079 127.291 90.7315 123.618C94.0109 119.027 88.9824 118.152 80.6745 112.687C72.3666 107.221 41.3211 91.0423 38.2603 90.1678C35.1994 89.2933 35.6367 83.3903 26.6729 80.5481C19.5018 78.2743 13.4822 72.896 11.3688 70.4911C10.9315 69.7624 10.057 68.7421 10.057 70.4911C11.2813 74.339 20.4783 79.8193 24.9238 82.0785C25.2882 82.6615 25.6234 83.7401 24.0493 83.3903C17.2281 80.7667 10.2756 74.5722 7.65205 71.8029C7.28767 71.4385 6.5589 71.0158 6.5589 72.2402C7.65205 76.1755 19.4581 82.7344 21.2071 83.8276C22.9562 84.9207 22.9562 85.358 21.2071 85.358C12.8992 83.3903 5.46575 74.6451 4.80986 73.7706C4.15397 72.8961 3.06082 72.4588 3.06082 73.7706C5.46575 78.5805 15.7414 84.4835 18.1463 85.7953C20.5512 87.107 18.5836 87.3257 17.0531 87.3257C11.1064 85.5766 3.93534 78.4347 1.09315 75.0823C0.728767 74.8637 0 74.6888 0 75.7382C2.62356 81.204 15.0855 88.856 19.4581 90.6051C23.8307 92.3541 29.5151 91.0423 38.2603 93.01Z" fill="#B5FDFA"/>
</mask>
<g mask="url(#mask1_2007_4544)">
<path d="M25.1452 80.457L19.2422 91.6072L25.1452 94.0121L31.7041 81.5502L25.1452 80.457Z" fill="white"/>
<path d="M68.2141 103.194L65.1533 111.721L69.7446 117.624L74.5544 107.13L68.2141 103.194Z" fill="white"/>
<path d="M76.5221 108.66L72.5867 117.624L74.5544 120.685L78.927 110.19L76.5221 108.66Z" fill="white"/>
</g>
</svg>
