<svg width="128" height="128" viewBox="0 0 128 128" fill="none" xmlns="http://www.w3.org/2000/svg">
<g clip-path="url(#clip0_3176_5947)">
<path d="M110.371 52.8312L110.611 52.7674L114.687 42.9219C115.74 40.3802 118.193 38.8582 120.77 38.8582C121.673 38.8582 122.593 39.0443 123.47 39.4395C126.7 40.8952 128.199 44.6478 126.858 47.9288L111.909 84.5169L122.755 125.343C123.091 126.611 122.136 127.853 120.824 127.853H87.3856C86.4798 127.853 85.6875 127.244 85.455 126.368L77.0643 94.7805L74.6527 91.706C72.0218 88.3511 70.1021 84.499 69.0084 80.3819L55.0992 27.8757C54.9641 27.3709 54.9004 26.861 54.9004 26.3614C54.9004 23.7611 56.639 21.38 59.2751 20.6815C62.2017 19.9039 65.1997 21.4768 66.2653 24.2403L65.5235 21.4463C65.3884 20.9415 65.3246 20.4316 65.3246 19.9319C65.3246 17.3316 67.0633 14.9505 69.6968 14.252C72.8197 13.4235 76.0268 15.2692 76.8782 18.3819L75.6316 13.6886C75.4965 13.1838 75.4328 12.674 75.4328 12.1743C75.4328 9.57399 77.1714 7.1929 79.8049 6.49438C82.9457 5.66075 86.1655 7.52942 86.9991 10.6677L88.2585 15.4069C88.1234 14.8996 88.0596 14.3922 88.0596 13.8926C88.0596 11.2897 89.7983 8.91116 92.4318 8.21264C95.5725 7.379 98.7924 9.24767 99.626 12.3859L110.371 52.8312Z" fill="#E8B2A5"/>
<path d="M94.9862 126.428L86.5061 96.5656C85.9628 94.6528 85.0381 92.8695 83.7879 91.3234L83.13 90.5099C80.3451 87.0652 78.2847 83.0877 77.072 78.8176L61.6467 24.3596C61.497 23.8363 61.4208 23.306 61.4109 22.7849C61.3961 22.0201 61.5317 21.2673 61.7846 20.568C60.9749 20.4278 60.1217 20.4561 59.2755 20.6809C56.6395 21.3795 54.9009 23.7605 54.9009 26.3609C54.9009 26.8605 54.9646 27.3704 55.0997 27.8752L69.0089 80.3814C70.1026 84.4985 72.0222 88.3506 74.6532 91.7055L77.0648 94.78L85.4555 126.368C85.688 127.243 86.4803 127.853 87.3861 127.853H96.3926C95.7262 127.656 95.1853 127.129 94.9862 126.428Z" fill="#E0A090"/>
<path d="M70.9881 19.4182C70.8496 18.8867 70.7841 18.3498 70.7841 17.8239C70.7841 16.4651 71.2241 15.1639 71.9963 14.1072C71.2494 14.0055 70.4705 14.0463 69.6968 14.2515C67.0634 14.95 65.3247 17.3311 65.3247 19.9314C65.3247 20.4311 65.3884 20.941 65.5236 21.4457L72.8427 48.8486C75.841 48.1676 77.6834 45.1434 76.913 42.1668L70.9881 19.4182Z" fill="#E0A090"/>
<path d="M61.5696 36.0711C62.2681 33.4377 64.6467 31.699 67.247 31.699C67.7467 31.699 68.2565 31.7627 68.7639 31.8979C71.9021 32.7315 73.7708 35.9513 72.9371 39.0895L58.9897 91.5957C57.896 95.7129 55.9738 99.5675 53.3455 102.92L50.9338 105.994L45.6398 125.923C45.3308 127.085 44.2803 127.896 43.0772 127.9L10.9839 128C9.23374 128.005 7.95524 126.348 8.40469 124.657L16.0897 95.7308L1.14035 59.1426C0.806389 58.3294 0.650879 57.4856 0.650879 56.6545C0.650879 54.1408 2.0989 51.747 4.52842 50.6533C7.91394 49.1288 11.8909 50.7043 13.3109 54.1357L17.3873 63.9813L17.6295 64.045L28.3724 23.6023C29.206 20.4615 32.4258 18.5929 35.5666 19.4265C38.2001 20.125 39.9387 22.5061 39.9387 25.1064C39.9387 25.6061 39.875 26.116 39.7399 26.6207L40.9993 21.8841C41.8329 18.7433 45.0527 16.8746 48.1935 17.7082C50.827 18.4068 52.5656 20.7878 52.5656 23.3882C52.5656 23.8878 52.5019 24.3977 52.3668 24.9025L51.1125 29.6213C51.9563 26.4933 55.171 24.6348 58.3016 25.4659C60.9351 26.1669 62.6737 28.5455 62.6737 31.1484C62.6737 31.6455 62.61 32.1553 62.4749 32.6601L61.5696 36.0711Z" fill="#FFE0D1"/>
<path d="M23.8093 97.3759C24.0365 96.4584 23.9781 95.4932 23.6416 94.6099L8.48653 54.8152C8.1365 53.9005 7.97334 52.9514 7.97334 52.0168C7.97334 51.3808 8.05696 50.7516 8.20508 50.1443C6.99924 49.9631 5.72559 50.1142 4.52842 50.6534C2.0989 51.7471 0.650879 54.1409 0.650879 56.6546C0.650879 57.4856 0.806389 58.3295 1.14035 59.1427L16.0897 95.7308L8.40469 124.656C7.95524 126.348 9.23374 128.005 10.9839 128L16.2299 127.983L23.8093 97.3759Z" fill="#FFD1C2"/>
<path d="M66.9144 37.073C67.4526 35.048 68.9473 33.5337 70.7843 32.8783C70.1969 32.437 69.5176 32.0982 68.7642 31.8981C68.2569 31.763 67.747 31.6992 67.2474 31.6992C64.647 31.6992 62.2685 33.4379 61.57 36.0713L55.0845 60.4864C58.0139 61.1844 60.9663 59.4212 61.741 56.5109L66.9144 37.073Z" fill="#FFD1C2"/>
<path d="M57.0753 30.6473C57.0779 30.6397 57.0779 30.6346 57.0804 30.6269C57.5849 28.7572 58.9407 27.3393 60.6148 26.68C59.9655 26.1238 59.1831 25.7003 58.3016 25.4658C55.171 24.6347 51.9563 26.4932 51.1124 29.6212C51.1099 29.6288 51.1099 29.6339 51.1073 29.6416L43.7168 57.4676C46.9392 58.2987 50.2288 56.375 51.0846 53.159L57.0753 30.6473Z" fill="#FFD1C2"/>
<path d="M47.3565 22.9188C47.837 21.1593 49.047 19.7735 50.5824 18.9875C49.9183 18.3989 49.1097 17.9514 48.1934 17.7082C45.0527 16.8746 41.8328 18.7433 40.9992 21.8841L31.9644 55.8948C34.9861 57.184 38.4506 55.5088 39.3166 52.3397L47.3565 22.9188Z" fill="#FFD1C2"/>
<path d="M34.0534 24.8265C34.6008 22.8727 36.0613 21.377 37.881 20.6403C37.2314 20.0837 36.4488 19.66 35.5665 19.426C32.4257 18.5924 29.2059 20.461 28.3722 23.6018L19.4419 57.2174C22.0792 58.3075 25.0767 56.8495 25.8469 54.1016L34.0534 24.8265Z" fill="#FFD1C2"/>
<path d="M119.096 45.1579C120.218 42.5506 122.803 40.9726 125.544 40.9109C124.971 40.3062 124.275 39.8012 123.47 39.4387C122.593 39.0435 121.673 38.8574 120.77 38.8574C118.193 38.8574 115.741 40.3794 114.688 42.9211L110.611 52.7666C112.835 54.0477 115.678 53.1029 116.692 50.7458L119.096 45.1579Z" fill="#E0A090"/>
<path d="M94.115 14.3279C93.9799 13.8206 93.9162 13.3132 93.9162 12.8136C93.9162 11.0938 94.6817 9.4747 95.9564 8.37083C94.8645 7.97237 93.6411 7.89181 92.4317 8.21278C89.7982 8.91129 88.0596 11.2898 88.0596 13.8927C88.0596 14.3924 88.1233 14.8997 88.2584 15.407L96.0339 44.6811C99.2058 43.63 101.011 40.2908 100.153 37.0613L94.115 14.3279Z" fill="#E0A090"/>
<path d="M81.227 12.2694C81.0919 11.7646 81.0281 11.2548 81.0281 10.7551C81.0281 9.13372 81.7063 7.59698 82.8537 6.50076C81.8885 6.23869 80.8418 6.21906 79.8052 6.49413C77.1718 7.19265 75.4331 9.57374 75.4331 12.1741C75.4331 12.6737 75.4968 13.1836 75.632 13.6884C75.632 13.6884 76.8862 18.4097 76.8913 18.425L84.2819 46.2511C87.3632 45.4083 89.1878 42.2374 88.3674 39.1499L81.227 12.2694Z" fill="#E0A090"/>
<path d="M55.0844 11.5143C54.0284 11.5143 53.1724 10.6583 53.1724 9.60234V1.912C53.1724 0.856068 54.0284 0 55.0844 0C56.1403 0 56.9964 0.856068 56.9964 1.912V9.60234C56.9964 10.6583 56.1403 11.5143 55.0844 11.5143Z" fill="#B3E5EE"/>
<path d="M48.889 13.0168C48.2968 13.0168 47.713 12.7425 47.339 12.2265L42.8272 5.99872C42.2077 5.14367 42.3986 3.94803 43.2537 3.32854C44.109 2.70906 45.3041 2.90026 45.9238 3.75505L50.4357 9.98283C51.0551 10.8379 50.8642 12.0335 50.0092 12.653C49.6701 12.8985 49.2777 13.0168 48.889 13.0168Z" fill="#B3E5EE"/>
</g>
<defs>
<clipPath id="clip0_3176_5947">
<rect width="128" height="128" fill="white"/>
</clipPath>
</defs>
</svg>
