<svg width="87" height="58" viewBox="0 0 87 58" fill="none" xmlns="http://www.w3.org/2000/svg">
<path d="M0 17.1125V24.8482L57.9011 57.4323L86.5 40.7886V33.5217L28.8333 0L0 17.1125Z" fill="#84B48A"/>
<path d="M0 17.1125L57.9011 49.6965L86.5 33.5217L29.0678 0L0 17.1125Z" fill="#A2D5AA"/>
<path d="M5.3916 17.9877L56.2316 46.883L81.3428 32.5393L30.9145 2.8125L5.3916 17.9877Z" fill="#A2D5AA" stroke="#61996C"/>
<path d="M75.7168 31.1775L59.542 22.0352C60.8547 33.4748 46.4928 35.0844 39.1477 34.4593L53.916 43.3672C56.1664 41.8669 59.2294 42.7421 60.4797 43.3672L75.7168 34.4593C71.7786 32.7715 74.0759 31.5682 75.7168 31.1775Z" fill="#7FB488"/>
<path d="M34.9282 35.3975V44.5398L25.0826 38.9138V30.7091L54.8536 13.5967L63.9959 18.9883L34.9282 35.3975Z" fill="#495768"/>
<path d="M34.9282 35.3964V44.5386L25.0826 38.9126V30.708L34.9282 35.3964Z" fill="#293036"/>
<path d="M11.9553 18.7532L28.1301 27.8955C26.8174 16.4559 41.1793 14.8462 48.5244 15.4713L33.7561 6.56348C31.5057 8.06375 28.4427 7.18859 27.1924 6.56348L11.9553 15.4713C15.8935 17.1591 13.5962 18.3625 11.9553 18.7532Z" fill="#7FB488"/>
<mask id="mask0_1798_7242" style="mask-type:alpha" maskUnits="userSpaceOnUse" x="25" y="13" width="39" height="32">
<path d="M34.9282 35.3965V44.5388L25.0826 38.9128V30.7082L54.8536 13.5957L63.9959 18.9873L34.9282 35.3965Z" fill="#495768"/>
</mask>
<g mask="url(#mask0_1798_7242)">
<path d="M26.0203 39.616V31.177L56.2601 13.5957" stroke="white"/>
<path d="M33.5217 44.0702V35.1623L63.996 17.8154" stroke="white"/>
</g>
<path d="M57.9012 54.1506L48.0557 47.8213L57.9012 53.2129L62.824 50.3999L57.9012 54.1506Z" fill="#6A9770"/>
</svg>
