<svg width="28" height="30" viewBox="0 0 28 30" fill="none" xmlns="http://www.w3.org/2000/svg">
<path d="M24.8893 29.2436H24.6226C24.279 29.2436 24.0004 28.965 24.0004 28.6214C24.0004 28.41 24.1059 28.2231 24.267 28.1107V8.71026H14.5781C14.2345 8.71026 13.9559 8.4317 13.9559 8.08804C13.9559 7.74439 14.2345 7.46582 14.5781 7.46582H24.8893C25.2328 7.46582 25.5115 7.74439 25.5115 8.08804V28.6214C25.5115 28.965 25.2328 29.2436 24.8893 29.2436ZM21.5115 29.2436H18.0448C17.7012 29.2436 17.4226 28.965 17.4226 28.6214V17.7325C17.4226 15.8455 15.8874 14.3103 14.0004 14.3103C12.1134 14.3103 10.5781 15.8455 10.5781 17.7325V21.7769C10.5781 22.1205 10.2996 22.3992 9.95592 22.3992C9.61227 22.3992 9.3337 22.1205 9.3337 21.7769V17.7325C9.3337 15.1593 11.4272 13.0658 14.0004 13.0658C16.5736 13.0658 18.667 15.1593 18.667 17.7325V27.9991H21.5115C21.8551 27.9991 22.1337 28.2778 22.1337 28.6214C22.1337 28.965 21.8551 29.2436 21.5115 29.2436ZM9.95592 29.2436H3.11148C2.76783 29.2436 2.48926 28.965 2.48926 28.6214V8.08804C2.48926 7.74439 2.76783 7.46582 3.11148 7.46582H11.467C11.8106 7.46582 12.0892 7.74439 12.0892 8.08804C12.0892 8.4317 11.8106 8.71026 11.467 8.71026H3.7337V27.9991H9.3337V24.888C9.3337 24.5444 9.61227 24.2658 9.95592 24.2658C10.2996 24.2658 10.5781 24.5444 10.5781 24.888V28.6214C10.5781 28.965 10.2996 29.2436 9.95592 29.2436Z" fill="black"/>
<path d="M27.3778 8.71185H0.622222C0.278569 8.71185 0 8.43328 0 8.08963V5.60074C0 5.25708 0.278569 4.97852 0.622222 4.97852H2.48889C2.83254 4.97852 3.11111 5.25708 3.11111 5.60074C3.11111 5.94439 2.83254 6.22296 2.48889 6.22296H1.24444V7.4674H26.7556V6.22296H5.6C5.25635 6.22296 4.97778 5.94439 4.97778 5.60074C4.97778 5.25708 5.25635 4.97852 5.6 4.97852H27.3778C27.7214 4.97852 28 5.25708 28 5.60074V8.08963C28 8.43328 27.7214 8.71185 27.3778 8.71185Z" fill="black"/>
<path d="M24.8893 6.22259H3.11148C2.76783 6.22259 2.48926 5.94402 2.48926 5.60037V3.11148C2.48926 2.76783 2.76783 2.48926 3.11148 2.48926H9.95592C10.2996 2.48926 10.5781 2.76783 10.5781 3.11148C10.5781 3.45513 10.2996 3.7337 9.95592 3.7337H3.7337V4.97815H24.267V3.7337H13.067C12.7234 3.7337 12.4448 3.45513 12.4448 3.11148C12.4448 2.76783 12.7234 2.48926 13.067 2.48926H24.8893C25.2328 2.48926 25.5115 2.76783 25.5115 3.11148V5.60037C25.5115 5.94402 25.2328 6.22259 24.8893 6.22259Z" fill="black"/>
<path d="M21.7759 3.73333H6.22039C5.98731 3.73333 5.77376 3.6031 5.66711 3.39584C5.56046 3.18858 5.57857 2.93913 5.71403 2.74948L7.49178 0.260587C7.60857 0.0970666 7.79717 0 7.99808 0H19.9981C20.199 0 20.3876 0.0970666 20.5044 0.260587L20.7933 0.664969C20.993 0.944595 20.9282 1.33324 20.6485 1.53297C20.3689 1.7327 19.9803 1.66787 19.7806 1.38824L19.6779 1.24444H8.31834L7.42943 2.48889H21.7759C22.1195 2.48889 22.3982 2.76746 22.3982 3.11111C22.3982 3.45476 22.1195 3.73333 21.7759 3.73333Z" fill="black"/>
<path d="M24.887 11.1995H6.22037C5.87671 11.1995 5.59814 10.921 5.59814 10.5773C5.59814 10.2336 5.87671 9.95508 6.22037 9.95508H24.887C25.2306 9.95508 25.5093 10.2336 25.5093 10.5773C25.5093 10.921 25.2306 11.1995 24.887 11.1995Z" fill="black"/>
<path d="M26.1348 20.5335H16.8014C16.4578 20.5335 16.1792 20.2549 16.1792 19.9113C16.1792 19.5677 16.4578 19.2891 16.8014 19.2891H26.1348C26.4783 19.2891 26.757 19.5677 26.757 19.9113C26.757 20.2549 26.4783 20.5335 26.1348 20.5335Z" fill="black"/>
<path d="M26.1348 22.3997H16.8014C16.4578 22.3997 16.1792 22.1211 16.1792 21.7775C16.1792 21.4339 16.4578 21.1553 16.8014 21.1553H26.1348C26.4783 21.1553 26.757 21.4339 26.757 21.7775C26.757 22.1211 26.4783 22.3997 26.1348 22.3997Z" fill="black"/>
<path d="M11.1997 20.5335H1.86636C1.52271 20.5335 1.24414 20.2549 1.24414 19.9113C1.24414 19.5677 1.52271 19.2891 1.86636 19.2891H11.1997C11.5434 19.2891 11.8219 19.5677 11.8219 19.9113C11.8219 20.2549 11.5434 20.5335 11.1997 20.5335Z" fill="black"/>
<path d="M11.1997 22.3997H1.86636C1.52271 22.3997 1.24414 22.1211 1.24414 21.7775C1.24414 21.4339 1.52271 21.1553 1.86636 21.1553H11.1997C11.5434 21.1553 11.8219 21.4339 11.8219 21.7775C11.8219 22.1211 11.5434 22.3997 11.1997 22.3997Z" fill="black"/>
<path d="M21.1552 18.0449C20.126 18.0449 19.2886 17.2075 19.2886 16.1782C19.2886 15.1489 20.126 14.3115 21.1552 14.3115C22.1845 14.3115 23.0219 15.1489 23.0219 16.1782C23.0219 17.2075 22.1845 18.0449 21.1552 18.0449ZM21.1552 15.556C20.8121 15.556 20.533 15.8351 20.533 16.1782C20.533 16.5213 20.8121 16.8004 21.1552 16.8004C21.4983 16.8004 21.7775 16.5213 21.7775 16.1782C21.7775 15.8351 21.4983 15.556 21.1552 15.556Z" fill="black"/>
<path d="M6.84469 18.0449C5.81541 18.0449 4.97803 17.2075 4.97803 16.1782C4.97803 15.1489 5.81541 14.3115 6.84469 14.3115C7.87397 14.3115 8.71136 15.1489 8.71136 16.1782C8.71136 17.2075 7.87397 18.0449 6.84469 18.0449ZM6.84469 15.556C6.5016 15.556 6.22247 15.8351 6.22247 16.1782C6.22247 16.5213 6.5016 16.8004 6.84469 16.8004C7.18779 16.8004 7.46692 16.5213 7.46692 16.1782C7.46692 15.8351 7.18779 15.556 6.84469 15.556Z" fill="black"/>
</svg>
